<svg width="100" height="48" viewBox="0 0 100 48" fill="none" xmlns="http://www.w3.org/2000/svg">
<path d="M25.2392 12.464V14H29.7392V12.464H28.4192V5.6L25.3112 6.716V8.348L26.6552 7.928V12.464H25.2392ZM36.2073 5.6L34.2513 8.588L32.2833 5.6H30.2313V5.684L33.0513 9.776L30.1953 13.94V14H32.2713L34.2513 11.048L36.2313 14H38.3073V13.94L35.4273 9.776L38.2593 5.684V5.6H36.2073Z" fill="#323232"/>
<path d="M40.9534 11.54C40.9534 13.07 42.0334 14.12 43.5134 14.12C44.9934 14.12 46.0934 13.07 46.0934 11.54C46.0934 10.01 45.0134 8.95 43.5134 8.95C42.0434 8.95 40.9534 10.01 40.9534 11.54ZM45.2734 11.54C45.2734 12.61 44.5334 13.35 43.5134 13.35C42.5134 13.35 41.7634 12.61 41.7634 11.54C41.7634 10.45 42.5234 9.71 43.5234 9.71C44.5134 9.71 45.2734 10.45 45.2734 11.54ZM50.9395 14H51.6995V9.06H50.8695V11.71C50.8695 12.62 50.2995 13.36 49.3895 13.36C48.4395 13.36 47.9995 12.78 47.9995 11.82V9.06H47.1795V11.82C47.1795 13.27 47.9595 14.12 49.2195 14.12C49.9095 14.11 50.4595 13.85 50.8995 13.21L50.9395 14Z" fill="#323232"/>
<path d="M54.9209 8.096H56.7209C56.7569 7.412 57.5489 7.088 58.3049 7.088C59.2649 7.088 59.8409 7.46 59.8409 8.168C59.8409 8.996 58.9409 9.176 58.3169 9.176C56.6489 9.176 54.8249 9.68 54.8249 11.936V14H61.6169V12.272H56.5889V11.948C56.5889 10.892 57.5969 10.808 58.3169 10.808C60.2489 10.808 61.6769 10.208 61.6769 8.132C61.6769 6.308 60.0929 5.492 58.3049 5.492C56.6729 5.492 55.0169 6.14 54.9209 8.096ZM69.0665 5.612H67.2065L62.5985 10.568L62.7545 12.488H67.2305V14.012H69.0665V12.488H70.0265V10.868H69.0665V5.612ZM67.2305 10.868H64.5185L67.2305 7.88V10.868ZM76.6097 5.6L74.6537 8.588L72.6857 5.6H70.6337V5.684L73.4537 9.776L70.5977 13.94V14H72.6737L74.6537 11.048L76.6337 14H78.7097V13.94L75.8297 9.776L78.6617 5.684V5.6H76.6097Z" fill="#323232"/>
<path d="M41.2493 23.3003L41.9443 22.4826C41.3617 21.9818 40.7689 21.8285 39.982 21.8285C39.0621 21.8285 37.8562 22.2169 37.8562 23.3922C37.8562 24.5369 39.0008 24.8742 39.9411 24.9559C40.6667 24.9968 40.9427 25.191 40.9427 25.5283C40.9427 25.886 40.5339 26.0802 40.074 26.0802C39.5016 26.0802 38.7862 25.886 38.2956 25.375L37.6824 26.2641C38.4285 27.0307 39.2052 27.1635 40.0126 27.1635C41.4435 27.1635 42.1793 26.397 42.1793 25.5078C42.1793 24.1894 40.9733 23.9544 40.0229 23.9033C39.3994 23.8624 39.0826 23.6784 39.0826 23.3514C39.0826 23.0345 39.3994 22.8506 40.0024 22.8506C40.4828 22.8506 40.8916 22.9732 41.2493 23.3003ZM47.1369 21.9614L47.096 22.6564C46.8098 22.1556 46.1762 21.8388 45.4914 21.8388C44.0197 21.8388 42.8648 22.7177 42.8648 24.4756C42.8648 26.2437 43.9584 27.1533 45.4608 27.1533C46.0331 27.1533 46.7996 26.8569 47.096 26.2641L47.1573 27H48.3327V21.9614H47.1369ZM45.6039 22.9528C46.585 22.9528 47.0756 23.7193 47.0756 24.4756C47.0756 25.2421 46.585 26.0086 45.6039 26.0086C44.776 26.0086 44.1117 25.4363 44.1117 24.4756C44.1117 23.5149 44.776 22.9528 45.6039 22.9528ZM53.4193 27H54.6661V24.3223C54.6661 22.7381 53.7157 21.849 52.5301 21.849C51.8862 21.849 51.3956 22.0432 50.8744 22.6053L50.7926 21.9614H49.6786V27H50.9153V24.3938C50.9153 23.6273 51.4263 22.9834 52.203 22.9834C52.99 22.9834 53.4193 23.566 53.4193 24.3325V27ZM59.1148 23.3003L59.8098 22.4826C59.2273 21.9818 58.6345 21.8285 57.8475 21.8285C56.9277 21.8285 55.7217 22.2169 55.7217 23.3922C55.7217 24.5369 56.8664 24.8742 57.8066 24.9559C58.5323 24.9968 58.8082 25.191 58.8082 25.5283C58.8082 25.886 58.3994 26.0802 57.9395 26.0802C57.3672 26.0802 56.6517 25.886 56.1612 25.375L55.548 26.2641C56.294 27.0307 57.0708 27.1635 57.8782 27.1635C59.309 27.1635 60.0449 26.397 60.0449 25.5078C60.0449 24.1894 58.8389 23.9544 57.8884 23.9033C57.265 23.8624 56.9481 23.6784 56.9481 23.3514C56.9481 23.0345 57.265 22.8506 57.868 22.8506C58.3483 22.8506 58.7571 22.9732 59.1148 23.3003ZM64.013 27H65.2599V23.1265H66.7418V22.0329H65.2599V21.6957C65.2599 21.0824 65.5767 20.7963 66.0162 20.7963C66.2512 20.7963 66.5067 20.8883 66.7827 21.062L67.2426 20.132C66.8236 19.856 66.3841 19.7232 65.9344 19.7232C64.9226 19.7232 64.013 20.3466 64.013 21.6957V22.0329H63.0727V23.1265H64.013V27ZM68.729 21.9614H67.5741V27H68.821V24.3427C68.821 23.4025 69.424 23.0652 70.0781 23.0652C70.4869 23.0652 70.722 23.1981 70.9775 23.3922L71.5396 22.3089C71.2637 22.0534 70.7629 21.8388 70.2416 21.8388C69.7408 21.8388 69.1889 21.9307 68.821 22.544L68.729 21.9614ZM76.0511 21.9614L76.0103 22.6564C75.7241 22.1556 75.0904 21.8388 74.4057 21.8388C72.934 21.8388 71.7791 22.7177 71.7791 24.4756C71.7791 26.2437 72.8726 27.1533 74.375 27.1533C74.9474 27.1533 75.7139 26.8569 76.0103 26.2641L76.0716 27H77.2469V21.9614H76.0511ZM74.5181 22.9528C75.4992 22.9528 75.9898 23.7193 75.9898 24.4756C75.9898 25.2421 75.4992 26.0086 74.5181 26.0086C73.6903 26.0086 73.0259 25.4363 73.0259 24.4756C73.0259 23.5149 73.6903 22.9528 74.5181 22.9528ZM78.4805 20.5408C78.4805 21.0313 78.8484 21.2664 79.2163 21.2664C79.5843 21.2664 79.9522 21.0313 79.9522 20.5408C79.9522 20.0604 79.5843 19.8151 79.2163 19.8151C78.8484 19.8151 78.4805 20.0604 78.4805 20.5408ZM79.8398 21.941H78.5929V27H79.8398V21.941ZM84.3562 23.3003L85.0511 22.4826C84.4686 21.9818 83.8758 21.8285 83.0889 21.8285C82.169 21.8285 80.963 22.2169 80.963 23.3922C80.963 24.5369 82.1077 24.8742 83.048 24.9559C83.7736 24.9968 84.0496 25.191 84.0496 25.5283C84.0496 25.886 83.6407 26.0802 83.1808 26.0802C82.6085 26.0802 81.8931 25.886 81.4025 25.375L80.7893 26.2641C81.5354 27.0307 82.3121 27.1635 83.1195 27.1635C84.5504 27.1635 85.2862 26.397 85.2862 25.5078C85.2862 24.1894 84.0802 23.9544 83.1297 23.9033C82.5063 23.8624 82.1895 23.6784 82.1895 23.3514C82.1895 23.0345 82.5063 22.8506 83.1093 22.8506C83.5896 22.8506 83.9985 22.9732 84.3562 23.3003Z" fill="#323232"/>
<path fill-rule="evenodd" clip-rule="evenodd" d="M0.402557 29.8484C0.180231 29.0621 0.63749 28.2443 1.42387 28.022L28.3747 20.4025C29.1611 20.1801 29.9788 20.6374 30.2012 21.4238L34.6615 37.2002C34.8838 37.9866 34.4265 38.8043 33.6402 39.0266L6.68928 46.6461C5.9029 46.8685 5.08518 46.4112 4.86285 45.6248L0.402557 29.8484ZM2.59026 30.4725C2.4791 30.0793 2.70773 29.6705 3.10092 29.5593L27.7508 22.5903C28.144 22.4791 28.5529 22.7077 28.664 23.1009L28.9893 24.2513L2.9155 31.6229L3.96858 35.3477L30.0424 27.9761L32.4738 36.5764C32.585 36.9696 32.3564 37.3784 31.9632 37.4896L7.31324 44.4586C6.92005 44.5698 6.51119 44.3411 6.40003 43.9479L2.59026 30.4725Z" fill="#323232"/>
<path fill-rule="evenodd" clip-rule="evenodd" d="M7.12091 36.4642C6.72772 36.5753 6.49909 36.9842 6.61025 37.3774L7.94471 42.0975C8.05587 42.4907 8.46473 42.7193 8.85793 42.6081L17.9486 40.038C18.3418 39.9269 18.5705 39.518 18.4593 39.1248L17.1248 34.4047C17.0137 34.0115 16.6048 33.7829 16.2116 33.8941L7.12091 36.4642ZM12.7459 38.296L10.5191 38.8833L10.4492 38.6182L12.6771 38.0306C12.3109 36.9237 11.0682 36.2968 9.83578 36.6218C8.55842 36.9587 7.77585 38.1908 8.08786 39.3737C8.39987 40.5566 9.6883 41.2425 10.9657 40.9055C12.1919 40.5821 12.9621 39.4338 12.7459 38.296ZM16.5112 39.324L13.5143 40.1145L13.0159 38.2248L16.0128 37.4344C16.5346 37.2968 17.0691 37.6082 17.2068 38.13C17.3444 38.6518 17.033 39.1864 16.5112 39.324ZM15.9428 37.1693L12.9459 37.9598L12.4475 36.0702L15.4444 35.2797C15.9662 35.1421 16.5008 35.4535 16.6384 35.9753C16.776 36.4971 16.4646 37.0317 15.9428 37.1693Z" fill="#0066B1"/>
<path fill-rule="evenodd" clip-rule="evenodd" d="M8 1H95C97.2091 1 99 2.79086 99 5V29C99 31.2091 97.2091 33 95 33H35.9924L36.2603 34H95C97.7614 34 100 31.7614 100 29V5C100 2.23858 97.7614 0 95 0H8C5.23858 0 3 2.23858 3 5V24.6915L4 24.4235V5C4 2.79086 5.79086 1 8 1Z" fill="#323232"/>
</svg>
