<svg width="248" height="173" viewBox="0 0 248 173" fill="none" xmlns="http://www.w3.org/2000/svg">
<path d="M63.0145 43.52V48H77.7745V43.52H73.1345V20L63.2545 23.28V28.08L67.8945 26.72V43.52H63.0145ZM100.543 20.04H92.5033L79.9033 37.32L80.3833 42.68H95.3433V48H100.543V42.68H103.823V37.56H100.543V20.04ZM95.3433 37.56H85.8633L95.3433 24.6V37.56ZM107.742 31.84V36.16C107.742 44.52 113.742 48.72 119.782 48.72C125.742 48.72 131.822 44.52 131.822 36.16V31.84C131.822 23.48 125.742 19.32 119.782 19.32C113.742 19.32 107.742 23.48 107.742 31.84ZM112.982 36.16V31.84C112.982 26.8 116.342 24.32 119.742 24.32C123.102 24.32 126.582 26.88 126.582 31.84V36.16C126.582 41.24 123.182 43.8 119.742 43.8C116.382 43.8 112.982 41.24 112.982 36.16ZM157.58 27.04L160.86 23.68C157.98 20.8 154.26 19.4 150.46 19.4C140.58 19.4 135.66 26.68 135.66 34.36C135.66 41.72 139.94 48.64 150.46 48.64C155.42 48.64 158.86 46.8 161.62 43.6V31.8H149.62V36.52H156.78V41.48C154.54 43.24 152.7 43.72 150.46 43.72C143.5 43.72 140.82 38.96 140.82 34.36C140.82 28.56 144.46 24.24 150.46 24.24C152.9 24.24 155.7 25.24 157.58 27.04ZM175.347 27.8C169.067 27.8 165.067 32.52 165.067 38.16C165.067 43.92 168.947 48.56 175.387 48.56C181.827 48.56 185.747 43.92 185.747 38.16C185.747 32.52 181.667 27.8 175.347 27.8ZM175.387 32.32C178.667 32.32 180.747 35.2 180.747 38.16C180.747 41.12 178.947 44 175.387 44C171.827 44 170.027 41.12 170.027 38.16C170.027 35.2 171.867 32.32 175.387 32.32Z" fill="#323232"/>
<path d="M66.008 77.214H64.3V81.036C63.88 80.308 62.76 79.93 62.032 79.93C60.016 79.93 58.518 81.162 58.518 83.542C58.518 85.81 60.058 87.196 62.074 87.196C62.914 87.196 63.754 86.944 64.3 86.048L64.412 87H66.008V77.214ZM62.186 81.526C63.264 81.526 64.188 82.352 64.188 83.542C64.188 84.802 63.264 85.586 62.186 85.586C61.094 85.586 60.226 84.76 60.226 83.542C60.226 82.296 61.108 81.526 62.186 81.526ZM71.0017 79.93C68.8037 79.93 67.4037 81.582 67.4037 83.556C67.4037 85.572 68.7617 87.196 71.0157 87.196C73.2697 87.196 74.6417 85.572 74.6417 83.556C74.6417 81.582 73.2137 79.93 71.0017 79.93ZM71.0157 81.512C72.1637 81.512 72.8917 82.52 72.8917 83.556C72.8917 84.592 72.2617 85.6 71.0157 85.6C69.7697 85.6 69.1397 84.592 69.1397 83.556C69.1397 82.52 69.7837 81.512 71.0157 81.512ZM81.1652 87H82.8732V83.332C82.8732 81.162 81.5712 79.944 79.9472 79.944C79.0652 79.944 78.3932 80.21 77.6792 80.98L77.5672 80.098H76.0412V87H77.7352V83.43C77.7352 82.38 78.4352 81.498 79.4992 81.498C80.5772 81.498 81.1652 82.296 81.1652 83.346V87ZM86.9958 78.152L85.2878 78.334V80.14H83.9998V81.61H85.2878V84.648C85.2878 86.328 86.1978 87.168 87.6258 87.168C88.2138 87.168 88.6478 87.098 89.1798 86.874L88.7038 85.418C88.4378 85.544 88.1438 85.628 87.8778 85.628C87.3318 85.628 86.9818 85.306 86.9818 84.648V81.61H88.8998V80.14H86.9958V78.152ZM96.0429 82.73H97.5689C99.3329 82.73 99.6549 83.458 99.6549 84.046C99.6549 85.096 98.4089 85.488 97.4709 85.488C96.6729 85.488 95.3149 85.138 95.3149 84.13H93.4529C93.4529 86.37 95.6089 87.14 97.4569 87.14C99.3469 87.14 101.601 86.44 101.601 84.032C101.601 83.08 100.957 82.296 100.005 81.974C100.859 81.708 101.363 80.938 101.363 80.042C101.363 77.97 99.3609 77.06 97.5129 77.06C95.7069 77.06 93.6069 77.83 93.6069 79.944H95.4549C95.4549 79.048 96.6309 78.74 97.4989 78.74C99.0529 78.74 99.5149 79.482 99.5149 80.042C99.5149 80.952 98.4509 81.218 97.4569 81.218H96.0429V82.73ZM103.053 81.344V82.856C103.053 85.782 105.153 87.252 107.267 87.252C109.353 87.252 111.481 85.782 111.481 82.856V81.344C111.481 78.418 109.353 76.962 107.267 76.962C105.153 76.962 103.053 78.418 103.053 81.344ZM104.887 82.856V81.344C104.887 79.58 106.063 78.712 107.253 78.712C108.429 78.712 109.647 79.608 109.647 81.344V82.856C109.647 84.634 108.457 85.53 107.253 85.53C106.077 85.53 104.887 84.634 104.887 82.856ZM120.496 79.664L121.644 78.488C120.636 77.48 119.334 76.99 118.004 76.99C114.546 76.99 112.824 79.538 112.824 82.226C112.824 84.802 114.322 87.224 118.004 87.224C119.74 87.224 120.944 86.58 121.91 85.46V81.33H117.71V82.982H120.216V84.718C119.432 85.334 118.788 85.502 118.004 85.502C115.568 85.502 114.63 83.836 114.63 82.226C114.63 80.196 115.904 78.684 118.004 78.684C118.858 78.684 119.838 79.034 120.496 79.664ZM126.715 79.93C124.517 79.93 123.117 81.582 123.117 83.556C123.117 85.572 124.475 87.196 126.729 87.196C128.983 87.196 130.355 85.572 130.355 83.556C130.355 81.582 128.927 79.93 126.715 79.93ZM126.729 81.512C127.877 81.512 128.605 82.52 128.605 83.556C128.605 84.592 127.975 85.6 126.729 85.6C125.483 85.6 124.853 84.592 124.853 83.556C124.853 82.52 125.497 81.512 126.729 81.512ZM136.503 84.186H141.893C141.907 83.962 141.921 83.752 141.921 83.542C141.921 81.134 140.521 79.916 138.407 79.916C136.167 79.916 134.739 81.428 134.739 83.528C134.739 85.726 136.153 87.21 138.533 87.21C139.597 87.21 140.759 86.832 141.501 86.09L140.409 85.012C140.003 85.418 139.191 85.656 138.561 85.656C137.343 85.656 136.615 85.04 136.503 84.186ZM140.255 82.772H136.531C136.797 81.876 137.525 81.428 138.463 81.428C139.457 81.428 140.143 81.876 140.255 82.772ZM148.403 87H150.111V83.332C150.111 81.162 148.809 79.944 147.185 79.944C146.303 79.944 145.631 80.21 144.917 80.98L144.805 80.098H143.279V87H144.973V83.43C144.973 82.38 145.673 81.498 146.737 81.498C147.815 81.498 148.403 82.296 148.403 83.346V87ZM162.83 87V85.18H157.328V82.968H162.634V81.246H157.328V78.992H162.83V77.2H155.494V87H162.83ZM166.026 80.098H164.318V83.808C164.318 85.936 165.536 87.196 167.174 87.196C168.14 87.196 168.798 86.874 169.512 86.16L169.624 87.028H171.15V80.098H169.456V83.71C169.456 84.76 168.756 85.642 167.692 85.642C166.6 85.642 166.026 84.844 166.026 83.794V80.098ZM174.584 80.098H173.002V87H174.71V83.36C174.71 82.072 175.536 81.61 176.432 81.61C176.992 81.61 177.314 81.792 177.664 82.058L178.434 80.574C178.056 80.224 177.37 79.93 176.656 79.93C175.97 79.93 175.214 80.056 174.71 80.896L174.584 80.098ZM182.318 79.93C180.12 79.93 178.72 81.582 178.72 83.556C178.72 85.572 180.078 87.196 182.332 87.196C184.586 87.196 185.958 85.572 185.958 83.556C185.958 81.582 184.53 79.93 182.318 79.93ZM182.332 81.512C183.48 81.512 184.208 82.52 184.208 83.556C184.208 84.592 183.578 85.6 182.332 85.6C181.086 85.6 180.456 84.592 180.456 83.556C180.456 82.52 181.1 81.512 182.332 81.512ZM187.358 90.164H189.066V86.188C189.57 86.958 190.62 87.196 191.362 87.196C193.574 87.196 194.848 85.572 194.848 83.556C194.848 81.526 193.434 79.944 191.306 79.944C190.522 79.944 189.612 80.266 189.066 81.05L188.954 80.098H187.358V90.164ZM191.18 85.53C190.004 85.53 189.22 84.634 189.22 83.556C189.22 82.478 189.948 81.596 191.18 81.596C192.412 81.596 193.14 82.478 193.14 83.556C193.14 84.634 192.356 85.53 191.18 85.53ZM197.63 84.186H203.02C203.034 83.962 203.048 83.752 203.048 83.542C203.048 81.134 201.648 79.916 199.534 79.916C197.294 79.916 195.866 81.428 195.866 83.528C195.866 85.726 197.28 87.21 199.66 87.21C200.724 87.21 201.886 86.832 202.628 86.09L201.536 85.012C201.13 85.418 200.318 85.656 199.688 85.656C198.47 85.656 197.742 85.04 197.63 84.186ZM201.382 82.772H197.658C197.924 81.876 198.652 81.428 199.59 81.428C200.584 81.428 201.27 81.876 201.382 82.772ZM60.282 106.186H65.672C65.686 105.962 65.7 105.752 65.7 105.542C65.7 103.134 64.3 101.916 62.186 101.916C59.946 101.916 58.518 103.428 58.518 105.528C58.518 107.726 59.932 109.21 62.312 109.21C63.376 109.21 64.538 108.832 65.28 108.09L64.188 107.012C63.782 107.418 62.97 107.656 62.34 107.656C61.122 107.656 60.394 107.04 60.282 106.186ZM64.034 104.772H60.31C60.576 103.876 61.304 103.428 62.242 103.428C63.236 103.428 63.922 103.876 64.034 104.772ZM69.5368 100.152L67.8288 100.334V102.14H66.5408V103.61H67.8288V106.648C67.8288 108.328 68.7388 109.168 70.1668 109.168C70.7548 109.168 71.1888 109.098 71.7208 108.874L71.2448 107.418C70.9788 107.544 70.6848 107.628 70.4188 107.628C69.8728 107.628 69.5228 107.306 69.5228 106.648V103.61H71.4408V102.14H69.5368V100.152ZM80.3479 99.2H76.4979V109H80.3479C83.7359 109 85.2479 106.564 85.2479 104.114C85.2479 101.65 83.7499 99.2 80.3479 99.2ZM78.3319 107.222V100.95H80.3479C82.5179 100.95 83.4139 102.546 83.4139 104.114C83.4139 105.668 82.5319 107.222 80.3479 107.222H78.3319ZM91.5196 99.004C88.6636 99.004 86.4376 101.076 86.4376 104.17C86.4376 106.746 88.0336 109.224 91.4776 109.224C94.9636 109.224 96.5036 106.62 96.5036 104.058C96.5036 101.552 94.8236 99.046 91.5196 99.004ZM88.2576 104.044C88.2576 102.154 89.5036 100.684 91.5196 100.684C93.7316 100.726 94.6836 102.49 94.6836 104.086C94.6836 105.724 93.8436 107.53 91.4776 107.53C89.1116 107.53 88.2576 105.696 88.2576 104.044ZM106.762 101.902V109.014H108.61V99.214H106.496L103.43 103.428L100.364 99.214H98.2362V109.014H100.084V101.888L103.206 106.158H103.57L106.762 101.902ZM116.579 98.276H114.787L110.125 110.148H111.903L116.579 98.276ZM126.186 107.768L124.926 106.494C124.268 107.152 123.316 107.488 122.462 107.488C120.054 107.488 119.088 105.794 119.088 104.17C119.088 102.532 120.082 100.768 122.462 100.768C123.316 100.768 124.17 101.062 124.828 101.692L126.06 100.502C125.052 99.494 123.806 99.004 122.462 99.004C118.906 99.004 117.268 101.608 117.268 104.17C117.268 106.704 118.822 109.224 122.462 109.224C123.876 109.224 125.178 108.776 126.186 107.768ZM131.893 99.004C129.037 99.004 126.811 101.076 126.811 104.17C126.811 106.746 128.407 109.224 131.851 109.224C135.337 109.224 136.877 106.62 136.877 104.058C136.877 101.552 135.197 99.046 131.893 99.004ZM128.631 104.044C128.631 102.154 129.877 100.684 131.893 100.684C134.105 100.726 135.057 102.49 135.057 104.086C135.057 105.724 134.217 107.53 131.851 107.53C129.485 107.53 128.631 105.696 128.631 104.044ZM147.135 101.902V109.014H148.983V99.214H146.869L143.803 103.428L140.737 99.214H138.609V109.014H140.457V101.888L143.579 106.158H143.943L147.135 101.902Z" fill="#323232"/>
<rect x="32.125" y="80" width="1" height="30" fill="white"/>
<rect x="32.625" y="68.5" width="196.75" height="53" rx="9.5" stroke="#E4E4E4"/>
<path fill-rule="evenodd" clip-rule="evenodd" d="M44.3861 88.4441C44.6873 88.6198 44.9571 88.9215 44.9972 89.3713L44.993 89.3717C45.0176 89.6996 44.979 90.0301 44.8788 90.3426C44.7783 90.6562 44.6172 90.9469 44.4032 91.1945L44.3355 91.2729L37.4445 95.3076L34.9384 101.947L32.6568 103.756L32.4361 97.9211L26.8353 101.357L20.769 96.2975L23.453 94.834L23.722 94.9365C25.3132 95.5429 26.1751 95.8279 26.6759 95.9369C26.9238 95.9908 27.0376 95.9908 27.0842 95.9857C27.1046 95.9835 27.1085 95.9831 27.1369 95.9641L27.1591 95.9493L30.1543 94.3038L22.0631 90.5575L26.189 89.1004L35.7265 91.2604L41.0263 88.3571L41.0544 88.3451C41.3298 88.2275 41.6215 88.1564 41.9191 88.135L41.9414 88.1334H41.9638C42.0294 88.1334 42.1105 88.1318 42.203 88.1301C42.5515 88.1234 43.0609 88.1137 43.5008 88.1723C43.7824 88.2098 44.1087 88.2823 44.3861 88.4441ZM43.7495 89.52C43.6809 89.4822 43.5486 89.4397 43.3357 89.4113C43.0008 89.3667 42.6351 89.3733 42.2949 89.3793C42.1899 89.3812 42.0872 89.3831 41.9887 89.3833C41.8468 89.3955 41.7063 89.4292 41.571 89.484L35.912 92.5841L26.2649 90.3993L25.3751 90.7135L32.9237 94.2085L27.8052 97.0206C27.6547 97.1171 27.4701 97.201 27.2196 97.2283C26.9803 97.2544 26.7158 97.2248 26.4101 97.1583C25.8392 97.034 24.9666 96.7435 23.5464 96.2069L22.9814 96.515L26.9467 99.8221L33.6044 95.738L33.8127 101.244L33.8909 101.182L36.4312 94.4524L43.5149 90.3049C43.5885 90.2039 43.6478 90.0879 43.6885 89.961C43.7336 89.8201 43.7545 89.6704 43.7495 89.52Z" fill="#323232"/>
<path d="M36.6236 166H37.7576V159.084H36.6376L36.6236 160.344C36.0916 159.364 35.1536 158.93 34.0616 158.93C32.1016 158.93 30.5056 160.204 30.5056 162.542C30.5056 164.796 32.0596 166.168 34.0476 166.168C34.9996 166.168 36.0496 165.72 36.5956 164.782L36.6236 166ZM34.1036 160.022C35.7836 160.022 36.6236 161.282 36.6236 162.556C36.6236 163.844 35.7836 165.118 34.1036 165.118C32.7316 165.118 31.6116 164.11 31.6116 162.584C31.6116 160.96 32.7316 160.022 34.1036 160.022ZM40.0074 159.098V169.276H41.1274V164.768C41.7014 165.72 42.7654 166.168 43.7454 166.168C45.8034 166.168 47.1474 164.754 47.1474 162.556C47.1474 160.358 45.7754 158.986 43.8014 158.93C42.6954 158.93 41.7154 159.504 41.1694 160.442L41.0994 159.098H40.0074ZM43.6754 165.09C42.2754 165.09 41.2674 164.012 41.2674 162.584C41.2674 161.17 42.2334 160.064 43.6754 160.064C45.0754 160.064 45.9994 160.96 45.9994 162.584C45.9994 164.152 45.0614 165.09 43.6754 165.09ZM48.9351 159.098V169.276H50.0551V164.768C50.6291 165.72 51.6931 166.168 52.6731 166.168C54.7311 166.168 56.0751 164.754 56.0751 162.556C56.0751 160.358 54.7031 158.986 52.7291 158.93C51.6231 158.93 50.6431 159.504 50.0971 160.442L50.0271 159.098H48.9351ZM52.6031 165.09C51.2031 165.09 50.1951 164.012 50.1951 162.584C50.1951 161.17 51.1611 160.064 52.6031 160.064C54.0031 160.064 54.9271 160.96 54.9271 162.584C54.9271 164.152 53.9891 165.09 52.6031 165.09ZM63.9249 164.936H63.9389L63.1549 164.25C62.7069 164.81 61.7269 165.104 60.9569 165.104C59.6409 165.104 58.5629 164.278 58.4369 162.934H64.3309C64.3449 162.738 64.3589 162.542 64.3589 162.36C64.3589 160.008 62.8329 158.93 60.8729 158.93C58.7869 158.93 57.2889 160.428 57.2889 162.514C57.2889 164.768 58.7869 166.168 60.9289 166.168C62.0069 166.168 63.1969 165.776 63.9249 164.936ZM63.2249 161.982H58.4369C58.6609 160.638 59.6969 159.966 60.9009 159.966C62.2589 159.966 63.1829 160.652 63.2249 161.982ZM67.144 166V156.2H66.01V166H67.144ZM73.7819 160.624L74.4539 159.854C73.7119 159.196 72.8719 158.93 71.8359 158.93C70.4779 158.93 69.0219 159.476 69.0219 160.96C69.0219 162.402 70.4499 162.794 71.7799 162.934C72.8439 163.06 73.6419 163.312 73.6419 164.054C73.5999 164.894 72.6619 165.118 71.8919 165.118C71.0519 165.118 70.0439 164.88 69.4419 164.11L68.7559 164.88C69.5259 165.888 70.7159 166.168 71.8779 166.168C73.4459 166.168 74.7619 165.482 74.7619 164.04C74.7619 162.388 73.0959 162.136 71.8639 161.982C71.0099 161.87 70.1279 161.688 70.1279 160.96C70.1279 160.274 70.8839 159.952 71.8499 159.952C72.5499 159.952 73.1799 160.078 73.7819 160.624ZM76.6803 166.014L76.6663 166.042L76.3163 167.302H77.0723C77.3383 166.406 77.7023 165.552 77.7023 165.426C77.7023 164.936 77.3103 164.67 76.9323 164.67C76.5543 164.67 76.1903 164.908 76.1903 165.398C76.1903 165.734 76.4003 165.944 76.6803 166.014ZM89.6739 158.384L90.5979 157.81C89.7159 156.368 88.2879 156.004 86.8739 156.004C85.2219 156.004 83.1219 156.76 83.1219 158.692C83.1219 160.736 84.9559 161.156 86.8599 161.45C88.3299 161.674 89.6879 162.024 89.6879 163.228C89.6879 164.684 88.0919 165.076 86.9019 165.076C85.5579 165.076 84.3959 164.544 83.7379 163.34L82.7719 163.942C83.5279 165.608 85.2499 166.196 86.8879 166.196C88.7499 166.196 90.8779 165.454 90.8779 163.242C90.8779 161.128 88.9319 160.666 86.9859 160.372C85.5439 160.148 84.3259 159.812 84.3259 158.734C84.3259 157.628 85.6559 157.096 86.9019 157.096C88.0079 157.11 89.1139 157.53 89.6739 158.384ZM97.8228 162.92L101.379 157.95V166H102.583V156.2H101.127L97.7108 161.24L94.2808 156.2H92.8108V166H94.0288V157.922L97.5708 162.92H97.8228ZM111.358 158.384L112.282 157.81C111.4 156.368 109.972 156.004 108.558 156.004C106.906 156.004 104.806 156.76 104.806 158.692C104.806 160.736 106.64 161.156 108.544 161.45C110.014 161.674 111.372 162.024 111.372 163.228C111.372 164.684 109.776 165.076 108.586 165.076C107.242 165.076 106.08 164.544 105.422 163.34L104.456 163.942C105.212 165.608 106.934 166.196 108.572 166.196C110.434 166.196 112.562 165.454 112.562 163.242C112.562 161.128 110.616 160.666 108.67 160.372C107.228 160.148 106.01 159.812 106.01 158.734C106.01 157.628 107.34 157.096 108.586 157.096C109.692 157.11 110.798 157.53 111.358 158.384ZM123.564 158.65V158.664H124.712C124.712 156.62 123.018 156.102 121.366 156.102C119.336 156.102 117.782 157.068 117.782 158.86C117.782 159.784 118.398 160.708 119.364 160.988C118.412 161.338 117.6 162.164 117.6 163.214C117.6 165.258 119.056 166.126 121.338 166.126C122.36 166.126 123.494 165.916 124.18 164.81C124.446 165.748 125.132 166.07 125.93 166.014V164.908C125.09 164.908 124.866 164.166 124.866 163.284V161.478H125.72V160.484H121.366C120.428 160.484 118.972 160.12 118.972 158.818C118.972 157.964 119.672 157.11 121.338 157.11C122.514 157.11 123.564 157.404 123.564 158.65ZM121.282 161.464H123.746V163.256C123.746 164.6 122.22 165.048 121.31 165.048C119.77 165.048 118.79 164.376 118.79 163.2C118.79 162.388 119.616 161.464 121.282 161.464ZM136.487 162.92L140.043 157.95V166H141.247V156.2H139.791L136.375 161.24L132.945 156.2H131.475V166H132.693V157.922L136.235 162.92H136.487ZM148.874 162.92L152.43 157.95V166H153.634V156.2H152.178L148.762 161.24L145.332 156.2H143.862V166H145.08V157.922L148.622 162.92H148.874ZM162.408 158.384L163.332 157.81C162.45 156.368 161.022 156.004 159.608 156.004C157.956 156.004 155.856 156.76 155.856 158.692C155.856 160.736 157.69 161.156 159.594 161.45C161.064 161.674 162.422 162.024 162.422 163.228C162.422 164.684 160.826 165.076 159.636 165.076C158.292 165.076 157.13 164.544 156.472 163.34L155.506 163.942C156.262 165.608 157.984 166.196 159.622 166.196C161.484 166.196 163.612 165.454 163.612 163.242C163.612 161.128 161.666 160.666 159.72 160.372C158.278 160.148 157.06 159.812 157.06 158.734C157.06 157.628 158.39 157.096 159.636 157.096C160.742 157.11 161.848 157.53 162.408 158.384ZM168.721 156.97C168.721 157.474 169.085 157.712 169.477 157.712C169.841 157.712 170.247 157.488 170.247 156.984C170.247 156.48 169.841 156.228 169.477 156.228C169.085 156.228 168.721 156.48 168.721 156.97ZM168.889 159.098V166H170.037V159.098H168.889ZM173.374 166V156.2H172.24V166H173.374ZM176.792 166V156.2H175.658V166H176.792ZM178.824 156.97C178.824 157.474 179.188 157.712 179.58 157.712C179.944 157.712 180.35 157.488 180.35 156.984C180.35 156.48 179.944 156.228 179.58 156.228C179.188 156.228 178.824 156.48 178.824 156.97ZM178.992 159.098V166H180.14V159.098H178.992ZM183.338 159.098H182.26V166H183.408V162.08C183.408 160.96 184.15 160.008 185.298 160.008C186.432 160.008 187.146 160.918 187.146 162.038V166H188.294V162.038C188.294 160.918 189.064 160.008 190.184 160.008C191.318 160.008 191.976 160.876 191.976 162.01V166H193.138V162.01C193.138 160.106 192.046 158.93 190.212 158.93C189.232 158.93 188.28 159.378 187.762 160.442C187.37 159.336 186.404 158.93 185.452 158.93C184.668 158.93 183.842 159.28 183.408 160.106L183.338 159.098ZM194.985 156.97C194.985 157.474 195.349 157.712 195.741 157.712C196.105 157.712 196.511 157.488 196.511 156.984C196.511 156.48 196.105 156.228 195.741 156.228C195.349 156.228 194.985 156.48 194.985 156.97ZM195.153 159.098V166H196.301V159.098H195.153ZM200.38 159.056V157.068L199.218 157.194V159.056H197.832V160.036H199.218V163.816C199.218 165.3 199.876 166.168 201.304 166.168C201.808 166.168 202.27 166.056 202.746 165.832L202.41 164.88C202.088 165.034 201.766 165.146 201.458 165.146C200.618 165.146 200.366 164.628 200.366 163.816V160.036H202.508V159.056H200.38ZM206.379 157.908V157.992H207.429L208.843 156.186V156.144H207.415L206.379 157.908ZM210.187 164.936H210.201L209.417 164.25C208.969 164.81 207.989 165.104 207.219 165.104C205.903 165.104 204.825 164.278 204.699 162.934H210.593C210.607 162.738 210.621 162.542 210.621 162.36C210.621 160.008 209.095 158.93 207.135 158.93C205.049 158.93 203.551 160.428 203.551 162.514C203.551 164.768 205.049 166.168 207.191 166.168C208.269 166.168 209.459 165.776 210.187 164.936ZM209.487 161.982H204.699C204.923 160.638 205.959 159.966 207.163 159.966C208.521 159.966 209.445 160.652 209.487 161.982ZM216.612 160.624L217.284 159.854C216.542 159.196 215.702 158.93 214.666 158.93C213.308 158.93 211.852 159.476 211.852 160.96C211.852 162.402 213.28 162.794 214.61 162.934C215.674 163.06 216.472 163.312 216.472 164.054C216.43 164.894 215.492 165.118 214.722 165.118C213.882 165.118 212.874 164.88 212.272 164.11L211.586 164.88C212.356 165.888 213.546 166.168 214.708 166.168C216.276 166.168 217.592 165.482 217.592 164.04C217.592 162.388 215.926 162.136 214.694 161.982C213.84 161.87 212.958 161.688 212.958 160.96C212.958 160.274 213.714 159.952 214.68 159.952C215.38 159.952 216.01 160.078 216.612 160.624Z" fill="black"/>
</svg>
