<svg width="248" height="173" viewBox="0 0 248 173" fill="none" xmlns="http://www.w3.org/2000/svg">
<path d="M57.8044 28.12H63.0444C63.1644 25.36 66.3244 24.2 69.4044 24.2C72.6444 24.32 75.0444 25.36 75.0444 28.4C75.0444 31.6 71.1644 32.28 69.0444 32.28C63.5244 32.28 57.6844 34.2 57.6844 40.64V48H80.3644V43.08H62.9644V40.68C62.9644 37.64 66.6844 37.04 69.0444 37.04C74.9644 37.04 80.2844 35.44 80.2844 28.28C80.2844 21.72 74.6444 19.64 69.4044 19.64C64.0444 19.64 58.3244 21.52 57.8044 28.12ZM84.7538 31.84V36.16C84.7538 44.52 90.7538 48.72 96.7938 48.72C102.754 48.72 108.834 44.52 108.834 36.16V31.84C108.834 23.48 102.754 19.32 96.7938 19.32C90.7538 19.32 84.7538 23.48 84.7538 31.84ZM89.9938 36.16V31.84C89.9938 26.8 93.3538 24.32 96.7538 24.32C100.114 24.32 103.594 26.88 103.594 31.84V36.16C103.594 41.24 100.194 43.8 96.7538 43.8C93.3938 43.8 89.9938 41.24 89.9938 36.16ZM113.152 31.84V36.16C113.152 44.52 119.152 48.72 125.192 48.72C131.152 48.72 137.232 44.52 137.232 36.16V31.84C137.232 23.48 131.152 19.32 125.192 19.32C119.152 19.32 113.152 23.48 113.152 31.84ZM118.392 36.16V31.84C118.392 26.8 121.752 24.32 125.152 24.32C128.512 24.32 131.992 26.88 131.992 31.84V36.16C131.992 41.24 128.592 43.8 125.152 43.8C121.792 43.8 118.392 41.24 118.392 36.16ZM162.991 27.04L166.271 23.68C163.391 20.8 159.671 19.4 155.871 19.4C145.991 19.4 141.071 26.68 141.071 34.36C141.071 41.72 145.351 48.64 155.871 48.64C160.831 48.64 164.271 46.8 167.031 43.6V31.8H155.031V36.52H162.191V41.48C159.951 43.24 158.111 43.72 155.871 43.72C148.911 43.72 146.231 38.96 146.231 34.36C146.231 28.56 149.871 24.24 155.871 24.24C158.311 24.24 161.111 25.24 162.991 27.04ZM180.757 27.8C174.477 27.8 170.477 32.52 170.477 38.16C170.477 43.92 174.357 48.56 180.797 48.56C187.237 48.56 191.157 43.92 191.157 38.16C191.157 32.52 187.077 27.8 180.757 27.8ZM180.797 32.32C184.077 32.32 186.157 35.2 186.157 38.16C186.157 41.12 184.357 44 180.797 44C177.237 44 175.437 41.12 175.437 38.16C175.437 35.2 177.277 32.32 180.797 32.32Z" fill="#323232"/>
<path d="M66.508 77.214H64.8V81.036C64.38 80.308 63.26 79.93 62.532 79.93C60.516 79.93 59.018 81.162 59.018 83.542C59.018 85.81 60.558 87.196 62.574 87.196C63.414 87.196 64.254 86.944 64.8 86.048L64.912 87H66.508V77.214ZM62.686 81.526C63.764 81.526 64.688 82.352 64.688 83.542C64.688 84.802 63.764 85.586 62.686 85.586C61.594 85.586 60.726 84.76 60.726 83.542C60.726 82.296 61.608 81.526 62.686 81.526ZM71.5017 79.93C69.3037 79.93 67.9037 81.582 67.9037 83.556C67.9037 85.572 69.2617 87.196 71.5157 87.196C73.7697 87.196 75.1417 85.572 75.1417 83.556C75.1417 81.582 73.7137 79.93 71.5017 79.93ZM71.5157 81.512C72.6637 81.512 73.3917 82.52 73.3917 83.556C73.3917 84.592 72.7617 85.6 71.5157 85.6C70.2697 85.6 69.6397 84.592 69.6397 83.556C69.6397 82.52 70.2837 81.512 71.5157 81.512ZM81.6652 87H83.3732V83.332C83.3732 81.162 82.0712 79.944 80.4472 79.944C79.5652 79.944 78.8932 80.21 78.1792 80.98L78.0672 80.098H76.5412V87H78.2352V83.43C78.2352 82.38 78.9352 81.498 79.9992 81.498C81.0772 81.498 81.6652 82.296 81.6652 83.346V87ZM87.4958 78.152L85.7878 78.334V80.14H84.4998V81.61H85.7878V84.648C85.7878 86.328 86.6978 87.168 88.1258 87.168C88.7138 87.168 89.1478 87.098 89.6798 86.874L89.2038 85.418C88.9378 85.544 88.6438 85.628 88.3778 85.628C87.8318 85.628 87.4818 85.306 87.4818 84.648V81.61H89.3998V80.14H87.4958V78.152ZM100.883 77.214H98.0689L93.6589 83.262L93.8269 85.138H99.0629V87H100.883V85.138H102.031V83.346H100.883V77.214ZM99.0629 83.346H95.7449L99.0629 78.81V83.346ZM110.682 78.95V77.214H103.584V82.394H107.294C108.316 82.394 109.394 82.716 109.394 83.822C109.394 84.984 108.26 85.404 107.364 85.404C106.44 85.404 105.208 85.11 105.208 84.046H103.374C103.374 86.342 105.236 87.112 107.392 87.112C109.366 87.112 111.228 86.048 111.228 83.822C111.228 81.526 109.394 80.672 107.294 80.672H105.39V78.95H110.682ZM120.094 79.664L121.242 78.488C120.234 77.48 118.932 76.99 117.602 76.99C114.144 76.99 112.422 79.538 112.422 82.226C112.422 84.802 113.92 87.224 117.602 87.224C119.338 87.224 120.542 86.58 121.508 85.46V81.33H117.308V82.982H119.814V84.718C119.03 85.334 118.386 85.502 117.602 85.502C115.166 85.502 114.228 83.836 114.228 82.226C114.228 80.196 115.502 78.684 117.602 78.684C118.456 78.684 119.436 79.034 120.094 79.664ZM126.312 79.93C124.114 79.93 122.714 81.582 122.714 83.556C122.714 85.572 124.072 87.196 126.326 87.196C128.58 87.196 129.952 85.572 129.952 83.556C129.952 81.582 128.524 79.93 126.312 79.93ZM126.326 81.512C127.474 81.512 128.202 82.52 128.202 83.556C128.202 84.592 127.572 85.6 126.326 85.6C125.08 85.6 124.45 84.592 124.45 83.556C124.45 82.52 125.094 81.512 126.326 81.512ZM136.1 84.186H141.49C141.504 83.962 141.518 83.752 141.518 83.542C141.518 81.134 140.118 79.916 138.004 79.916C135.764 79.916 134.336 81.428 134.336 83.528C134.336 85.726 135.75 87.21 138.13 87.21C139.194 87.21 140.356 86.832 141.098 86.09L140.006 85.012C139.6 85.418 138.788 85.656 138.158 85.656C136.94 85.656 136.212 85.04 136.1 84.186ZM139.852 82.772H136.128C136.394 81.876 137.122 81.428 138.06 81.428C139.054 81.428 139.74 81.876 139.852 82.772ZM148.001 87H149.709V83.332C149.709 81.162 148.407 79.944 146.783 79.944C145.901 79.944 145.229 80.21 144.515 80.98L144.403 80.098H142.877V87H144.571V83.43C144.571 82.38 145.271 81.498 146.335 81.498C147.413 81.498 148.001 82.296 148.001 83.346V87ZM162.428 87V85.18H156.926V82.968H162.232V81.246H156.926V78.992H162.428V77.2H155.092V87H162.428ZM165.624 80.098H163.916V83.808C163.916 85.936 165.134 87.196 166.772 87.196C167.738 87.196 168.396 86.874 169.11 86.16L169.222 87.028H170.748V80.098H169.054V83.71C169.054 84.76 168.354 85.642 167.29 85.642C166.198 85.642 165.624 84.844 165.624 83.794V80.098ZM174.182 80.098H172.6V87H174.308V83.36C174.308 82.072 175.134 81.61 176.03 81.61C176.59 81.61 176.912 81.792 177.262 82.058L178.032 80.574C177.654 80.224 176.968 79.93 176.254 79.93C175.568 79.93 174.812 80.056 174.308 80.896L174.182 80.098ZM181.916 79.93C179.718 79.93 178.318 81.582 178.318 83.556C178.318 85.572 179.676 87.196 181.93 87.196C184.184 87.196 185.556 85.572 185.556 83.556C185.556 81.582 184.128 79.93 181.916 79.93ZM181.93 81.512C183.078 81.512 183.806 82.52 183.806 83.556C183.806 84.592 183.176 85.6 181.93 85.6C180.684 85.6 180.054 84.592 180.054 83.556C180.054 82.52 180.698 81.512 181.93 81.512ZM186.955 90.164H188.663V86.188C189.167 86.958 190.217 87.196 190.959 87.196C193.171 87.196 194.445 85.572 194.445 83.556C194.445 81.526 193.031 79.944 190.903 79.944C190.119 79.944 189.209 80.266 188.663 81.05L188.551 80.098H186.955V90.164ZM190.777 85.53C189.601 85.53 188.817 84.634 188.817 83.556C188.817 82.478 189.545 81.596 190.777 81.596C192.009 81.596 192.737 82.478 192.737 83.556C192.737 84.634 191.953 85.53 190.777 85.53ZM197.227 84.186H202.617C202.631 83.962 202.645 83.752 202.645 83.542C202.645 81.134 201.245 79.916 199.131 79.916C196.891 79.916 195.463 81.428 195.463 83.528C195.463 85.726 196.877 87.21 199.257 87.21C200.321 87.21 201.483 86.832 202.225 86.09L201.133 85.012C200.727 85.418 199.915 85.656 199.285 85.656C198.067 85.656 197.339 85.04 197.227 84.186ZM200.979 82.772H197.255C197.521 81.876 198.249 81.428 199.187 81.428C200.181 81.428 200.867 81.876 200.979 82.772ZM60.782 106.186H66.172C66.186 105.962 66.2 105.752 66.2 105.542C66.2 103.134 64.8 101.916 62.686 101.916C60.446 101.916 59.018 103.428 59.018 105.528C59.018 107.726 60.432 109.21 62.812 109.21C63.876 109.21 65.038 108.832 65.78 108.09L64.688 107.012C64.282 107.418 63.47 107.656 62.84 107.656C61.622 107.656 60.894 107.04 60.782 106.186ZM64.534 104.772H60.81C61.076 103.876 61.804 103.428 62.742 103.428C63.736 103.428 64.422 103.876 64.534 104.772ZM70.0368 100.152L68.3288 100.334V102.14H67.0408V103.61H68.3288V106.648C68.3288 108.328 69.2388 109.168 70.6668 109.168C71.2548 109.168 71.6888 109.098 72.2208 108.874L71.7448 107.418C71.4788 107.544 71.1848 107.628 70.9188 107.628C70.3728 107.628 70.0228 107.306 70.0228 106.648V103.61H71.9408V102.14H70.0368V100.152ZM80.8479 99.2H76.9979V109H80.8479C84.2359 109 85.7479 106.564 85.7479 104.114C85.7479 101.65 84.2499 99.2 80.8479 99.2ZM78.8319 107.222V100.95H80.8479C83.0179 100.95 83.9139 102.546 83.9139 104.114C83.9139 105.668 83.0319 107.222 80.8479 107.222H78.8319ZM92.0196 99.004C89.1636 99.004 86.9376 101.076 86.9376 104.17C86.9376 106.746 88.5336 109.224 91.9776 109.224C95.4636 109.224 97.0036 106.62 97.0036 104.058C97.0036 101.552 95.3236 99.046 92.0196 99.004ZM88.7576 104.044C88.7576 102.154 90.0036 100.684 92.0196 100.684C94.2316 100.726 95.1836 102.49 95.1836 104.086C95.1836 105.724 94.3436 107.53 91.9776 107.53C89.6116 107.53 88.7576 105.696 88.7576 104.044ZM107.262 101.902V109.014H109.11V99.214H106.996L103.93 103.428L100.864 99.214H98.7362V109.014H100.584V101.888L103.706 106.158H104.07L107.262 101.902ZM117.079 98.276H115.287L110.625 110.148H112.403L117.079 98.276ZM126.686 107.768L125.426 106.494C124.768 107.152 123.816 107.488 122.962 107.488C120.554 107.488 119.588 105.794 119.588 104.17C119.588 102.532 120.582 100.768 122.962 100.768C123.816 100.768 124.67 101.062 125.328 101.692L126.56 100.502C125.552 99.494 124.306 99.004 122.962 99.004C119.406 99.004 117.768 101.608 117.768 104.17C117.768 106.704 119.322 109.224 122.962 109.224C124.376 109.224 125.678 108.776 126.686 107.768ZM132.393 99.004C129.537 99.004 127.311 101.076 127.311 104.17C127.311 106.746 128.907 109.224 132.351 109.224C135.837 109.224 137.377 106.62 137.377 104.058C137.377 101.552 135.697 99.046 132.393 99.004ZM129.131 104.044C129.131 102.154 130.377 100.684 132.393 100.684C134.605 100.726 135.557 102.49 135.557 104.086C135.557 105.724 134.717 107.53 132.351 107.53C129.985 107.53 129.131 105.696 129.131 104.044ZM147.635 101.902V109.014H149.483V99.214H147.369L144.303 103.428L141.237 99.214H139.109V109.014H140.957V101.888L144.079 106.158H144.443L147.635 101.902Z" fill="#323232"/>
<rect x="32.125" y="80" width="1" height="30" fill="white"/>
<rect x="32.625" y="68.5" width="196.75" height="53" rx="9.5" stroke="#E4E4E4"/>
<path fill-rule="evenodd" clip-rule="evenodd" d="M44.3859 88.4441C44.6871 88.6198 44.9569 88.9215 44.997 89.3713L44.9928 89.3717C45.0174 89.6996 44.9787 90.0301 44.8786 90.3426C44.778 90.6562 44.6169 90.9469 44.403 91.1945L44.3353 91.2729L37.4442 95.3076L34.9381 101.947L32.6566 103.756L32.4358 97.9211L26.835 101.357L20.7688 96.2975L23.4528 94.834L23.7218 94.9365C25.3129 95.5429 26.1748 95.8279 26.6757 95.9369C26.9235 95.9908 27.0374 95.9908 27.0839 95.9857C27.1043 95.9835 27.1082 95.9831 27.1366 95.9641L27.1589 95.9493L30.1541 94.3038L22.0628 90.5575L26.1888 89.1004L35.7263 91.2604L41.0261 88.3571L41.0542 88.3451C41.3295 88.2275 41.6212 88.1564 41.9188 88.135L41.9412 88.1334H41.9636C42.0291 88.1334 42.1103 88.1318 42.2027 88.1301C42.5513 88.1234 43.0606 88.1137 43.5005 88.1723C43.7822 88.2098 44.1085 88.2823 44.3859 88.4441ZM43.7492 89.52C43.6807 89.4822 43.5483 89.4397 43.3355 89.4113C43.0006 89.3667 42.6349 89.3733 42.2946 89.3793C42.1896 89.3812 42.087 89.3831 41.9885 89.3833C41.8466 89.3955 41.7061 89.4292 41.5707 89.484L35.9118 92.5841L26.2647 90.3993L25.3749 90.7135L32.9234 94.2085L27.805 97.0206C27.6545 97.1171 27.4699 97.201 27.2193 97.2283C26.98 97.2544 26.7156 97.2248 26.4099 97.1583C25.8389 97.034 24.9663 96.7435 23.5461 96.2069L22.9811 96.515L26.9464 99.8221L33.6041 95.738L33.8124 101.244L33.8907 101.182L36.431 94.4524L43.5146 90.3049C43.5883 90.2039 43.6475 90.0879 43.6882 89.961C43.7334 89.8201 43.7542 89.6704 43.7492 89.52Z" fill="#323232"/>
<path d="M36.6236 166H37.7576V159.084H36.6376L36.6236 160.344C36.0916 159.364 35.1536 158.93 34.0616 158.93C32.1016 158.93 30.5056 160.204 30.5056 162.542C30.5056 164.796 32.0596 166.168 34.0476 166.168C34.9996 166.168 36.0496 165.72 36.5956 164.782L36.6236 166ZM34.1036 160.022C35.7836 160.022 36.6236 161.282 36.6236 162.556C36.6236 163.844 35.7836 165.118 34.1036 165.118C32.7316 165.118 31.6116 164.11 31.6116 162.584C31.6116 160.96 32.7316 160.022 34.1036 160.022ZM40.0074 159.098V169.276H41.1274V164.768C41.7014 165.72 42.7654 166.168 43.7454 166.168C45.8034 166.168 47.1474 164.754 47.1474 162.556C47.1474 160.358 45.7754 158.986 43.8014 158.93C42.6954 158.93 41.7154 159.504 41.1694 160.442L41.0994 159.098H40.0074ZM43.6754 165.09C42.2754 165.09 41.2674 164.012 41.2674 162.584C41.2674 161.17 42.2334 160.064 43.6754 160.064C45.0754 160.064 45.9994 160.96 45.9994 162.584C45.9994 164.152 45.0614 165.09 43.6754 165.09ZM48.9351 159.098V169.276H50.0551V164.768C50.6291 165.72 51.6931 166.168 52.6731 166.168C54.7311 166.168 56.0751 164.754 56.0751 162.556C56.0751 160.358 54.7031 158.986 52.7291 158.93C51.6231 158.93 50.6431 159.504 50.0971 160.442L50.0271 159.098H48.9351ZM52.6031 165.09C51.2031 165.09 50.1951 164.012 50.1951 162.584C50.1951 161.17 51.1611 160.064 52.6031 160.064C54.0031 160.064 54.9271 160.96 54.9271 162.584C54.9271 164.152 53.9891 165.09 52.6031 165.09ZM63.9249 164.936H63.9389L63.1549 164.25C62.7069 164.81 61.7269 165.104 60.9569 165.104C59.6409 165.104 58.5629 164.278 58.4369 162.934H64.3309C64.3449 162.738 64.3589 162.542 64.3589 162.36C64.3589 160.008 62.8329 158.93 60.8729 158.93C58.7869 158.93 57.2889 160.428 57.2889 162.514C57.2889 164.768 58.7869 166.168 60.9289 166.168C62.0069 166.168 63.1969 165.776 63.9249 164.936ZM63.2249 161.982H58.4369C58.6609 160.638 59.6969 159.966 60.9009 159.966C62.2589 159.966 63.1829 160.652 63.2249 161.982ZM67.144 166V156.2H66.01V166H67.144ZM73.7819 160.624L74.4539 159.854C73.7119 159.196 72.8719 158.93 71.8359 158.93C70.4779 158.93 69.0219 159.476 69.0219 160.96C69.0219 162.402 70.4499 162.794 71.7799 162.934C72.8439 163.06 73.6419 163.312 73.6419 164.054C73.5999 164.894 72.6619 165.118 71.8919 165.118C71.0519 165.118 70.0439 164.88 69.4419 164.11L68.7559 164.88C69.5259 165.888 70.7159 166.168 71.8779 166.168C73.4459 166.168 74.7619 165.482 74.7619 164.04C74.7619 162.388 73.0959 162.136 71.8639 161.982C71.0099 161.87 70.1279 161.688 70.1279 160.96C70.1279 160.274 70.8839 159.952 71.8499 159.952C72.5499 159.952 73.1799 160.078 73.7819 160.624ZM76.6803 166.014L76.6663 166.042L76.3163 167.302H77.0723C77.3383 166.406 77.7023 165.552 77.7023 165.426C77.7023 164.936 77.3103 164.67 76.9323 164.67C76.5543 164.67 76.1903 164.908 76.1903 165.398C76.1903 165.734 76.4003 165.944 76.6803 166.014ZM89.6739 158.384L90.5979 157.81C89.7159 156.368 88.2879 156.004 86.8739 156.004C85.2219 156.004 83.1219 156.76 83.1219 158.692C83.1219 160.736 84.9559 161.156 86.8599 161.45C88.3299 161.674 89.6879 162.024 89.6879 163.228C89.6879 164.684 88.0919 165.076 86.9019 165.076C85.5579 165.076 84.3959 164.544 83.7379 163.34L82.7719 163.942C83.5279 165.608 85.2499 166.196 86.8879 166.196C88.7499 166.196 90.8779 165.454 90.8779 163.242C90.8779 161.128 88.9319 160.666 86.9859 160.372C85.5439 160.148 84.3259 159.812 84.3259 158.734C84.3259 157.628 85.6559 157.096 86.9019 157.096C88.0079 157.11 89.1139 157.53 89.6739 158.384ZM97.8228 162.92L101.379 157.95V166H102.583V156.2H101.127L97.7108 161.24L94.2808 156.2H92.8108V166H94.0288V157.922L97.5708 162.92H97.8228ZM111.358 158.384L112.282 157.81C111.4 156.368 109.972 156.004 108.558 156.004C106.906 156.004 104.806 156.76 104.806 158.692C104.806 160.736 106.64 161.156 108.544 161.45C110.014 161.674 111.372 162.024 111.372 163.228C111.372 164.684 109.776 165.076 108.586 165.076C107.242 165.076 106.08 164.544 105.422 163.34L104.456 163.942C105.212 165.608 106.934 166.196 108.572 166.196C110.434 166.196 112.562 165.454 112.562 163.242C112.562 161.128 110.616 160.666 108.67 160.372C107.228 160.148 106.01 159.812 106.01 158.734C106.01 157.628 107.34 157.096 108.586 157.096C109.692 157.11 110.798 157.53 111.358 158.384ZM123.564 158.65V158.664H124.712C124.712 156.62 123.018 156.102 121.366 156.102C119.336 156.102 117.782 157.068 117.782 158.86C117.782 159.784 118.398 160.708 119.364 160.988C118.412 161.338 117.6 162.164 117.6 163.214C117.6 165.258 119.056 166.126 121.338 166.126C122.36 166.126 123.494 165.916 124.18 164.81C124.446 165.748 125.132 166.07 125.93 166.014V164.908C125.09 164.908 124.866 164.166 124.866 163.284V161.478H125.72V160.484H121.366C120.428 160.484 118.972 160.12 118.972 158.818C118.972 157.964 119.672 157.11 121.338 157.11C122.514 157.11 123.564 157.404 123.564 158.65ZM121.282 161.464H123.746V163.256C123.746 164.6 122.22 165.048 121.31 165.048C119.77 165.048 118.79 164.376 118.79 163.2C118.79 162.388 119.616 161.464 121.282 161.464ZM136.487 162.92L140.043 157.95V166H141.247V156.2H139.791L136.375 161.24L132.945 156.2H131.475V166H132.693V157.922L136.235 162.92H136.487ZM148.874 162.92L152.43 157.95V166H153.634V156.2H152.178L148.762 161.24L145.332 156.2H143.862V166H145.08V157.922L148.622 162.92H148.874ZM162.408 158.384L163.332 157.81C162.45 156.368 161.022 156.004 159.608 156.004C157.956 156.004 155.856 156.76 155.856 158.692C155.856 160.736 157.69 161.156 159.594 161.45C161.064 161.674 162.422 162.024 162.422 163.228C162.422 164.684 160.826 165.076 159.636 165.076C158.292 165.076 157.13 164.544 156.472 163.34L155.506 163.942C156.262 165.608 157.984 166.196 159.622 166.196C161.484 166.196 163.612 165.454 163.612 163.242C163.612 161.128 161.666 160.666 159.72 160.372C158.278 160.148 157.06 159.812 157.06 158.734C157.06 157.628 158.39 157.096 159.636 157.096C160.742 157.11 161.848 157.53 162.408 158.384ZM168.721 156.97C168.721 157.474 169.085 157.712 169.477 157.712C169.841 157.712 170.247 157.488 170.247 156.984C170.247 156.48 169.841 156.228 169.477 156.228C169.085 156.228 168.721 156.48 168.721 156.97ZM168.889 159.098V166H170.037V159.098H168.889ZM173.374 166V156.2H172.24V166H173.374ZM176.792 166V156.2H175.658V166H176.792ZM178.824 156.97C178.824 157.474 179.188 157.712 179.58 157.712C179.944 157.712 180.35 157.488 180.35 156.984C180.35 156.48 179.944 156.228 179.58 156.228C179.188 156.228 178.824 156.48 178.824 156.97ZM178.992 159.098V166H180.14V159.098H178.992ZM183.338 159.098H182.26V166H183.408V162.08C183.408 160.96 184.15 160.008 185.298 160.008C186.432 160.008 187.146 160.918 187.146 162.038V166H188.294V162.038C188.294 160.918 189.064 160.008 190.184 160.008C191.318 160.008 191.976 160.876 191.976 162.01V166H193.138V162.01C193.138 160.106 192.046 158.93 190.212 158.93C189.232 158.93 188.28 159.378 187.762 160.442C187.37 159.336 186.404 158.93 185.452 158.93C184.668 158.93 183.842 159.28 183.408 160.106L183.338 159.098ZM194.985 156.97C194.985 157.474 195.349 157.712 195.741 157.712C196.105 157.712 196.511 157.488 196.511 156.984C196.511 156.48 196.105 156.228 195.741 156.228C195.349 156.228 194.985 156.48 194.985 156.97ZM195.153 159.098V166H196.301V159.098H195.153ZM200.38 159.056V157.068L199.218 157.194V159.056H197.832V160.036H199.218V163.816C199.218 165.3 199.876 166.168 201.304 166.168C201.808 166.168 202.27 166.056 202.746 165.832L202.41 164.88C202.088 165.034 201.766 165.146 201.458 165.146C200.618 165.146 200.366 164.628 200.366 163.816V160.036H202.508V159.056H200.38ZM206.379 157.908V157.992H207.429L208.843 156.186V156.144H207.415L206.379 157.908ZM210.187 164.936H210.201L209.417 164.25C208.969 164.81 207.989 165.104 207.219 165.104C205.903 165.104 204.825 164.278 204.699 162.934H210.593C210.607 162.738 210.621 162.542 210.621 162.36C210.621 160.008 209.095 158.93 207.135 158.93C205.049 158.93 203.551 160.428 203.551 162.514C203.551 164.768 205.049 166.168 207.191 166.168C208.269 166.168 209.459 165.776 210.187 164.936ZM209.487 161.982H204.699C204.923 160.638 205.959 159.966 207.163 159.966C208.521 159.966 209.445 160.652 209.487 161.982ZM216.612 160.624L217.284 159.854C216.542 159.196 215.702 158.93 214.666 158.93C213.308 158.93 211.852 159.476 211.852 160.96C211.852 162.402 213.28 162.794 214.61 162.934C215.674 163.06 216.472 163.312 216.472 164.054C216.43 164.894 215.492 165.118 214.722 165.118C213.882 165.118 212.874 164.88 212.272 164.11L211.586 164.88C212.356 165.888 213.546 166.168 214.708 166.168C216.276 166.168 217.592 165.482 217.592 164.04C217.592 162.388 215.926 162.136 214.694 161.982C213.84 161.87 212.958 161.688 212.958 160.96C212.958 160.274 213.714 159.952 214.68 159.952C215.38 159.952 216.01 160.078 216.612 160.624Z" fill="black"/>
</svg>
