<svg width="42" height="40" viewBox="0 0 42 40" fill="none" xmlns="http://www.w3.org/2000/svg">
<path d="M39.3511 33.875L29.1441 24.0226C28.8703 23.7231 28.7042 23.3461 28.6705 22.9478C28.6705 22.6028 28.6705 21.2825 28.6705 21.2825C28.7939 20.2297 28.6911 19.1636 28.3684 18.1509C27.7491 16.2332 26.3672 14.6317 24.5265 13.6985C22.6858 12.7654 20.537 12.5771 18.5527 13.175L22.0946 16.5985C22.5003 16.9936 22.728 17.5278 22.728 18.0846C22.728 18.6414 22.5003 19.1756 22.0946 19.5708L18.484 23.0539L13.4114 18.1509C13.0817 19.1622 12.9788 20.2298 13.1094 21.2825C13.3519 23.276 14.4035 25.0947 16.0332 26.3389C17.6628 27.583 19.7369 28.1507 21.7994 27.9171L23.488 27.9635C23.8942 27.973 24.2807 28.1348 24.5657 28.4147L34.7933 38.2937C35.403 38.8634 36.2198 39.1788 37.0678 39.1719C37.9158 39.165 38.727 38.8363 39.3267 38.2567C39.9263 37.6771 40.2663 36.893 40.2735 36.0734C40.2806 35.2538 39.9543 34.4643 39.3649 33.875H39.3511Z" fill="white"/>
<path d="M20.2138 31.0221C18.0686 30.8765 16.0162 30.1194 14.3162 28.8464C12.6161 27.5734 11.3449 25.8417 10.6631 23.8704C9.98131 21.899 9.91967 19.7765 10.486 17.7713C11.0523 15.766 12.221 13.9681 13.8445 12.605C15.468 11.2418 17.4732 10.3746 19.6066 10.113C21.74 9.85135 23.9058 10.2071 25.83 11.1352C27.7542 12.0634 29.3505 13.5222 30.4169 15.3272C31.4833 17.1322 31.972 19.2023 31.8212 21.2758C31.7604 22.0475 31.6131 22.8105 31.3819 23.5515L34.5257 26.4243C34.5257 26.3181 35.6788 24.8254 38.7815 24.9846C39.4086 24.9971 40.0155 24.77 40.4704 24.3527C40.9254 23.9353 41.1916 23.3613 41.2114 22.7553L41.3006 19.1328C41.3088 18.8331 41.2559 18.5347 41.1447 18.2548C41.0336 17.9748 40.8665 17.7188 40.6529 17.5013C40.4394 17.2838 40.1836 17.1091 39.9002 16.9872C39.6167 16.8653 39.3112 16.7986 39.0011 16.7908L36.9419 16.3529C36.2853 16.2095 35.685 15.8872 35.2121 15.4241C35.164 15.298 35.1091 15.172 35.0542 15.0459C35.0804 14.391 35.3021 13.7573 35.6926 13.2214L36.9144 11.5561C37.1397 11.3494 37.3206 11.1018 37.4466 10.8274C37.5727 10.553 37.6416 10.2572 37.6492 9.9571C37.6569 9.65695 37.6032 9.3583 37.4912 9.07825C37.3793 8.79819 37.2112 8.54224 36.9968 8.32505L34.409 5.70439C33.9749 5.26581 33.3789 5.0112 32.7511 4.99628C32.1234 4.98136 31.5151 5.20733 31.0592 5.62476L29.2814 6.73275C28.7084 7.08245 28.044 7.26659 27.3663 7.26351L27.1604 7.16399C26.7116 6.68224 26.4161 6.08562 26.3092 5.44563L25.9798 3.45525C26.002 2.84919 25.7745 2.25936 25.3472 1.81528C24.92 1.3712 24.3278 1.10915 23.7008 1.08668L19.9599 0.960624C19.3322 0.940909 18.722 1.1623 18.2627 1.57634C17.8035 1.99038 17.5326 2.56337 17.5093 3.16996L17.0357 5.16035C16.8671 5.77588 16.5249 6.33403 16.0473 6.77255L15.656 6.91187C14.9807 6.86839 14.3326 6.63808 13.789 6.24841L12.0798 5.05419C11.8676 4.83398 11.6126 4.65636 11.3294 4.53149C11.0462 4.40662 10.7402 4.33696 10.4291 4.32648C10.118 4.31601 9.80778 4.36493 9.51624 4.47044C9.2247 4.57596 8.95754 4.73599 8.73005 4.94139L5.98438 7.41611C5.75676 7.62059 5.57315 7.86648 5.44405 8.13969C5.31495 8.4129 5.24292 8.70806 5.23208 9.00823C5.22124 9.30841 5.2718 9.60768 5.38088 9.88893C5.48995 10.1702 5.65538 10.4278 5.86769 10.6472L6.99341 12.3788C7.35159 12.9381 7.53511 13.5855 7.52196 14.2431C7.46705 14.3692 7.39154 14.4886 7.33662 14.6147C6.8386 15.0452 6.22456 15.3304 5.56566 15.4374L3.47209 15.7625C3.15626 15.7545 2.84199 15.8078 2.54788 15.9193C2.25377 16.0309 1.98581 16.1983 1.75986 16.4118C1.53392 16.6252 1.35459 16.8803 1.23249 17.1619C1.11039 17.4436 1.048 17.746 1.04903 18.0514L0.925473 21.6739C0.910641 22.2783 1.14309 22.864 1.57234 23.3037C2.00159 23.7434 2.59299 24.0018 3.21811 24.0226L5.27737 24.4737C5.9374 24.6162 6.53918 24.9439 7.00715 25.4158L7.15815 25.794C7.11255 26.4486 6.8744 27.077 6.47173 27.6052L5.23618 29.2573C4.78054 29.675 4.51463 30.2502 4.49662 30.8569C4.47861 31.4637 4.70997 32.0526 5.14009 32.495L7.70729 35.1488C7.91977 35.3679 8.17489 35.5443 8.45804 35.6679C8.74119 35.7916 9.0468 35.8599 9.35735 35.8692C9.6679 35.8784 9.97728 35.8284 10.2678 35.7218C10.5582 35.6153 10.8241 35.4544 11.0502 35.2483L12.8348 34.1536C13.4119 33.8087 14.0784 33.6292 14.7568 33.6361C14.8872 33.6958 15.0108 33.7622 15.1412 33.8153C15.5888 34.296 15.8862 34.8895 15.9992 35.527L16.3424 37.5174C16.3333 37.8177 16.3856 38.1167 16.4963 38.3974C16.607 38.6782 16.774 38.935 16.9876 39.1532C17.2013 39.3714 17.4574 39.5467 17.7413 39.669C18.0251 39.7913 18.3312 39.8583 18.6419 39.866L22.3829 39.9722C23.694 40.0053 24.9639 39.3087 24.8197 37.7496C24.8197 35.2881 26.2475 33.3044 26.4053 33.3309L23.6597 30.7102C22.5357 30.9916 21.3723 31.0968 20.2138 31.0221Z" fill="white"/>
</svg>
