<svg width="24" height="24" viewBox="0 0 24 24" fill="none" xmlns="http://www.w3.org/2000/svg">
<path fill-rule="evenodd" clip-rule="evenodd" d="M7 3H14.5H15L15.5 3.5L17 5L18.5 6.5L19 7V7.5V15H18V7.5H15H14.5V7V4H7C6.44772 4 6 4.44772 6 5V19C6 19.5523 6.44771 20 7 20H9V21H7C5.89543 21 5 20.1046 5 19V5C5 3.89543 5.89543 3 7 3ZM16.2929 5.70711L17.0858 6.5H15.5V4.91421L16.2929 5.70711Z" fill="#323232"/>
<path fill-rule="evenodd" clip-rule="evenodd" d="M11 16.9619H11.5H12.6993C13.4003 16.9619 13.9685 17.5302 13.9685 18.2312V18.7312H13.8663C13.6722 19.1835 13.2227 19.5004 12.6993 19.5004H12V20.5389V21.0389H11V20.5389V19.5004V18.5004V17.4619V16.9619ZM12 18.5004H12.6993C12.848 18.5004 12.9685 18.3799 12.9685 18.2312C12.9685 18.0825 12.848 17.9619 12.6993 17.9619H12V18.5004ZM14.4448 16.9619H14.9448H15.9134C16.7418 16.9619 17.4134 17.6335 17.4134 18.4619V19.5389C17.4134 20.3673 16.7418 21.0389 15.9134 21.0389H14.9448H14.4448V20.5389V17.4619V16.9619ZM15.4448 17.9619V20.0389H15.9134C16.1895 20.0389 16.4134 19.815 16.4134 19.5389V18.4619C16.4134 18.1858 16.1895 17.9619 15.9134 17.9619H15.4448ZM18.5 16.9619H18V17.4619V18.5004V19.5004V20.5389V21.0389H19V20.5389V19.5004H19.9764H20.4764V18.5004H19.9764H19V17.9619H20.4685H20.9685V16.9619H20.4685H18.5Z" fill="#323232"/>
<path d="M7.2001 16.798C6.64955 16.23 7.24521 15.4495 8.86175 14.6207L9.8789 14.0992L10.2752 13.2047C10.4931 12.7127 10.8184 11.91 10.998 11.4208L11.3246 10.5315L11.0995 9.87332C10.8228 9.06404 10.7241 7.8479 10.8997 7.41059C11.1375 6.81826 11.9165 6.87903 12.2249 7.51398C12.4657 8.00988 12.4411 8.90793 12.1556 10.0405L11.9216 10.969L12.1277 11.3301C12.2411 11.5287 12.5723 12.0003 12.8638 12.378L13.4115 13.0809L14.0931 12.9892C16.2584 12.6977 17 13.1931 17 13.9035C17 14.8 15.2998 14.874 13.8721 13.8394C13.5508 13.6066 13.3302 13.3754 13.3302 13.3754C13.3302 13.3754 12.4358 13.5633 11.9954 13.6857C11.5408 13.8121 11.3141 13.8913 10.6482 14.1232C10.6482 14.1232 10.4146 14.4732 10.2623 14.7277C9.69596 15.6744 9.03464 16.4589 8.56236 16.7445C8.03357 17.0642 7.47922 17.086 7.2001 16.798ZM8.06411 16.4796C8.37359 16.2822 8.99998 15.5179 9.43358 14.8085L9.60913 14.5213L8.80978 14.936C7.57519 15.5764 7.01039 16.18 7.30409 16.5451C7.46907 16.7501 7.66644 16.7331 8.06411 16.4796ZM16.0835 14.1573C16.3862 13.9385 16.3422 13.4977 16 13.32C15.7337 13.1817 15.519 13.1533 14.8272 13.1638C14.402 13.1937 13.7184 13.2821 13.6025 13.309C13.6025 13.309 13.9781 13.5768 14.1448 13.6752C14.3668 13.806 14.9062 14.0488 15.3 14.1732C15.6885 14.2959 15.9132 14.2829 16.0835 14.1572V14.1573ZM12.859 12.7746C12.6758 12.5759 12.3643 12.1613 12.1668 11.8531C11.9084 11.5036 11.7789 11.257 11.7789 11.257C11.7789 11.257 11.5901 11.8836 11.4351 12.2606L10.9518 13.4931L10.8117 13.7726C10.8117 13.7726 11.5567 13.5206 11.9357 13.4185C12.3371 13.3103 13.1519 13.145 13.1519 13.145L12.859 12.7746ZM11.8199 8.47536C11.8666 8.07081 11.8864 7.66686 11.7604 7.46316C11.411 7.06903 10.9892 7.3977 11.0606 8.33471C11.0847 8.64993 11.1606 9.18879 11.2621 9.52091L11.4466 10.1248L11.5764 9.66996C11.6478 9.41982 11.7574 8.88225 11.8199 8.47536Z" fill="#323232"/>
</svg>
