<svg width="199" height="170" viewBox="0 0 199 170" fill="none" xmlns="http://www.w3.org/2000/svg">
<g clip-path="url(#clip0_2984_16894)">
<g clip-path="url(#clip1_2984_16894)">
<path fill-rule="evenodd" clip-rule="evenodd" d="M109.187 24.9913C106.458 26.0337 105.091 29.0907 106.134 31.8192L112.174 47.6285L106.245 49.8935L100.205 34.0842C97.9118 28.0815 100.919 21.3562 106.921 19.0628L146.445 3.9626C152.447 1.6692 159.173 4.67621 161.466 10.6789L194.686 97.6299C196.98 103.633 193.973 110.358 187.97 112.651L148.447 127.752C142.444 130.045 135.719 127.038 133.426 121.035L127.385 105.226L133.314 102.961L139.354 118.77C140.396 121.499 143.453 122.865 146.182 121.823L185.705 106.723C188.434 105.68 189.8 102.623 188.758 99.8949L155.538 12.9439C154.495 10.2154 151.438 8.84862 148.71 9.89107L109.187 24.9913Z" fill="#FFCB05"/>
<ellipse cx="159.526" cy="97.4759" rx="8.46191" ry="8.46191" transform="rotate(-20.9098 159.526 97.4759)" fill="#FFCB05"/>
<path fill-rule="evenodd" clip-rule="evenodd" d="M49.8822 46.7683L14.0372 60.4632C10.763 61.7142 9.16042 65.4808 10.4577 68.8763L45.6914 161.097L104.976 138.447L75.3229 60.8321L49.8822 46.7683ZM50.2234 39.5925L11.6883 54.3152C5.13992 56.817 1.93467 64.3504 4.52921 71.1413L42.1119 169.51L113.254 142.33L80.3688 56.2571L50.2234 39.5925Z" fill="#323232"/>
<path fill-rule="evenodd" clip-rule="evenodd" d="M36.3964 99.2259L67.1367 87.4813L73.0089 102.851L66.8609 105.2L69.2099 111.348L75.3578 108.999L81.2302 124.37L50.4899 136.114L44.6176 120.744L50.7657 118.395L48.4168 112.247L42.2686 114.596L36.3964 99.2259ZM64.7878 81.3333L34.0475 93.0778C30.6521 94.3751 28.9511 98.1793 30.2484 101.575L46.6908 144.611L89.7272 128.169L73.2847 85.1324C71.9875 81.7369 68.1833 80.036 64.7878 81.3333ZM76.9817 122.47L73.4583 113.248L67.3103 115.597L70.8337 124.819L76.9817 122.47ZM59.0891 94.0784L62.6125 103.3L68.7605 100.952L65.2371 91.7295L59.0891 94.0784ZM67.7596 125.993L64.2363 116.771L58.0882 119.12L61.6116 128.342L67.7596 125.993ZM59.5384 104.475L56.0151 95.2529L49.867 97.6018L53.3904 106.824L59.5384 104.475ZM40.6449 101.125L44.1683 110.347L50.3164 107.998L46.793 98.7763L40.6449 101.125ZM58.5376 129.517L55.0142 120.294L48.8661 122.643L52.3895 131.865L58.5376 129.517Z" fill="#323232"/>
<path fill-rule="evenodd" clip-rule="evenodd" d="M118.109 62.572C117.442 60.8257 115.486 59.951 113.74 60.6181C111.993 61.2853 111.119 63.2418 111.786 64.988L115.41 74.4735L105.924 78.0976C104.178 78.7647 103.303 80.7212 103.97 82.4674C104.637 84.2137 106.594 85.0884 108.34 84.4213L117.826 80.7972L121.45 90.2828C122.117 92.0291 124.073 92.9039 125.82 92.2367C127.566 91.5695 128.441 89.6131 127.774 87.8668L124.149 78.3812L133.635 74.7571C135.381 74.09 136.256 72.1335 135.589 70.3873C134.922 68.641 132.965 67.7663 131.219 68.4334L121.733 72.0575L118.109 62.572Z" fill="#323232"/>
</g>
</g>
<defs>
<clipPath id="clip0_2984_16894">
<rect width="199" height="169.426" fill="white"/>
</clipPath>
<clipPath id="clip1_2984_16894">
<rect width="203.086" height="203.086" fill="white" transform="translate(-31.0781 25.3623) rotate(-20.9098)"/>
</clipPath>
</defs>
</svg>
