<svg width="249" height="173" viewBox="0 0 249 173" fill="none" xmlns="http://www.w3.org/2000/svg">
<path d="M63.1942 43.52V48H77.9542V43.52H73.3142V20L63.4342 23.28V28.08L68.0742 26.72V43.52H63.1942ZM81.363 28.12H86.603C86.723 25.36 89.883 24.2 92.963 24.2C96.203 24.32 98.603 25.36 98.603 28.4C98.603 31.6 94.723 32.28 92.603 32.28C87.083 32.28 81.243 34.2 81.243 40.64V48H103.923V43.08H86.523V40.68C86.523 37.64 90.243 37.04 92.603 37.04C98.523 37.04 103.843 35.44 103.843 28.28C103.843 21.72 98.203 19.64 92.963 19.64C87.603 19.64 81.883 21.52 81.363 28.12ZM108.312 31.84V36.16C108.312 44.52 114.312 48.72 120.352 48.72C126.312 48.72 132.392 44.52 132.392 36.16V31.84C132.392 23.48 126.312 19.32 120.352 19.32C114.312 19.32 108.312 23.48 108.312 31.84ZM113.552 36.16V31.84C113.552 26.8 116.912 24.32 120.312 24.32C123.672 24.32 127.152 26.88 127.152 31.84V36.16C127.152 41.24 123.752 43.8 120.312 43.8C116.952 43.8 113.552 41.24 113.552 36.16ZM158.151 27.04L161.431 23.68C158.551 20.8 154.831 19.4 151.031 19.4C141.151 19.4 136.231 26.68 136.231 34.36C136.231 41.72 140.511 48.64 151.031 48.64C155.991 48.64 159.431 46.8 162.191 43.6V31.8H150.191V36.52H157.351V41.48C155.111 43.24 153.271 43.72 151.031 43.72C144.071 43.72 141.391 38.96 141.391 34.36C141.391 28.56 145.031 24.24 151.031 24.24C153.471 24.24 156.271 25.24 158.151 27.04ZM175.917 27.8C169.637 27.8 165.637 32.52 165.637 38.16C165.637 43.92 169.517 48.56 175.957 48.56C182.397 48.56 186.317 43.92 186.317 38.16C186.317 32.52 182.237 27.8 175.917 27.8ZM175.957 32.32C179.237 32.32 181.317 35.2 181.317 38.16C181.317 41.12 179.517 44 175.957 44C172.397 44 170.597 41.12 170.597 38.16C170.597 35.2 172.437 32.32 175.957 32.32Z" fill="#323232"/>
<path d="M62.887 77.2H59.037V87H62.887C66.275 87 67.787 84.564 67.787 82.114C67.787 79.65 66.289 77.2 62.887 77.2ZM60.871 85.222V78.95H62.887C65.057 78.95 65.953 80.546 65.953 82.114C65.953 83.668 65.071 85.222 62.887 85.222H60.871ZM72.3806 79.93C70.1826 79.93 68.7826 81.582 68.7826 83.556C68.7826 85.572 70.1406 87.196 72.3946 87.196C74.6486 87.196 76.0206 85.572 76.0206 83.556C76.0206 81.582 74.5926 79.93 72.3806 79.93ZM72.3946 81.512C73.5426 81.512 74.2706 82.52 74.2706 83.556C74.2706 84.592 73.6406 85.6 72.3946 85.6C71.1486 85.6 70.5186 84.592 70.5186 83.556C70.5186 82.52 71.1626 81.512 72.3946 81.512ZM82.5441 87H84.2521V83.332C84.2521 81.162 82.9501 79.944 81.3261 79.944C80.4441 79.944 79.7721 80.21 79.0581 80.98L78.9461 80.098H77.4201V87H79.1141V83.43C79.1141 82.38 79.8141 81.498 80.8781 81.498C81.9561 81.498 82.5441 82.296 82.5441 83.346V87ZM88.3747 78.152L86.6667 78.334V80.14H85.3787V81.61H86.6667V84.648C86.6667 86.328 87.5767 87.168 89.0047 87.168C89.5927 87.168 90.0267 87.098 90.5587 86.874L90.0827 85.418C89.8167 85.544 89.5227 85.628 89.2567 85.628C88.7107 85.628 88.3607 85.306 88.3607 84.648V81.61H90.2787V80.14H88.3747V78.152ZM94.9858 80.042H96.8198C96.8618 79.076 97.9678 78.67 99.0458 78.67C100.18 78.712 101.02 79.076 101.02 80.14C101.02 81.26 99.6618 81.498 98.9198 81.498C96.9878 81.498 94.9438 82.17 94.9438 84.424V87H102.882V85.278H96.7918V84.438C96.7918 83.374 98.0938 83.164 98.9198 83.164C100.992 83.164 102.854 82.604 102.854 80.098C102.854 77.802 100.88 77.074 99.0458 77.074C97.1698 77.074 95.1678 77.732 94.9858 80.042ZM104.418 81.344V82.856C104.418 85.782 106.518 87.252 108.632 87.252C110.718 87.252 112.846 85.782 112.846 82.856V81.344C112.846 78.418 110.718 76.962 108.632 76.962C106.518 76.962 104.418 78.418 104.418 81.344ZM106.252 82.856V81.344C106.252 79.58 107.428 78.712 108.618 78.712C109.794 78.712 111.012 79.608 111.012 81.344V82.856C111.012 84.634 109.822 85.53 108.618 85.53C107.442 85.53 106.252 84.634 106.252 82.856ZM121.862 79.664L123.01 78.488C122.002 77.48 120.7 76.99 119.37 76.99C115.912 76.99 114.19 79.538 114.19 82.226C114.19 84.802 115.688 87.224 119.37 87.224C121.106 87.224 122.31 86.58 123.276 85.46V81.33H119.076V82.982H121.582V84.718C120.798 85.334 120.154 85.502 119.37 85.502C116.934 85.502 115.996 83.836 115.996 82.226C115.996 80.196 117.27 78.684 119.37 78.684C120.224 78.684 121.204 79.034 121.862 79.664ZM128.08 79.93C125.882 79.93 124.482 81.582 124.482 83.556C124.482 85.572 125.84 87.196 128.094 87.196C130.348 87.196 131.72 85.572 131.72 83.556C131.72 81.582 130.292 79.93 128.08 79.93ZM128.094 81.512C129.242 81.512 129.97 82.52 129.97 83.556C129.97 84.592 129.34 85.6 128.094 85.6C126.848 85.6 126.218 84.592 126.218 83.556C126.218 82.52 126.862 81.512 128.094 81.512ZM137.868 84.186H143.258C143.272 83.962 143.286 83.752 143.286 83.542C143.286 81.134 141.886 79.916 139.772 79.916C137.532 79.916 136.104 81.428 136.104 83.528C136.104 85.726 137.518 87.21 139.898 87.21C140.962 87.21 142.124 86.832 142.866 86.09L141.774 85.012C141.368 85.418 140.556 85.656 139.926 85.656C138.708 85.656 137.98 85.04 137.868 84.186ZM141.62 82.772H137.896C138.162 81.876 138.89 81.428 139.828 81.428C140.822 81.428 141.508 81.876 141.62 82.772ZM149.769 87H151.477V83.332C151.477 81.162 150.175 79.944 148.551 79.944C147.669 79.944 146.997 80.21 146.283 80.98L146.171 80.098H144.645V87H146.339V83.43C146.339 82.38 147.039 81.498 148.103 81.498C149.181 81.498 149.769 82.296 149.769 83.346V87ZM164.195 87V85.18H158.693V82.968H163.999V81.246H158.693V78.992H164.195V77.2H156.859V87H164.195ZM167.391 80.098H165.683V83.808C165.683 85.936 166.901 87.196 168.539 87.196C169.505 87.196 170.163 86.874 170.877 86.16L170.989 87.028H172.515V80.098H170.821V83.71C170.821 84.76 170.121 85.642 169.057 85.642C167.965 85.642 167.391 84.844 167.391 83.794V80.098ZM175.949 80.098H174.367V87H176.075V83.36C176.075 82.072 176.901 81.61 177.797 81.61C178.357 81.61 178.679 81.792 179.029 82.058L179.799 80.574C179.421 80.224 178.735 79.93 178.021 79.93C177.335 79.93 176.579 80.056 176.075 80.896L175.949 80.098ZM183.683 79.93C181.485 79.93 180.085 81.582 180.085 83.556C180.085 85.572 181.443 87.196 183.697 87.196C185.951 87.196 187.323 85.572 187.323 83.556C187.323 81.582 185.895 79.93 183.683 79.93ZM183.697 81.512C184.845 81.512 185.573 82.52 185.573 83.556C185.573 84.592 184.943 85.6 183.697 85.6C182.451 85.6 181.821 84.592 181.821 83.556C181.821 82.52 182.465 81.512 183.697 81.512ZM188.723 90.164H190.431V86.188C190.935 86.958 191.985 87.196 192.727 87.196C194.939 87.196 196.213 85.572 196.213 83.556C196.213 81.526 194.799 79.944 192.671 79.944C191.887 79.944 190.977 80.266 190.431 81.05L190.319 80.098H188.723V90.164ZM192.545 85.53C191.369 85.53 190.585 84.634 190.585 83.556C190.585 82.478 191.313 81.596 192.545 81.596C193.777 81.596 194.505 82.478 194.505 83.556C194.505 84.634 193.721 85.53 192.545 85.53ZM198.995 84.186H204.385C204.399 83.962 204.413 83.752 204.413 83.542C204.413 81.134 203.013 79.916 200.899 79.916C198.659 79.916 197.231 81.428 197.231 83.528C197.231 85.726 198.645 87.21 201.025 87.21C202.089 87.21 203.251 86.832 203.993 86.09L202.901 85.012C202.495 85.418 201.683 85.656 201.053 85.656C199.835 85.656 199.107 85.04 198.995 84.186ZM202.747 82.772H199.023C199.289 81.876 200.017 81.428 200.955 81.428C201.949 81.428 202.635 81.876 202.747 82.772ZM60.157 106.186H65.547C65.561 105.962 65.575 105.752 65.575 105.542C65.575 103.134 64.175 101.916 62.061 101.916C59.821 101.916 58.393 103.428 58.393 105.528C58.393 107.726 59.807 109.21 62.187 109.21C63.251 109.21 64.413 108.832 65.155 108.09L64.063 107.012C63.657 107.418 62.845 107.656 62.215 107.656C60.997 107.656 60.269 107.04 60.157 106.186ZM63.909 104.772H60.185C60.451 103.876 61.179 103.428 62.117 103.428C63.111 103.428 63.797 103.876 63.909 104.772ZM69.4118 100.152L67.7038 100.334V102.14H66.4158V103.61H67.7038V106.648C67.7038 108.328 68.6138 109.168 70.0418 109.168C70.6298 109.168 71.0638 109.098 71.5958 108.874L71.1198 107.418C70.8538 107.544 70.5598 107.628 70.2938 107.628C69.7478 107.628 69.3978 107.306 69.3978 106.648V103.61H71.3158V102.14H69.4118V100.152ZM80.2229 99.2H76.3729V109H80.2229C83.6109 109 85.1229 106.564 85.1229 104.114C85.1229 101.65 83.6249 99.2 80.2229 99.2ZM78.2069 107.222V100.95H80.2229C82.3929 100.95 83.2889 102.546 83.2889 104.114C83.2889 105.668 82.4069 107.222 80.2229 107.222H78.2069ZM91.3946 99.004C88.5386 99.004 86.3126 101.076 86.3126 104.17C86.3126 106.746 87.9086 109.224 91.3526 109.224C94.8386 109.224 96.3786 106.62 96.3786 104.058C96.3786 101.552 94.6986 99.046 91.3946 99.004ZM88.1326 104.044C88.1326 102.154 89.3786 100.684 91.3946 100.684C93.6066 100.726 94.5586 102.49 94.5586 104.086C94.5586 105.724 93.7186 107.53 91.3526 107.53C88.9866 107.53 88.1326 105.696 88.1326 104.044ZM106.637 101.902V109.014H108.485V99.214H106.371L103.305 103.428L100.239 99.214H98.1112V109.014H99.9592V101.888L103.081 106.158H103.445L106.637 101.902ZM116.454 98.276H114.662L110 110.148H111.778L116.454 98.276ZM126.061 107.768L124.801 106.494C124.143 107.152 123.191 107.488 122.337 107.488C119.929 107.488 118.963 105.794 118.963 104.17C118.963 102.532 119.957 100.768 122.337 100.768C123.191 100.768 124.045 101.062 124.703 101.692L125.935 100.502C124.927 99.494 123.681 99.004 122.337 99.004C118.781 99.004 117.143 101.608 117.143 104.17C117.143 106.704 118.697 109.224 122.337 109.224C123.751 109.224 125.053 108.776 126.061 107.768ZM131.768 99.004C128.912 99.004 126.686 101.076 126.686 104.17C126.686 106.746 128.282 109.224 131.726 109.224C135.212 109.224 136.752 106.62 136.752 104.058C136.752 101.552 135.072 99.046 131.768 99.004ZM128.506 104.044C128.506 102.154 129.752 100.684 131.768 100.684C133.98 100.726 134.932 102.49 134.932 104.086C134.932 105.724 134.092 107.53 131.726 107.53C129.36 107.53 128.506 105.696 128.506 104.044ZM147.01 101.902V109.014H148.858V99.214H146.744L143.678 103.428L140.612 99.214H138.484V109.014H140.332V101.888L143.454 106.158H143.818L147.01 101.902Z" fill="#323232"/>
<rect x="32.5" y="80" width="1" height="30" fill="white"/>
<rect x="33" y="68.5" width="196.75" height="53" rx="9.5" stroke="#E4E4E4"/>
<path fill-rule="evenodd" clip-rule="evenodd" d="M44.7609 88.4441C45.0621 88.6198 45.3319 88.9215 45.372 89.3713L45.3678 89.3717C45.3924 89.6996 45.3537 90.0301 45.2536 90.3426C45.153 90.6562 44.9919 90.9469 44.778 91.1945L44.7103 91.2729L37.8192 95.3076L35.3131 101.947L33.0316 103.756L32.8108 97.9211L27.21 101.357L21.1438 96.2975L23.8278 94.834L24.0968 94.9365C25.6879 95.5429 26.5498 95.8279 27.0507 95.9369C27.2985 95.9908 27.4124 95.9908 27.4589 95.9857C27.4793 95.9835 27.4832 95.9831 27.5116 95.9641L27.5339 95.9493L30.5291 94.3038L22.4378 90.5575L26.5638 89.1004L36.1013 91.2604L41.4011 88.3571L41.4292 88.3451C41.7045 88.2275 41.9962 88.1564 42.2938 88.135L42.3162 88.1334H42.3386C42.4041 88.1334 42.4853 88.1318 42.5777 88.1301C42.9263 88.1234 43.4356 88.1137 43.8755 88.1723C44.1572 88.2098 44.4835 88.2823 44.7609 88.4441ZM44.1242 89.52C44.0557 89.4822 43.9233 89.4397 43.7105 89.4113C43.3756 89.3667 43.0099 89.3733 42.6696 89.3793C42.5646 89.3812 42.462 89.3831 42.3635 89.3833C42.2216 89.3955 42.0811 89.4292 41.9457 89.484L36.2868 92.5841L26.6397 90.3993L25.7499 90.7135L33.2984 94.2085L28.18 97.0206C28.0295 97.1171 27.8449 97.201 27.5943 97.2283C27.355 97.2544 27.0906 97.2248 26.7849 97.1583C26.2139 97.034 25.3413 96.7435 23.9211 96.2069L23.3561 96.515L27.3214 99.8221L33.9791 95.738L34.1874 101.244L34.2657 101.182L36.806 94.4524L43.8896 90.3049C43.9633 90.2039 44.0225 90.0879 44.0632 89.961C44.1084 89.8201 44.1292 89.6704 44.1242 89.52Z" fill="#323232"/>
<path d="M36.9986 166H38.1326V159.084H37.0126L36.9986 160.344C36.4666 159.364 35.5286 158.93 34.4366 158.93C32.4766 158.93 30.8806 160.204 30.8806 162.542C30.8806 164.796 32.4346 166.168 34.4226 166.168C35.3746 166.168 36.4246 165.72 36.9706 164.782L36.9986 166ZM34.4786 160.022C36.1586 160.022 36.9986 161.282 36.9986 162.556C36.9986 163.844 36.1586 165.118 34.4786 165.118C33.1066 165.118 31.9866 164.11 31.9866 162.584C31.9866 160.96 33.1066 160.022 34.4786 160.022ZM40.3824 159.098V169.276H41.5024V164.768C42.0764 165.72 43.1404 166.168 44.1204 166.168C46.1784 166.168 47.5224 164.754 47.5224 162.556C47.5224 160.358 46.1504 158.986 44.1764 158.93C43.0704 158.93 42.0904 159.504 41.5444 160.442L41.4744 159.098H40.3824ZM44.0504 165.09C42.6504 165.09 41.6424 164.012 41.6424 162.584C41.6424 161.17 42.6084 160.064 44.0504 160.064C45.4504 160.064 46.3744 160.96 46.3744 162.584C46.3744 164.152 45.4364 165.09 44.0504 165.09ZM49.3101 159.098V169.276H50.4301V164.768C51.0041 165.72 52.0681 166.168 53.0481 166.168C55.1061 166.168 56.4501 164.754 56.4501 162.556C56.4501 160.358 55.0781 158.986 53.1041 158.93C51.9981 158.93 51.0181 159.504 50.4721 160.442L50.4021 159.098H49.3101ZM52.9781 165.09C51.5781 165.09 50.5701 164.012 50.5701 162.584C50.5701 161.17 51.5361 160.064 52.9781 160.064C54.3781 160.064 55.3021 160.96 55.3021 162.584C55.3021 164.152 54.3641 165.09 52.9781 165.09ZM64.2999 164.936H64.3139L63.5299 164.25C63.0819 164.81 62.1019 165.104 61.3319 165.104C60.0159 165.104 58.9379 164.278 58.8119 162.934H64.7059C64.7199 162.738 64.7339 162.542 64.7339 162.36C64.7339 160.008 63.2079 158.93 61.2479 158.93C59.1619 158.93 57.6639 160.428 57.6639 162.514C57.6639 164.768 59.1619 166.168 61.3039 166.168C62.3819 166.168 63.5719 165.776 64.2999 164.936ZM63.5999 161.982H58.8119C59.0359 160.638 60.0719 159.966 61.2759 159.966C62.6339 159.966 63.5579 160.652 63.5999 161.982ZM67.519 166V156.2H66.385V166H67.519ZM74.1569 160.624L74.8289 159.854C74.0869 159.196 73.2469 158.93 72.2109 158.93C70.8529 158.93 69.3969 159.476 69.3969 160.96C69.3969 162.402 70.8249 162.794 72.1549 162.934C73.2189 163.06 74.0169 163.312 74.0169 164.054C73.9749 164.894 73.0369 165.118 72.2669 165.118C71.4269 165.118 70.4189 164.88 69.8169 164.11L69.1309 164.88C69.9009 165.888 71.0909 166.168 72.2529 166.168C73.8209 166.168 75.1369 165.482 75.1369 164.04C75.1369 162.388 73.4709 162.136 72.2389 161.982C71.3849 161.87 70.5029 161.688 70.5029 160.96C70.5029 160.274 71.2589 159.952 72.2249 159.952C72.9249 159.952 73.5549 160.078 74.1569 160.624ZM77.0553 166.014L77.0413 166.042L76.6913 167.302H77.4473C77.7133 166.406 78.0773 165.552 78.0773 165.426C78.0773 164.936 77.6853 164.67 77.3073 164.67C76.9293 164.67 76.5653 164.908 76.5653 165.398C76.5653 165.734 76.7753 165.944 77.0553 166.014ZM90.0489 158.384L90.9729 157.81C90.0909 156.368 88.6629 156.004 87.2489 156.004C85.5969 156.004 83.4969 156.76 83.4969 158.692C83.4969 160.736 85.3309 161.156 87.2349 161.45C88.7049 161.674 90.0629 162.024 90.0629 163.228C90.0629 164.684 88.4669 165.076 87.2769 165.076C85.9329 165.076 84.7709 164.544 84.1129 163.34L83.1469 163.942C83.9029 165.608 85.6249 166.196 87.2629 166.196C89.1249 166.196 91.2529 165.454 91.2529 163.242C91.2529 161.128 89.3069 160.666 87.3609 160.372C85.9189 160.148 84.7009 159.812 84.7009 158.734C84.7009 157.628 86.0309 157.096 87.2769 157.096C88.3829 157.11 89.4889 157.53 90.0489 158.384ZM98.1978 162.92L101.754 157.95V166H102.958V156.2H101.502L98.0858 161.24L94.6558 156.2H93.1858V166H94.4038V157.922L97.9458 162.92H98.1978ZM111.733 158.384L112.657 157.81C111.775 156.368 110.347 156.004 108.933 156.004C107.281 156.004 105.181 156.76 105.181 158.692C105.181 160.736 107.015 161.156 108.919 161.45C110.389 161.674 111.747 162.024 111.747 163.228C111.747 164.684 110.151 165.076 108.961 165.076C107.617 165.076 106.455 164.544 105.797 163.34L104.831 163.942C105.587 165.608 107.309 166.196 108.947 166.196C110.809 166.196 112.937 165.454 112.937 163.242C112.937 161.128 110.991 160.666 109.045 160.372C107.603 160.148 106.385 159.812 106.385 158.734C106.385 157.628 107.715 157.096 108.961 157.096C110.067 157.11 111.173 157.53 111.733 158.384ZM123.939 158.65V158.664H125.087C125.087 156.62 123.393 156.102 121.741 156.102C119.711 156.102 118.157 157.068 118.157 158.86C118.157 159.784 118.773 160.708 119.739 160.988C118.787 161.338 117.975 162.164 117.975 163.214C117.975 165.258 119.431 166.126 121.713 166.126C122.735 166.126 123.869 165.916 124.555 164.81C124.821 165.748 125.507 166.07 126.305 166.014V164.908C125.465 164.908 125.241 164.166 125.241 163.284V161.478H126.095V160.484H121.741C120.803 160.484 119.347 160.12 119.347 158.818C119.347 157.964 120.047 157.11 121.713 157.11C122.889 157.11 123.939 157.404 123.939 158.65ZM121.657 161.464H124.121V163.256C124.121 164.6 122.595 165.048 121.685 165.048C120.145 165.048 119.165 164.376 119.165 163.2C119.165 162.388 119.991 161.464 121.657 161.464ZM136.862 162.92L140.418 157.95V166H141.622V156.2H140.166L136.75 161.24L133.32 156.2H131.85V166H133.068V157.922L136.61 162.92H136.862ZM149.249 162.92L152.805 157.95V166H154.009V156.2H152.553L149.137 161.24L145.707 156.2H144.237V166H145.455V157.922L148.997 162.92H149.249ZM162.783 158.384L163.707 157.81C162.825 156.368 161.397 156.004 159.983 156.004C158.331 156.004 156.231 156.76 156.231 158.692C156.231 160.736 158.065 161.156 159.969 161.45C161.439 161.674 162.797 162.024 162.797 163.228C162.797 164.684 161.201 165.076 160.011 165.076C158.667 165.076 157.505 164.544 156.847 163.34L155.881 163.942C156.637 165.608 158.359 166.196 159.997 166.196C161.859 166.196 163.987 165.454 163.987 163.242C163.987 161.128 162.041 160.666 160.095 160.372C158.653 160.148 157.435 159.812 157.435 158.734C157.435 157.628 158.765 157.096 160.011 157.096C161.117 157.11 162.223 157.53 162.783 158.384ZM169.096 156.97C169.096 157.474 169.46 157.712 169.852 157.712C170.216 157.712 170.622 157.488 170.622 156.984C170.622 156.48 170.216 156.228 169.852 156.228C169.46 156.228 169.096 156.48 169.096 156.97ZM169.264 159.098V166H170.412V159.098H169.264ZM173.749 166V156.2H172.615V166H173.749ZM177.167 166V156.2H176.033V166H177.167ZM179.199 156.97C179.199 157.474 179.563 157.712 179.955 157.712C180.319 157.712 180.725 157.488 180.725 156.984C180.725 156.48 180.319 156.228 179.955 156.228C179.563 156.228 179.199 156.48 179.199 156.97ZM179.367 159.098V166H180.515V159.098H179.367ZM183.713 159.098H182.635V166H183.783V162.08C183.783 160.96 184.525 160.008 185.673 160.008C186.807 160.008 187.521 160.918 187.521 162.038V166H188.669V162.038C188.669 160.918 189.439 160.008 190.559 160.008C191.693 160.008 192.351 160.876 192.351 162.01V166H193.513V162.01C193.513 160.106 192.421 158.93 190.587 158.93C189.607 158.93 188.655 159.378 188.137 160.442C187.745 159.336 186.779 158.93 185.827 158.93C185.043 158.93 184.217 159.28 183.783 160.106L183.713 159.098ZM195.36 156.97C195.36 157.474 195.724 157.712 196.116 157.712C196.48 157.712 196.886 157.488 196.886 156.984C196.886 156.48 196.48 156.228 196.116 156.228C195.724 156.228 195.36 156.48 195.36 156.97ZM195.528 159.098V166H196.676V159.098H195.528ZM200.755 159.056V157.068L199.593 157.194V159.056H198.207V160.036H199.593V163.816C199.593 165.3 200.251 166.168 201.679 166.168C202.183 166.168 202.645 166.056 203.121 165.832L202.785 164.88C202.463 165.034 202.141 165.146 201.833 165.146C200.993 165.146 200.741 164.628 200.741 163.816V160.036H202.883V159.056H200.755ZM206.754 157.908V157.992H207.804L209.218 156.186V156.144H207.79L206.754 157.908ZM210.562 164.936H210.576L209.792 164.25C209.344 164.81 208.364 165.104 207.594 165.104C206.278 165.104 205.2 164.278 205.074 162.934H210.968C210.982 162.738 210.996 162.542 210.996 162.36C210.996 160.008 209.47 158.93 207.51 158.93C205.424 158.93 203.926 160.428 203.926 162.514C203.926 164.768 205.424 166.168 207.566 166.168C208.644 166.168 209.834 165.776 210.562 164.936ZM209.862 161.982H205.074C205.298 160.638 206.334 159.966 207.538 159.966C208.896 159.966 209.82 160.652 209.862 161.982ZM216.987 160.624L217.659 159.854C216.917 159.196 216.077 158.93 215.041 158.93C213.683 158.93 212.227 159.476 212.227 160.96C212.227 162.402 213.655 162.794 214.985 162.934C216.049 163.06 216.847 163.312 216.847 164.054C216.805 164.894 215.867 165.118 215.097 165.118C214.257 165.118 213.249 164.88 212.647 164.11L211.961 164.88C212.731 165.888 213.921 166.168 215.083 166.168C216.651 166.168 217.967 165.482 217.967 164.04C217.967 162.388 216.301 162.136 215.069 161.982C214.215 161.87 213.333 161.688 213.333 160.96C213.333 160.274 214.089 159.952 215.055 159.952C215.755 159.952 216.385 160.078 216.987 160.624Z" fill="black"/>
</svg>
