<svg width="248" height="173" viewBox="0 0 248 173" fill="none" xmlns="http://www.w3.org/2000/svg">
<path d="M77.1116 28.76C77.1116 25.68 80.2716 24.04 83.4716 24.04C86.4716 24.04 89.5916 25.32 89.5916 27.76H94.8716C94.8716 21.84 89.4716 19.48 83.3916 19.48C77.5916 19.48 71.8716 22.4 71.8716 28.64V39.08C71.8716 45.36 77.8316 48.44 83.5516 48.44C89.1916 48.44 95.1516 45.36 95.1516 39.16C95.1516 32.24 89.1916 29.84 83.5916 29.84C81.3516 29.84 78.3916 30.88 77.1116 32.8V28.76ZM83.5516 43.72C80.1916 43.72 77.1116 42.24 77.1116 39.16C77.1116 36.08 80.0316 34.44 83.5916 34.44C87.1116 34.44 89.9116 36.08 89.9116 39.16C89.9116 42.24 86.9116 43.72 83.5516 43.72ZM99.285 31.84V36.16C99.285 44.52 105.285 48.72 111.325 48.72C117.285 48.72 123.365 44.52 123.365 36.16V31.84C123.365 23.48 117.285 19.32 111.325 19.32C105.285 19.32 99.285 23.48 99.285 31.84ZM104.525 36.16V31.84C104.525 26.8 107.885 24.32 111.285 24.32C114.645 24.32 118.125 26.88 118.125 31.84V36.16C118.125 41.24 114.725 43.8 111.285 43.8C107.925 43.8 104.525 41.24 104.525 36.16ZM149.123 27.04L152.403 23.68C149.523 20.8 145.803 19.4 142.003 19.4C132.123 19.4 127.203 26.68 127.203 34.36C127.203 41.72 131.483 48.64 142.003 48.64C146.963 48.64 150.403 46.8 153.163 43.6V31.8H141.163V36.52H148.323V41.48C146.083 43.24 144.243 43.72 142.003 43.72C135.043 43.72 132.363 38.96 132.363 34.36C132.363 28.56 136.003 24.24 142.003 24.24C144.443 24.24 147.243 25.24 149.123 27.04ZM166.89 27.8C160.61 27.8 156.61 32.52 156.61 38.16C156.61 43.92 160.49 48.56 166.93 48.56C173.37 48.56 177.29 43.92 177.29 38.16C177.29 32.52 173.21 27.8 166.89 27.8ZM166.93 32.32C170.21 32.32 172.29 35.2 172.29 38.16C172.29 41.12 170.49 44 166.93 44C163.37 44 161.57 41.12 161.57 38.16C161.57 35.2 163.41 32.32 166.93 32.32Z" fill="#323232"/>
<path d="M64.012 77.2H60.162V87H64.012C67.4 87 68.912 84.564 68.912 82.114C68.912 79.65 67.414 77.2 64.012 77.2ZM61.996 85.222V78.95H64.012C66.182 78.95 67.078 80.546 67.078 82.114C67.078 83.668 66.196 85.222 64.012 85.222H61.996ZM73.5056 79.93C71.3076 79.93 69.9076 81.582 69.9076 83.556C69.9076 85.572 71.2656 87.196 73.5196 87.196C75.7736 87.196 77.1456 85.572 77.1456 83.556C77.1456 81.582 75.7176 79.93 73.5056 79.93ZM73.5196 81.512C74.6676 81.512 75.3956 82.52 75.3956 83.556C75.3956 84.592 74.7656 85.6 73.5196 85.6C72.2736 85.6 71.6436 84.592 71.6436 83.556C71.6436 82.52 72.2876 81.512 73.5196 81.512ZM83.6691 87H85.3771V83.332C85.3771 81.162 84.0751 79.944 82.4511 79.944C81.5691 79.944 80.8971 80.21 80.1831 80.98L80.0711 80.098H78.5451V87H80.2391V83.43C80.2391 82.38 80.9391 81.498 82.0031 81.498C83.0811 81.498 83.6691 82.296 83.6691 83.346V87ZM89.4997 78.152L87.7917 78.334V80.14H86.5037V81.61H87.7917V84.648C87.7917 86.328 88.7017 87.168 90.1297 87.168C90.7177 87.168 91.1517 87.098 91.6837 86.874L91.2077 85.418C90.9417 85.544 90.6477 85.628 90.3817 85.628C89.8357 85.628 89.4857 85.306 89.4857 84.648V81.61H91.4037V80.14H89.4997V78.152ZM96.0408 85.432V87H101.207V85.432H99.5828V77.2L96.1248 78.348V80.028L97.7488 79.552V85.432H96.0408ZM102.4 80.042H104.234C104.276 79.076 105.382 78.67 106.46 78.67C107.594 78.712 108.434 79.076 108.434 80.14C108.434 81.26 107.076 81.498 106.334 81.498C104.402 81.498 102.358 82.17 102.358 84.424V87H110.296V85.278H104.206V84.438C104.206 83.374 105.508 83.164 106.334 83.164C108.406 83.164 110.268 82.604 110.268 80.098C110.268 77.802 108.294 77.074 106.46 77.074C104.584 77.074 102.582 77.732 102.4 80.042ZM119.336 79.664L120.484 78.488C119.476 77.48 118.174 76.99 116.844 76.99C113.386 76.99 111.664 79.538 111.664 82.226C111.664 84.802 113.162 87.224 116.844 87.224C118.58 87.224 119.784 86.58 120.75 85.46V81.33H116.55V82.982H119.056V84.718C118.272 85.334 117.628 85.502 116.844 85.502C114.408 85.502 113.47 83.836 113.47 82.226C113.47 80.196 114.744 78.684 116.844 78.684C117.698 78.684 118.678 79.034 119.336 79.664ZM125.554 79.93C123.356 79.93 121.956 81.582 121.956 83.556C121.956 85.572 123.314 87.196 125.568 87.196C127.822 87.196 129.194 85.572 129.194 83.556C129.194 81.582 127.766 79.93 125.554 79.93ZM125.568 81.512C126.716 81.512 127.444 82.52 127.444 83.556C127.444 84.592 126.814 85.6 125.568 85.6C124.322 85.6 123.692 84.592 123.692 83.556C123.692 82.52 124.336 81.512 125.568 81.512ZM135.343 84.186H140.733C140.747 83.962 140.761 83.752 140.761 83.542C140.761 81.134 139.361 79.916 137.247 79.916C135.007 79.916 133.579 81.428 133.579 83.528C133.579 85.726 134.993 87.21 137.373 87.21C138.437 87.21 139.599 86.832 140.341 86.09L139.249 85.012C138.843 85.418 138.031 85.656 137.401 85.656C136.183 85.656 135.455 85.04 135.343 84.186ZM139.095 82.772H135.371C135.637 81.876 136.365 81.428 137.303 81.428C138.297 81.428 138.983 81.876 139.095 82.772ZM147.243 87H148.951V83.332C148.951 81.162 147.649 79.944 146.025 79.944C145.143 79.944 144.471 80.21 143.757 80.98L143.645 80.098H142.119V87H143.813V83.43C143.813 82.38 144.513 81.498 145.577 81.498C146.655 81.498 147.243 82.296 147.243 83.346V87ZM161.67 87V85.18H156.168V82.968H161.474V81.246H156.168V78.992H161.67V77.2H154.334V87H161.67ZM164.866 80.098H163.158V83.808C163.158 85.936 164.376 87.196 166.014 87.196C166.98 87.196 167.638 86.874 168.352 86.16L168.464 87.028H169.99V80.098H168.296V83.71C168.296 84.76 167.596 85.642 166.532 85.642C165.44 85.642 164.866 84.844 164.866 83.794V80.098ZM173.424 80.098H171.842V87H173.55V83.36C173.55 82.072 174.376 81.61 175.272 81.61C175.832 81.61 176.154 81.792 176.504 82.058L177.274 80.574C176.896 80.224 176.21 79.93 175.496 79.93C174.81 79.93 174.054 80.056 173.55 80.896L173.424 80.098ZM181.158 79.93C178.96 79.93 177.56 81.582 177.56 83.556C177.56 85.572 178.918 87.196 181.172 87.196C183.426 87.196 184.798 85.572 184.798 83.556C184.798 81.582 183.37 79.93 181.158 79.93ZM181.172 81.512C182.32 81.512 183.048 82.52 183.048 83.556C183.048 84.592 182.418 85.6 181.172 85.6C179.926 85.6 179.296 84.592 179.296 83.556C179.296 82.52 179.94 81.512 181.172 81.512ZM186.197 90.164H187.905V86.188C188.409 86.958 189.459 87.196 190.201 87.196C192.413 87.196 193.687 85.572 193.687 83.556C193.687 81.526 192.273 79.944 190.145 79.944C189.361 79.944 188.451 80.266 187.905 81.05L187.793 80.098H186.197V90.164ZM190.019 85.53C188.843 85.53 188.059 84.634 188.059 83.556C188.059 82.478 188.787 81.596 190.019 81.596C191.251 81.596 191.979 82.478 191.979 83.556C191.979 84.634 191.195 85.53 190.019 85.53ZM196.47 84.186H201.86C201.874 83.962 201.888 83.752 201.888 83.542C201.888 81.134 200.488 79.916 198.374 79.916C196.134 79.916 194.706 81.428 194.706 83.528C194.706 85.726 196.12 87.21 198.5 87.21C199.564 87.21 200.726 86.832 201.468 86.09L200.376 85.012C199.97 85.418 199.158 85.656 198.528 85.656C197.31 85.656 196.582 85.04 196.47 84.186ZM200.222 82.772H196.498C196.764 81.876 197.492 81.428 198.43 81.428C199.424 81.428 200.11 81.876 200.222 82.772ZM61.282 106.186H66.672C66.686 105.962 66.7 105.752 66.7 105.542C66.7 103.134 65.3 101.916 63.186 101.916C60.946 101.916 59.518 103.428 59.518 105.528C59.518 107.726 60.932 109.21 63.312 109.21C64.376 109.21 65.538 108.832 66.28 108.09L65.188 107.012C64.782 107.418 63.97 107.656 63.34 107.656C62.122 107.656 61.394 107.04 61.282 106.186ZM65.034 104.772H61.31C61.576 103.876 62.304 103.428 63.242 103.428C64.236 103.428 64.922 103.876 65.034 104.772ZM70.5368 100.152L68.8288 100.334V102.14H67.5408V103.61H68.8288V106.648C68.8288 108.328 69.7388 109.168 71.1668 109.168C71.7548 109.168 72.1888 109.098 72.7208 108.874L72.2448 107.418C71.9788 107.544 71.6848 107.628 71.4188 107.628C70.8728 107.628 70.5228 107.306 70.5228 106.648V103.61H72.4408V102.14H70.5368V100.152ZM81.3479 99.2H77.4979V109H81.3479C84.7359 109 86.2479 106.564 86.2479 104.114C86.2479 101.65 84.7499 99.2 81.3479 99.2ZM79.3319 107.222V100.95H81.3479C83.5179 100.95 84.4139 102.546 84.4139 104.114C84.4139 105.668 83.5319 107.222 81.3479 107.222H79.3319ZM92.5196 99.004C89.6636 99.004 87.4376 101.076 87.4376 104.17C87.4376 106.746 89.0336 109.224 92.4776 109.224C95.9636 109.224 97.5036 106.62 97.5036 104.058C97.5036 101.552 95.8236 99.046 92.5196 99.004ZM89.2576 104.044C89.2576 102.154 90.5036 100.684 92.5196 100.684C94.7316 100.726 95.6836 102.49 95.6836 104.086C95.6836 105.724 94.8436 107.53 92.4776 107.53C90.1116 107.53 89.2576 105.696 89.2576 104.044ZM107.762 101.902V109.014H109.61V99.214H107.496L104.43 103.428L101.364 99.214H99.2362V109.014H101.084V101.888L104.206 106.158H104.57L107.762 101.902ZM117.579 98.276H115.787L111.125 110.148H112.903L117.579 98.276ZM127.186 107.768L125.926 106.494C125.268 107.152 124.316 107.488 123.462 107.488C121.054 107.488 120.088 105.794 120.088 104.17C120.088 102.532 121.082 100.768 123.462 100.768C124.316 100.768 125.17 101.062 125.828 101.692L127.06 100.502C126.052 99.494 124.806 99.004 123.462 99.004C119.906 99.004 118.268 101.608 118.268 104.17C118.268 106.704 119.822 109.224 123.462 109.224C124.876 109.224 126.178 108.776 127.186 107.768ZM132.893 99.004C130.037 99.004 127.811 101.076 127.811 104.17C127.811 106.746 129.407 109.224 132.851 109.224C136.337 109.224 137.877 106.62 137.877 104.058C137.877 101.552 136.197 99.046 132.893 99.004ZM129.631 104.044C129.631 102.154 130.877 100.684 132.893 100.684C135.105 100.726 136.057 102.49 136.057 104.086C136.057 105.724 135.217 107.53 132.851 107.53C130.485 107.53 129.631 105.696 129.631 104.044ZM148.135 101.902V109.014H149.983V99.214H147.869L144.803 103.428L141.737 99.214H139.609V109.014H141.457V101.888L144.579 106.158H144.943L148.135 101.902Z" fill="#323232"/>
<rect x="32.125" y="80" width="1" height="30" fill="white"/>
<rect x="32.625" y="68.5" width="196.75" height="53" rx="9.5" stroke="#E4E4E4"/>
<path fill-rule="evenodd" clip-rule="evenodd" d="M44.3861 88.4441C44.6873 88.6198 44.9571 88.9215 44.9972 89.3713L44.993 89.3717C45.0176 89.6996 44.979 90.0301 44.8788 90.3426C44.7783 90.6562 44.6172 90.9469 44.4032 91.1945L44.3355 91.2729L37.4445 95.3076L34.9384 101.947L32.6568 103.756L32.4361 97.9211L26.8353 101.357L20.769 96.2975L23.453 94.834L23.722 94.9365C25.3132 95.5429 26.1751 95.8279 26.6759 95.9369C26.9238 95.9908 27.0376 95.9908 27.0842 95.9857C27.1046 95.9835 27.1085 95.9831 27.1369 95.9641L27.1591 95.9493L30.1543 94.3038L22.0631 90.5575L26.189 89.1004L35.7265 91.2604L41.0263 88.3571L41.0544 88.3451C41.3298 88.2275 41.6215 88.1564 41.9191 88.135L41.9414 88.1334H41.9638C42.0294 88.1334 42.1105 88.1318 42.203 88.1301C42.5515 88.1234 43.0609 88.1137 43.5008 88.1723C43.7824 88.2098 44.1087 88.2823 44.3861 88.4441ZM43.7495 89.52C43.6809 89.4822 43.5486 89.4397 43.3357 89.4113C43.0008 89.3667 42.6351 89.3733 42.2949 89.3793C42.1899 89.3812 42.0872 89.3831 41.9887 89.3833C41.8468 89.3955 41.7063 89.4292 41.571 89.484L35.912 92.5841L26.2649 90.3993L25.3751 90.7135L32.9237 94.2085L27.8052 97.0206C27.6547 97.1171 27.4701 97.201 27.2196 97.2283C26.9803 97.2544 26.7158 97.2248 26.4101 97.1583C25.8392 97.034 24.9666 96.7435 23.5464 96.2069L22.9814 96.515L26.9467 99.8221L33.6044 95.738L33.8127 101.244L33.8909 101.182L36.4312 94.4524L43.5149 90.3049C43.5885 90.2039 43.6478 90.0879 43.6885 89.961C43.7336 89.8201 43.7545 89.6704 43.7495 89.52Z" fill="#323232"/>
<path d="M36.6236 166H37.7576V159.084H36.6376L36.6236 160.344C36.0916 159.364 35.1536 158.93 34.0616 158.93C32.1016 158.93 30.5056 160.204 30.5056 162.542C30.5056 164.796 32.0596 166.168 34.0476 166.168C34.9996 166.168 36.0496 165.72 36.5956 164.782L36.6236 166ZM34.1036 160.022C35.7836 160.022 36.6236 161.282 36.6236 162.556C36.6236 163.844 35.7836 165.118 34.1036 165.118C32.7316 165.118 31.6116 164.11 31.6116 162.584C31.6116 160.96 32.7316 160.022 34.1036 160.022ZM40.0074 159.098V169.276H41.1274V164.768C41.7014 165.72 42.7654 166.168 43.7454 166.168C45.8034 166.168 47.1474 164.754 47.1474 162.556C47.1474 160.358 45.7754 158.986 43.8014 158.93C42.6954 158.93 41.7154 159.504 41.1694 160.442L41.0994 159.098H40.0074ZM43.6754 165.09C42.2754 165.09 41.2674 164.012 41.2674 162.584C41.2674 161.17 42.2334 160.064 43.6754 160.064C45.0754 160.064 45.9994 160.96 45.9994 162.584C45.9994 164.152 45.0614 165.09 43.6754 165.09ZM48.9351 159.098V169.276H50.0551V164.768C50.6291 165.72 51.6931 166.168 52.6731 166.168C54.7311 166.168 56.0751 164.754 56.0751 162.556C56.0751 160.358 54.7031 158.986 52.7291 158.93C51.6231 158.93 50.6431 159.504 50.0971 160.442L50.0271 159.098H48.9351ZM52.6031 165.09C51.2031 165.09 50.1951 164.012 50.1951 162.584C50.1951 161.17 51.1611 160.064 52.6031 160.064C54.0031 160.064 54.9271 160.96 54.9271 162.584C54.9271 164.152 53.9891 165.09 52.6031 165.09ZM63.9249 164.936H63.9389L63.1549 164.25C62.7069 164.81 61.7269 165.104 60.9569 165.104C59.6409 165.104 58.5629 164.278 58.4369 162.934H64.3309C64.3449 162.738 64.3589 162.542 64.3589 162.36C64.3589 160.008 62.8329 158.93 60.8729 158.93C58.7869 158.93 57.2889 160.428 57.2889 162.514C57.2889 164.768 58.7869 166.168 60.9289 166.168C62.0069 166.168 63.1969 165.776 63.9249 164.936ZM63.2249 161.982H58.4369C58.6609 160.638 59.6969 159.966 60.9009 159.966C62.2589 159.966 63.1829 160.652 63.2249 161.982ZM67.144 166V156.2H66.01V166H67.144ZM73.7819 160.624L74.4539 159.854C73.7119 159.196 72.8719 158.93 71.8359 158.93C70.4779 158.93 69.0219 159.476 69.0219 160.96C69.0219 162.402 70.4499 162.794 71.7799 162.934C72.8439 163.06 73.6419 163.312 73.6419 164.054C73.5999 164.894 72.6619 165.118 71.8919 165.118C71.0519 165.118 70.0439 164.88 69.4419 164.11L68.7559 164.88C69.5259 165.888 70.7159 166.168 71.8779 166.168C73.4459 166.168 74.7619 165.482 74.7619 164.04C74.7619 162.388 73.0959 162.136 71.8639 161.982C71.0099 161.87 70.1279 161.688 70.1279 160.96C70.1279 160.274 70.8839 159.952 71.8499 159.952C72.5499 159.952 73.1799 160.078 73.7819 160.624ZM76.6803 166.014L76.6663 166.042L76.3163 167.302H77.0723C77.3383 166.406 77.7023 165.552 77.7023 165.426C77.7023 164.936 77.3103 164.67 76.9323 164.67C76.5543 164.67 76.1903 164.908 76.1903 165.398C76.1903 165.734 76.4003 165.944 76.6803 166.014ZM89.6739 158.384L90.5979 157.81C89.7159 156.368 88.2879 156.004 86.8739 156.004C85.2219 156.004 83.1219 156.76 83.1219 158.692C83.1219 160.736 84.9559 161.156 86.8599 161.45C88.3299 161.674 89.6879 162.024 89.6879 163.228C89.6879 164.684 88.0919 165.076 86.9019 165.076C85.5579 165.076 84.3959 164.544 83.7379 163.34L82.7719 163.942C83.5279 165.608 85.2499 166.196 86.8879 166.196C88.7499 166.196 90.8779 165.454 90.8779 163.242C90.8779 161.128 88.9319 160.666 86.9859 160.372C85.5439 160.148 84.3259 159.812 84.3259 158.734C84.3259 157.628 85.6559 157.096 86.9019 157.096C88.0079 157.11 89.1139 157.53 89.6739 158.384ZM97.8228 162.92L101.379 157.95V166H102.583V156.2H101.127L97.7108 161.24L94.2808 156.2H92.8108V166H94.0288V157.922L97.5708 162.92H97.8228ZM111.358 158.384L112.282 157.81C111.4 156.368 109.972 156.004 108.558 156.004C106.906 156.004 104.806 156.76 104.806 158.692C104.806 160.736 106.64 161.156 108.544 161.45C110.014 161.674 111.372 162.024 111.372 163.228C111.372 164.684 109.776 165.076 108.586 165.076C107.242 165.076 106.08 164.544 105.422 163.34L104.456 163.942C105.212 165.608 106.934 166.196 108.572 166.196C110.434 166.196 112.562 165.454 112.562 163.242C112.562 161.128 110.616 160.666 108.67 160.372C107.228 160.148 106.01 159.812 106.01 158.734C106.01 157.628 107.34 157.096 108.586 157.096C109.692 157.11 110.798 157.53 111.358 158.384ZM123.564 158.65V158.664H124.712C124.712 156.62 123.018 156.102 121.366 156.102C119.336 156.102 117.782 157.068 117.782 158.86C117.782 159.784 118.398 160.708 119.364 160.988C118.412 161.338 117.6 162.164 117.6 163.214C117.6 165.258 119.056 166.126 121.338 166.126C122.36 166.126 123.494 165.916 124.18 164.81C124.446 165.748 125.132 166.07 125.93 166.014V164.908C125.09 164.908 124.866 164.166 124.866 163.284V161.478H125.72V160.484H121.366C120.428 160.484 118.972 160.12 118.972 158.818C118.972 157.964 119.672 157.11 121.338 157.11C122.514 157.11 123.564 157.404 123.564 158.65ZM121.282 161.464H123.746V163.256C123.746 164.6 122.22 165.048 121.31 165.048C119.77 165.048 118.79 164.376 118.79 163.2C118.79 162.388 119.616 161.464 121.282 161.464ZM136.487 162.92L140.043 157.95V166H141.247V156.2H139.791L136.375 161.24L132.945 156.2H131.475V166H132.693V157.922L136.235 162.92H136.487ZM148.874 162.92L152.43 157.95V166H153.634V156.2H152.178L148.762 161.24L145.332 156.2H143.862V166H145.08V157.922L148.622 162.92H148.874ZM162.408 158.384L163.332 157.81C162.45 156.368 161.022 156.004 159.608 156.004C157.956 156.004 155.856 156.76 155.856 158.692C155.856 160.736 157.69 161.156 159.594 161.45C161.064 161.674 162.422 162.024 162.422 163.228C162.422 164.684 160.826 165.076 159.636 165.076C158.292 165.076 157.13 164.544 156.472 163.34L155.506 163.942C156.262 165.608 157.984 166.196 159.622 166.196C161.484 166.196 163.612 165.454 163.612 163.242C163.612 161.128 161.666 160.666 159.72 160.372C158.278 160.148 157.06 159.812 157.06 158.734C157.06 157.628 158.39 157.096 159.636 157.096C160.742 157.11 161.848 157.53 162.408 158.384ZM168.721 156.97C168.721 157.474 169.085 157.712 169.477 157.712C169.841 157.712 170.247 157.488 170.247 156.984C170.247 156.48 169.841 156.228 169.477 156.228C169.085 156.228 168.721 156.48 168.721 156.97ZM168.889 159.098V166H170.037V159.098H168.889ZM173.374 166V156.2H172.24V166H173.374ZM176.792 166V156.2H175.658V166H176.792ZM178.824 156.97C178.824 157.474 179.188 157.712 179.58 157.712C179.944 157.712 180.35 157.488 180.35 156.984C180.35 156.48 179.944 156.228 179.58 156.228C179.188 156.228 178.824 156.48 178.824 156.97ZM178.992 159.098V166H180.14V159.098H178.992ZM183.338 159.098H182.26V166H183.408V162.08C183.408 160.96 184.15 160.008 185.298 160.008C186.432 160.008 187.146 160.918 187.146 162.038V166H188.294V162.038C188.294 160.918 189.064 160.008 190.184 160.008C191.318 160.008 191.976 160.876 191.976 162.01V166H193.138V162.01C193.138 160.106 192.046 158.93 190.212 158.93C189.232 158.93 188.28 159.378 187.762 160.442C187.37 159.336 186.404 158.93 185.452 158.93C184.668 158.93 183.842 159.28 183.408 160.106L183.338 159.098ZM194.985 156.97C194.985 157.474 195.349 157.712 195.741 157.712C196.105 157.712 196.511 157.488 196.511 156.984C196.511 156.48 196.105 156.228 195.741 156.228C195.349 156.228 194.985 156.48 194.985 156.97ZM195.153 159.098V166H196.301V159.098H195.153ZM200.38 159.056V157.068L199.218 157.194V159.056H197.832V160.036H199.218V163.816C199.218 165.3 199.876 166.168 201.304 166.168C201.808 166.168 202.27 166.056 202.746 165.832L202.41 164.88C202.088 165.034 201.766 165.146 201.458 165.146C200.618 165.146 200.366 164.628 200.366 163.816V160.036H202.508V159.056H200.38ZM206.379 157.908V157.992H207.429L208.843 156.186V156.144H207.415L206.379 157.908ZM210.187 164.936H210.201L209.417 164.25C208.969 164.81 207.989 165.104 207.219 165.104C205.903 165.104 204.825 164.278 204.699 162.934H210.593C210.607 162.738 210.621 162.542 210.621 162.36C210.621 160.008 209.095 158.93 207.135 158.93C205.049 158.93 203.551 160.428 203.551 162.514C203.551 164.768 205.049 166.168 207.191 166.168C208.269 166.168 209.459 165.776 210.187 164.936ZM209.487 161.982H204.699C204.923 160.638 205.959 159.966 207.163 159.966C208.521 159.966 209.445 160.652 209.487 161.982ZM216.612 160.624L217.284 159.854C216.542 159.196 215.702 158.93 214.666 158.93C213.308 158.93 211.852 159.476 211.852 160.96C211.852 162.402 213.28 162.794 214.61 162.934C215.674 163.06 216.472 163.312 216.472 164.054C216.43 164.894 215.492 165.118 214.722 165.118C213.882 165.118 212.874 164.88 212.272 164.11L211.586 164.88C212.356 165.888 213.546 166.168 214.708 166.168C216.276 166.168 217.592 165.482 217.592 164.04C217.592 162.388 215.926 162.136 214.694 161.982C213.84 161.87 212.958 161.688 212.958 160.96C212.958 160.274 213.714 159.952 214.68 159.952C215.38 159.952 216.01 160.078 216.612 160.624Z" fill="black"/>
</svg>
