<svg width="248" height="173" viewBox="0 0 248 173" fill="none" xmlns="http://www.w3.org/2000/svg">
<path d="M36.1278 43.52V48H50.8878V43.52H46.2478V20L36.3678 23.28V28.08L41.0078 26.72V43.52H36.1278ZM54.1366 31.84V36.16C54.1366 44.52 60.1366 48.72 66.1766 48.72C72.1366 48.72 78.2166 44.52 78.2166 36.16V31.84C78.2166 23.48 72.1366 19.32 66.1766 19.32C60.1366 19.32 54.1366 23.48 54.1366 31.84ZM59.3766 36.16V31.84C59.3766 26.8 62.7366 24.32 66.1366 24.32C69.4966 24.32 72.9766 26.88 72.9766 31.84V36.16C72.9766 41.24 69.5766 43.8 66.1366 43.8C62.7766 43.8 59.3766 41.24 59.3766 36.16ZM82.535 31.84V36.16C82.535 44.52 88.535 48.72 94.575 48.72C100.535 48.72 106.615 44.52 106.615 36.16V31.84C106.615 23.48 100.535 19.32 94.575 19.32C88.535 19.32 82.535 23.48 82.535 31.84ZM87.775 36.16V31.84C87.775 26.8 91.135 24.32 94.535 24.32C97.895 24.32 101.375 26.88 101.375 31.84V36.16C101.375 41.24 97.975 43.8 94.535 43.8C91.175 43.8 87.775 41.24 87.775 36.16ZM136.453 27.72V48.04H141.733V20.04H135.693L126.933 32.08L118.173 20.04H112.093V48.04H117.373V27.68L126.293 39.88H127.333L136.453 27.72ZM156.234 27.8C149.954 27.8 145.954 32.52 145.954 38.16C145.954 43.92 149.834 48.56 156.274 48.56C162.714 48.56 166.634 43.92 166.634 38.16C166.634 32.52 162.554 27.8 156.234 27.8ZM156.274 32.32C159.554 32.32 161.634 35.2 161.634 38.16C161.634 41.12 159.834 44 156.274 44C152.714 44 150.914 41.12 150.914 38.16C150.914 35.2 152.754 32.32 156.274 32.32Z" fill="#323232"/>
<line x1="178.5" y1="20" x2="178.5" y2="60" stroke="#323232"/>
<path d="M189.358 34.16H192.358C192.418 33.02 193.738 32.48 194.998 32.48C196.598 32.48 197.558 33.1 197.558 34.28C197.558 35.66 196.058 35.96 195.018 35.96C192.238 35.96 189.198 36.8 189.198 40.56V44H200.518V41.12H192.138V40.58C192.138 38.82 193.818 38.68 195.018 38.68C198.238 38.68 200.618 37.68 200.618 34.22C200.618 31.18 197.978 29.82 194.998 29.82C192.278 29.82 189.518 30.9 189.358 34.16ZM205.794 30H202.894V44H205.774V38.96C205.774 37.36 206.774 36.54 207.974 36.54C209.114 36.54 209.854 37.3 209.854 38.68V44H212.734V38.66C212.734 35.14 211.114 33.92 208.794 33.92C207.774 33.92 206.614 34.24 205.794 35.3V30Z" fill="#323232"/>
<path d="M58.012 77.2H54.162V87H58.012C61.4 87 62.912 84.564 62.912 82.114C62.912 79.65 61.414 77.2 58.012 77.2ZM55.996 85.222V78.95H58.012C60.182 78.95 61.078 80.546 61.078 82.114C61.078 83.668 60.196 85.222 58.012 85.222H55.996ZM67.5056 79.93C65.3076 79.93 63.9076 81.582 63.9076 83.556C63.9076 85.572 65.2656 87.196 67.5196 87.196C69.7736 87.196 71.1456 85.572 71.1456 83.556C71.1456 81.582 69.7176 79.93 67.5056 79.93ZM67.5196 81.512C68.6676 81.512 69.3956 82.52 69.3956 83.556C69.3956 84.592 68.7656 85.6 67.5196 85.6C66.2736 85.6 65.6436 84.592 65.6436 83.556C65.6436 82.52 66.2876 81.512 67.5196 81.512ZM77.6691 87H79.3771V83.332C79.3771 81.162 78.0751 79.944 76.4511 79.944C75.5691 79.944 74.8971 80.21 74.1831 80.98L74.0711 80.098H72.5451V87H74.2391V83.43C74.2391 82.38 74.9391 81.498 76.0031 81.498C77.0811 81.498 77.6691 82.296 77.6691 83.346V87ZM83.4997 78.152L81.7917 78.334V80.14H80.5037V81.61H81.7917V84.648C81.7917 86.328 82.7017 87.168 84.1297 87.168C84.7177 87.168 85.1517 87.098 85.6837 86.874L85.2077 85.418C84.9417 85.544 84.6477 85.628 84.3817 85.628C83.8357 85.628 83.4857 85.306 83.4857 84.648V81.61H85.4037V80.14H83.4997V78.152ZM90.0408 85.432V87H95.2068V85.432H93.5828V77.2L90.1248 78.348V80.028L91.7488 79.552V85.432H90.0408ZM96.3439 81.344V82.856C96.3439 85.782 98.4439 87.252 100.558 87.252C102.644 87.252 104.772 85.782 104.772 82.856V81.344C104.772 78.418 102.644 76.962 100.558 76.962C98.4439 76.962 96.3439 78.418 96.3439 81.344ZM98.1779 82.856V81.344C98.1779 79.58 99.3539 78.712 100.544 78.712C101.72 78.712 102.938 79.608 102.938 81.344V82.856C102.938 84.634 101.748 85.53 100.544 85.53C99.3679 85.53 98.1779 84.634 98.1779 82.856ZM106.283 81.344V82.856C106.283 85.782 108.383 87.252 110.497 87.252C112.583 87.252 114.711 85.782 114.711 82.856V81.344C114.711 78.418 112.583 76.962 110.497 76.962C108.383 76.962 106.283 78.418 106.283 81.344ZM108.117 82.856V81.344C108.117 79.58 109.293 78.712 110.483 78.712C111.659 78.712 112.877 79.608 112.877 81.344V82.856C112.877 84.634 111.687 85.53 110.483 85.53C109.307 85.53 108.117 84.634 108.117 82.856ZM125.155 79.902V87.014H127.003V77.214H124.889L121.823 81.428L118.757 77.214H116.629V87.014H118.477V79.888L121.599 84.158H121.963L125.155 79.902ZM132.078 79.93C129.88 79.93 128.48 81.582 128.48 83.556C128.48 85.572 129.838 87.196 132.092 87.196C134.346 87.196 135.718 85.572 135.718 83.556C135.718 81.582 134.29 79.93 132.078 79.93ZM132.092 81.512C133.24 81.512 133.968 82.52 133.968 83.556C133.968 84.592 133.338 85.6 132.092 85.6C130.846 85.6 130.216 84.592 130.216 83.556C130.216 82.52 130.86 81.512 132.092 81.512ZM141.866 84.186H147.256C147.27 83.962 147.284 83.752 147.284 83.542C147.284 81.134 145.884 79.916 143.77 79.916C141.53 79.916 140.102 81.428 140.102 83.528C140.102 85.726 141.516 87.21 143.896 87.21C144.96 87.21 146.122 86.832 146.864 86.09L145.772 85.012C145.366 85.418 144.554 85.656 143.924 85.656C142.706 85.656 141.978 85.04 141.866 84.186ZM145.618 82.772H141.894C142.16 81.876 142.888 81.428 143.826 81.428C144.82 81.428 145.506 81.876 145.618 82.772ZM153.767 87H155.475V83.332C155.475 81.162 154.173 79.944 152.549 79.944C151.667 79.944 150.995 80.21 150.281 80.98L150.169 80.098H148.643V87H150.337V83.43C150.337 82.38 151.037 81.498 152.101 81.498C153.179 81.498 153.767 82.296 153.767 83.346V87ZM168.193 87V85.18H162.691V82.968H167.997V81.246H162.691V78.992H168.193V77.2H160.857V87H168.193ZM171.389 80.098H169.681V83.808C169.681 85.936 170.899 87.196 172.537 87.196C173.503 87.196 174.161 86.874 174.875 86.16L174.987 87.028H176.513V80.098H174.819V83.71C174.819 84.76 174.119 85.642 173.055 85.642C171.963 85.642 171.389 84.844 171.389 83.794V80.098ZM179.947 80.098H178.365V87H180.073V83.36C180.073 82.072 180.899 81.61 181.795 81.61C182.355 81.61 182.677 81.792 183.027 82.058L183.797 80.574C183.419 80.224 182.733 79.93 182.019 79.93C181.333 79.93 180.577 80.056 180.073 80.896L179.947 80.098ZM187.681 79.93C185.483 79.93 184.083 81.582 184.083 83.556C184.083 85.572 185.441 87.196 187.695 87.196C189.949 87.196 191.321 85.572 191.321 83.556C191.321 81.582 189.893 79.93 187.681 79.93ZM187.695 81.512C188.843 81.512 189.571 82.52 189.571 83.556C189.571 84.592 188.941 85.6 187.695 85.6C186.449 85.6 185.819 84.592 185.819 83.556C185.819 82.52 186.463 81.512 187.695 81.512ZM192.721 90.164H194.429V86.188C194.933 86.958 195.983 87.196 196.725 87.196C198.937 87.196 200.211 85.572 200.211 83.556C200.211 81.526 198.797 79.944 196.669 79.944C195.885 79.944 194.975 80.266 194.429 81.05L194.317 80.098H192.721V90.164ZM196.543 85.53C195.367 85.53 194.583 84.634 194.583 83.556C194.583 82.478 195.311 81.596 196.543 81.596C197.775 81.596 198.503 82.478 198.503 83.556C198.503 84.634 197.719 85.53 196.543 85.53ZM202.993 84.186H208.383C208.397 83.962 208.411 83.752 208.411 83.542C208.411 81.134 207.011 79.916 204.897 79.916C202.657 79.916 201.229 81.428 201.229 83.528C201.229 85.726 202.643 87.21 205.023 87.21C206.087 87.21 207.249 86.832 207.991 86.09L206.899 85.012C206.493 85.418 205.681 85.656 205.051 85.656C203.833 85.656 203.105 85.04 202.993 84.186ZM206.745 82.772H203.021C203.287 81.876 204.015 81.428 204.953 81.428C205.947 81.428 206.633 81.876 206.745 82.772ZM55.282 106.186H60.672C60.686 105.962 60.7 105.752 60.7 105.542C60.7 103.134 59.3 101.916 57.186 101.916C54.946 101.916 53.518 103.428 53.518 105.528C53.518 107.726 54.932 109.21 57.312 109.21C58.376 109.21 59.538 108.832 60.28 108.09L59.188 107.012C58.782 107.418 57.97 107.656 57.34 107.656C56.122 107.656 55.394 107.04 55.282 106.186ZM59.034 104.772H55.31C55.576 103.876 56.304 103.428 57.242 103.428C58.236 103.428 58.922 103.876 59.034 104.772ZM64.5368 100.152L62.8288 100.334V102.14H61.5408V103.61H62.8288V106.648C62.8288 108.328 63.7388 109.168 65.1668 109.168C65.7548 109.168 66.1888 109.098 66.7208 108.874L66.2448 107.418C65.9788 107.544 65.6848 107.628 65.4188 107.628C64.8728 107.628 64.5228 107.306 64.5228 106.648V103.61H66.4408V102.14H64.5368V100.152ZM75.3479 99.2H71.4979V109H75.3479C78.7359 109 80.2479 106.564 80.2479 104.114C80.2479 101.65 78.7499 99.2 75.3479 99.2ZM73.3319 107.222V100.95H75.3479C77.5179 100.95 78.4139 102.546 78.4139 104.114C78.4139 105.668 77.5319 107.222 75.3479 107.222H73.3319ZM86.5196 99.004C83.6636 99.004 81.4376 101.076 81.4376 104.17C81.4376 106.746 83.0336 109.224 86.4776 109.224C89.9636 109.224 91.5036 106.62 91.5036 104.058C91.5036 101.552 89.8236 99.046 86.5196 99.004ZM83.2576 104.044C83.2576 102.154 84.5036 100.684 86.5196 100.684C88.7316 100.726 89.6836 102.49 89.6836 104.086C89.6836 105.724 88.8436 107.53 86.4776 107.53C84.1116 107.53 83.2576 105.696 83.2576 104.044ZM101.762 101.902V109.014H103.61V99.214H101.496L98.4302 103.428L95.3642 99.214H93.2362V109.014H95.0842V101.888L98.2062 106.158H98.5702L101.762 101.902ZM111.579 98.276H109.787L105.125 110.148H106.903L111.579 98.276ZM121.186 107.768L119.926 106.494C119.268 107.152 118.316 107.488 117.462 107.488C115.054 107.488 114.088 105.794 114.088 104.17C114.088 102.532 115.082 100.768 117.462 100.768C118.316 100.768 119.17 101.062 119.828 101.692L121.06 100.502C120.052 99.494 118.806 99.004 117.462 99.004C113.906 99.004 112.268 101.608 112.268 104.17C112.268 106.704 113.822 109.224 117.462 109.224C118.876 109.224 120.178 108.776 121.186 107.768ZM126.893 99.004C124.037 99.004 121.811 101.076 121.811 104.17C121.811 106.746 123.407 109.224 126.851 109.224C130.337 109.224 131.877 106.62 131.877 104.058C131.877 101.552 130.197 99.046 126.893 99.004ZM123.631 104.044C123.631 102.154 124.877 100.684 126.893 100.684C129.105 100.726 130.057 102.49 130.057 104.086C130.057 105.724 129.217 107.53 126.851 107.53C124.485 107.53 123.631 105.696 123.631 104.044ZM142.135 101.902V109.014H143.983V99.214H141.869L138.803 103.428L135.737 99.214H133.609V109.014H135.457V101.888L138.579 106.158H138.943L142.135 101.902Z" fill="#323232"/>
<rect x="32.125" y="80" width="1" height="30" fill="white"/>
<rect x="32.625" y="68.5" width="196.75" height="53" rx="9.5" stroke="#E4E4E4"/>
<path fill-rule="evenodd" clip-rule="evenodd" d="M44.3861 88.4441C44.6873 88.6198 44.9571 88.9215 44.9972 89.3713L44.993 89.3717C45.0176 89.6996 44.979 90.0301 44.8788 90.3426C44.7783 90.6562 44.6172 90.9469 44.4032 91.1945L44.3355 91.2729L37.4445 95.3076L34.9384 101.947L32.6568 103.756L32.4361 97.9211L26.8353 101.357L20.769 96.2975L23.453 94.834L23.722 94.9365C25.3132 95.5429 26.1751 95.8279 26.6759 95.9369C26.9238 95.9908 27.0376 95.9908 27.0842 95.9857C27.1046 95.9835 27.1085 95.9831 27.1369 95.9641L27.1591 95.9493L30.1543 94.3038L22.0631 90.5575L26.189 89.1004L35.7265 91.2604L41.0263 88.3571L41.0544 88.3451C41.3298 88.2275 41.6215 88.1564 41.9191 88.135L41.9414 88.1334H41.9638C42.0294 88.1334 42.1105 88.1318 42.203 88.1301C42.5515 88.1234 43.0609 88.1137 43.5008 88.1723C43.7824 88.2098 44.1087 88.2823 44.3861 88.4441ZM43.7495 89.52C43.6809 89.4822 43.5486 89.4397 43.3357 89.4113C43.0008 89.3667 42.6351 89.3733 42.2949 89.3793C42.1899 89.3812 42.0872 89.3831 41.9887 89.3833C41.8468 89.3955 41.7063 89.4292 41.571 89.484L35.912 92.5841L26.2649 90.3993L25.3751 90.7135L32.9237 94.2085L27.8052 97.0206C27.6547 97.1171 27.4701 97.201 27.2196 97.2283C26.9803 97.2544 26.7158 97.2248 26.4101 97.1583C25.8392 97.034 24.9666 96.7435 23.5464 96.2069L22.9814 96.515L26.9467 99.8221L33.6044 95.738L33.8127 101.244L33.8909 101.182L36.4312 94.4524L43.5149 90.3049C43.5885 90.2039 43.6478 90.0879 43.6885 89.961C43.7336 89.8201 43.7545 89.6704 43.7495 89.52Z" fill="#323232"/>
<path d="M14.2163 158.832H15.4483C15.4483 157.488 16.9323 157.054 18.1083 157.054C19.4103 157.054 20.6843 157.558 20.6843 158.986C20.6843 160.4 19.0883 160.806 18.0383 160.806C16.1763 160.806 14.1603 161.436 14.1603 163.634V166H21.8603V164.838H15.3923V163.634C15.3923 162.248 16.8903 161.94 18.0523 161.94C19.9423 161.94 21.9023 161.198 21.9023 158.972C21.9023 156.774 19.9283 156.004 18.1083 156.004C16.3303 156.004 14.3003 156.648 14.2163 158.832ZM25.0216 160.232V156.2H23.9016V166H25.0496V162.332C25.0496 161.072 25.8336 160.022 27.1216 160.022C28.3816 160.022 28.9836 160.792 28.9836 162.136V166H30.1316V162.136C30.1316 160.232 29.2496 158.93 27.3036 158.93C26.4076 158.944 25.6376 159.322 25.0216 160.232ZM42.6112 156.186L42.5972 156.2H41.4492V160.344C40.9592 159.406 39.8392 158.93 38.8732 158.93C36.8992 158.93 35.3732 160.218 35.3732 162.542C35.3732 164.908 36.8992 166.168 38.8732 166.168C39.8952 166.168 40.9032 165.678 41.4632 164.726L41.5192 166H42.6112V156.186ZM38.9432 160.008C40.3292 160.008 41.4072 161.03 41.4072 162.514C41.4072 164.026 40.3432 165.076 38.9572 165.076C37.6132 165.076 36.5072 164.222 36.5072 162.528C36.5072 160.904 37.6132 160.008 38.9432 160.008ZM45.0992 156.186L44.4412 158.916H45.3792L46.3452 156.186H45.0992ZM53.235 166H54.369V159.084H53.249L53.235 160.344C52.703 159.364 51.765 158.93 50.673 158.93C48.713 158.93 47.117 160.204 47.117 162.542C47.117 164.796 48.671 166.168 50.659 166.168C51.611 166.168 52.661 165.72 53.207 164.782L53.235 166ZM50.715 160.022C52.395 160.022 53.235 161.282 53.235 162.556C53.235 163.844 52.395 165.118 50.715 165.118C49.343 165.118 48.223 164.11 48.223 162.584C48.223 160.96 49.343 160.022 50.715 160.022ZM56.6187 159.098V169.276H57.7387V164.768C58.3127 165.72 59.3767 166.168 60.3567 166.168C62.4147 166.168 63.7587 164.754 63.7587 162.556C63.7587 160.358 62.3867 158.986 60.4127 158.93C59.3067 158.93 58.3267 159.504 57.7807 160.442L57.7107 159.098H56.6187ZM60.2867 165.09C58.8867 165.09 57.8787 164.012 57.8787 162.584C57.8787 161.17 58.8447 160.064 60.2867 160.064C61.6867 160.064 62.6107 160.96 62.6107 162.584C62.6107 164.152 61.6727 165.09 60.2867 165.09ZM65.5464 159.098V169.276H66.6664V164.768C67.2404 165.72 68.3044 166.168 69.2844 166.168C71.3424 166.168 72.6864 164.754 72.6864 162.556C72.6864 160.358 71.3144 158.986 69.3404 158.93C68.2344 158.93 67.2544 159.504 66.7084 160.442L66.6384 159.098H65.5464ZM69.2144 165.09C67.8144 165.09 66.8064 164.012 66.8064 162.584C66.8064 161.17 67.7724 160.064 69.2144 160.064C70.6144 160.064 71.5384 160.96 71.5384 162.584C71.5384 164.152 70.6004 165.09 69.2144 165.09ZM80.5362 164.936H80.5502L79.7662 164.25C79.3182 164.81 78.3382 165.104 77.5682 165.104C76.2522 165.104 75.1742 164.278 75.0482 162.934H80.9422C80.9562 162.738 80.9702 162.542 80.9702 162.36C80.9702 160.008 79.4442 158.93 77.4842 158.93C75.3982 158.93 73.9002 160.428 73.9002 162.514C73.9002 164.768 75.3982 166.168 77.5402 166.168C78.6182 166.168 79.8082 165.776 80.5362 164.936ZM79.8362 161.982H75.0482C75.2722 160.638 76.3082 159.966 77.5122 159.966C78.8702 159.966 79.7942 160.652 79.8362 161.982ZM83.7553 166V156.2H82.6213V166H83.7553ZM90.3933 160.624L91.0653 159.854C90.3233 159.196 89.4833 158.93 88.4473 158.93C87.0893 158.93 85.6333 159.476 85.6333 160.96C85.6333 162.402 87.0613 162.794 88.3913 162.934C89.4553 163.06 90.2533 163.312 90.2533 164.054C90.2113 164.894 89.2733 165.118 88.5033 165.118C87.6633 165.118 86.6553 164.88 86.0533 164.11L85.3673 164.88C86.1373 165.888 87.3273 166.168 88.4893 166.168C90.0573 166.168 91.3733 165.482 91.3733 164.04C91.3733 162.388 89.7073 162.136 88.4753 161.982C87.6213 161.87 86.7393 161.688 86.7393 160.96C86.7393 160.274 87.4953 159.952 88.4613 159.952C89.1613 159.952 89.7913 160.078 90.3933 160.624ZM93.2916 166.014L93.2776 166.042L92.9276 167.302H93.6836C93.9496 166.406 94.3136 165.552 94.3136 165.426C94.3136 164.936 93.9216 164.67 93.5436 164.67C93.1656 164.67 92.8016 164.908 92.8016 165.398C92.8016 165.734 93.0116 165.944 93.2916 166.014ZM106.285 158.384L107.209 157.81C106.327 156.368 104.899 156.004 103.485 156.004C101.833 156.004 99.7332 156.76 99.7332 158.692C99.7332 160.736 101.567 161.156 103.471 161.45C104.941 161.674 106.299 162.024 106.299 163.228C106.299 164.684 104.703 165.076 103.513 165.076C102.169 165.076 101.007 164.544 100.349 163.34L99.3832 163.942C100.139 165.608 101.861 166.196 103.499 166.196C105.361 166.196 107.489 165.454 107.489 163.242C107.489 161.128 105.543 160.666 103.597 160.372C102.155 160.148 100.937 159.812 100.937 158.734C100.937 157.628 102.267 157.096 103.513 157.096C104.619 157.11 105.725 157.53 106.285 158.384ZM114.434 162.92L117.99 157.95V166H119.194V156.2H117.738L114.322 161.24L110.892 156.2H109.422V166H110.64V157.922L114.182 162.92H114.434ZM127.969 158.384L128.893 157.81C128.011 156.368 126.583 156.004 125.169 156.004C123.517 156.004 121.417 156.76 121.417 158.692C121.417 160.736 123.251 161.156 125.155 161.45C126.625 161.674 127.983 162.024 127.983 163.228C127.983 164.684 126.387 165.076 125.197 165.076C123.853 165.076 122.691 164.544 122.033 163.34L121.067 163.942C121.823 165.608 123.545 166.196 125.183 166.196C127.045 166.196 129.173 165.454 129.173 163.242C129.173 161.128 127.227 160.666 125.281 160.372C123.839 160.148 122.621 159.812 122.621 158.734C122.621 157.628 123.951 157.096 125.197 157.096C126.303 157.11 127.409 157.53 127.969 158.384ZM140.175 158.65V158.664H141.323C141.323 156.62 139.629 156.102 137.977 156.102C135.947 156.102 134.393 157.068 134.393 158.86C134.393 159.784 135.009 160.708 135.975 160.988C135.023 161.338 134.211 162.164 134.211 163.214C134.211 165.258 135.667 166.126 137.949 166.126C138.971 166.126 140.105 165.916 140.791 164.81C141.057 165.748 141.743 166.07 142.541 166.014V164.908C141.701 164.908 141.477 164.166 141.477 163.284V161.478H142.331V160.484H137.977C137.039 160.484 135.583 160.12 135.583 158.818C135.583 157.964 136.283 157.11 137.949 157.11C139.125 157.11 140.175 157.404 140.175 158.65ZM137.893 161.464H140.357V163.256C140.357 164.6 138.831 165.048 137.921 165.048C136.381 165.048 135.401 164.376 135.401 163.2C135.401 162.388 136.227 161.464 137.893 161.464ZM153.098 162.92L156.654 157.95V166H157.858V156.2H156.402L152.986 161.24L149.556 156.2H148.086V166H149.304V157.922L152.846 162.92H153.098ZM165.485 162.92L169.041 157.95V166H170.245V156.2H168.789L165.373 161.24L161.943 156.2H160.473V166H161.691V157.922L165.233 162.92H165.485ZM179.02 158.384L179.944 157.81C179.062 156.368 177.634 156.004 176.22 156.004C174.568 156.004 172.468 156.76 172.468 158.692C172.468 160.736 174.302 161.156 176.206 161.45C177.676 161.674 179.034 162.024 179.034 163.228C179.034 164.684 177.438 165.076 176.248 165.076C174.904 165.076 173.742 164.544 173.084 163.34L172.118 163.942C172.874 165.608 174.596 166.196 176.234 166.196C178.096 166.196 180.224 165.454 180.224 163.242C180.224 161.128 178.278 160.666 176.332 160.372C174.89 160.148 173.672 159.812 173.672 158.734C173.672 157.628 175.002 157.096 176.248 157.096C177.354 157.11 178.46 157.53 179.02 158.384ZM185.332 156.97C185.332 157.474 185.696 157.712 186.088 157.712C186.452 157.712 186.858 157.488 186.858 156.984C186.858 156.48 186.452 156.228 186.088 156.228C185.696 156.228 185.332 156.48 185.332 156.97ZM185.5 159.098V166H186.648V159.098H185.5ZM189.986 166V156.2H188.852V166H189.986ZM193.404 166V156.2H192.27V166H193.404ZM195.436 156.97C195.436 157.474 195.8 157.712 196.192 157.712C196.556 157.712 196.962 157.488 196.962 156.984C196.962 156.48 196.556 156.228 196.192 156.228C195.8 156.228 195.436 156.48 195.436 156.97ZM195.604 159.098V166H196.752V159.098H195.604ZM199.949 159.098H198.871V166H200.019V162.08C200.019 160.96 200.761 160.008 201.909 160.008C203.043 160.008 203.757 160.918 203.757 162.038V166H204.905V162.038C204.905 160.918 205.675 160.008 206.795 160.008C207.929 160.008 208.587 160.876 208.587 162.01V166H209.749V162.01C209.749 160.106 208.657 158.93 206.823 158.93C205.843 158.93 204.891 159.378 204.373 160.442C203.981 159.336 203.015 158.93 202.063 158.93C201.279 158.93 200.453 159.28 200.019 160.106L199.949 159.098ZM211.596 156.97C211.596 157.474 211.96 157.712 212.352 157.712C212.716 157.712 213.122 157.488 213.122 156.984C213.122 156.48 212.716 156.228 212.352 156.228C211.96 156.228 211.596 156.48 211.596 156.97ZM211.764 159.098V166H212.912V159.098H211.764ZM216.991 159.056V157.068L215.829 157.194V159.056H214.443V160.036H215.829V163.816C215.829 165.3 216.487 166.168 217.915 166.168C218.419 166.168 218.881 166.056 219.357 165.832L219.021 164.88C218.699 165.034 218.377 165.146 218.069 165.146C217.229 165.146 216.977 164.628 216.977 163.816V160.036H219.119V159.056H216.991ZM222.99 157.908V157.992H224.04L225.454 156.186V156.144H224.026L222.99 157.908ZM226.798 164.936H226.812L226.028 164.25C225.58 164.81 224.6 165.104 223.83 165.104C222.514 165.104 221.436 164.278 221.31 162.934H227.204C227.218 162.738 227.232 162.542 227.232 162.36C227.232 160.008 225.706 158.93 223.746 158.93C221.66 158.93 220.162 160.428 220.162 162.514C220.162 164.768 221.66 166.168 223.802 166.168C224.88 166.168 226.07 165.776 226.798 164.936ZM226.098 161.982H221.31C221.534 160.638 222.57 159.966 223.774 159.966C225.132 159.966 226.056 160.652 226.098 161.982ZM233.223 160.624L233.895 159.854C233.153 159.196 232.313 158.93 231.277 158.93C229.919 158.93 228.463 159.476 228.463 160.96C228.463 162.402 229.891 162.794 231.221 162.934C232.285 163.06 233.083 163.312 233.083 164.054C233.041 164.894 232.103 165.118 231.333 165.118C230.493 165.118 229.485 164.88 228.883 164.11L228.197 164.88C228.967 165.888 230.157 166.168 231.319 166.168C232.887 166.168 234.203 165.482 234.203 164.04C234.203 162.388 232.537 162.136 231.305 161.982C230.451 161.87 229.569 161.688 229.569 160.96C229.569 160.274 230.325 159.952 231.291 159.952C231.991 159.952 232.621 160.078 233.223 160.624Z" fill="black"/>
</svg>
