<svg width="24" height="25" viewBox="0 0 24 25" fill="none" xmlns="http://www.w3.org/2000/svg">
<path fill-rule="evenodd" clip-rule="evenodd" d="M7 3.50903H14.5H15L15.5 4.00903L17 5.50903L18.5 7.00903L19 7.50903V8.00903V15.509H18V8.00903H15H14.5V7.50903V4.50903H7C6.44772 4.50903 6 4.95675 6 5.50903V19.509C6 20.0613 6.44771 20.509 7 20.509H9V21.509H7C5.89543 21.509 5 20.6136 5 19.509V5.50903C5 4.40446 5.89543 3.50903 7 3.50903ZM16.2929 6.21614L17.0858 7.00903H15.5V5.42325L16.2929 6.21614Z" fill="#323232"/>
<path fill-rule="evenodd" clip-rule="evenodd" d="M11 17.4709H11.5H12.6993C13.4003 17.4709 13.9685 18.0392 13.9685 18.7402C13.9685 19.4412 13.4003 20.0094 12.6993 20.0094H12V21.0479V21.5479H11V21.0479V20.0094V19.0094V17.9709V17.4709ZM12 19.0094H12.6993C12.848 19.0094 12.9685 18.8889 12.9685 18.7402C12.9685 18.5915 12.848 18.4709 12.6993 18.4709H12V19.0094ZM14.4448 17.4709H14.9448H15.9134C16.7418 17.4709 17.4134 18.1425 17.4134 18.9709V20.0479C17.4134 20.8763 16.7418 21.5479 15.9134 21.5479H14.9448H14.4448V21.0479V17.9709V17.4709ZM15.4448 18.4709V20.5479H15.9134C16.1895 20.5479 16.4134 20.3241 16.4134 20.0479V18.9709C16.4134 18.6948 16.1895 18.4709 15.9134 18.4709H15.4448ZM18.5 17.4709H18V17.9709V19.0094V20.0094V21.0479V21.5479H19V21.0479V20.0094H19.9764H20.4764V19.0094H19.9764H19V18.4709H20.4685H20.9685V17.4709H20.4685H18.5Z" fill="#323232"/>
<path d="M7.2001 17.3071C6.64955 16.7391 7.24521 15.9585 8.86175 15.1297L9.8789 14.6082L10.2752 13.7137C10.4931 13.2218 10.8184 12.419 10.998 11.9299L11.3246 11.0405L11.0995 10.3824C10.8228 9.57307 10.7241 8.35693 10.8997 7.91963C11.1375 7.32729 11.9165 7.38807 12.2249 8.02302C12.4657 8.51891 12.4411 9.41696 12.1556 10.5495L11.9216 11.478L12.1277 11.8391C12.2411 12.0377 12.5723 12.5093 12.8638 12.887L13.4115 13.59L14.0931 13.4982C16.2584 13.2067 17 13.7021 17 14.4125C17 15.309 15.2998 15.383 13.8721 14.3485C13.5508 14.1157 13.3302 13.8844 13.3302 13.8844C13.3302 13.8844 12.4358 14.0723 11.9954 14.1948C11.5408 14.3212 11.3141 14.4003 10.6482 14.6322C10.6482 14.6322 10.4146 14.9822 10.2623 15.2367C9.69596 16.1834 9.03464 16.968 8.56236 17.2535C8.03357 17.5732 7.47922 17.595 7.2001 17.3071ZM8.06411 16.9886C8.37359 16.7913 8.99998 16.027 9.43358 15.3176L9.60913 15.0304L8.80978 15.445C7.57519 16.0854 7.01039 16.689 7.30409 17.0541C7.46907 17.2592 7.66644 17.2422 8.06411 16.9886ZM16.0835 14.6663C16.3862 14.4475 16.3422 14.0068 16 13.829C15.7337 13.6907 15.519 13.6623 14.8272 13.6728C14.402 13.7028 13.7184 13.7911 13.6025 13.818C13.6025 13.818 13.9781 14.0858 14.1448 14.1843C14.3668 14.3151 14.9062 14.5579 15.3 14.6822C15.6885 14.8049 15.9132 14.792 16.0835 14.6663V14.6663ZM12.859 13.2836C12.6758 13.085 12.3643 12.6703 12.1668 12.3622C11.9084 12.0126 11.7789 11.766 11.7789 11.766C11.7789 11.766 11.5901 12.3926 11.4351 12.7697L10.9518 14.0021L10.8117 14.2817C10.8117 14.2817 11.5567 14.0297 11.9357 13.9275C12.3371 13.8194 13.1519 13.6541 13.1519 13.6541L12.859 13.2836ZM11.8199 8.98439C11.8666 8.57984 11.8864 8.17589 11.7604 7.97219C11.411 7.57807 10.9892 7.90673 11.0606 8.84375C11.0847 9.15896 11.1606 9.69782 11.2621 10.0299L11.4466 10.6338L11.5764 10.179C11.6478 9.92885 11.7574 9.39128 11.8199 8.98439Z" fill="#323232"/>
</svg>
