<svg width="100" height="100" viewBox="0 0 100 100" fill="none" xmlns="http://www.w3.org/2000/svg">
<g clip-path="url(#clip0_631_12805)">
<path d="M30.1249 80.9588C27.1249 80.9588 24.2083 79.9588 21.7916 78.1671C19.3749 76.3338 17.6666 73.7921 16.8333 70.9171L16.6666 70.3338L11.9583 50.1255C10.9166 49.7921 9.99992 49.1255 9.33325 48.2505C8.66659 47.3755 8.33325 46.2921 8.33325 45.2088V36.5838C8.33325 35.2088 8.87492 33.9171 9.83325 32.9171C10.7916 31.9588 12.1249 31.4171 13.4999 31.4171H25.2916L17.1666 26.4171C16.2916 25.8755 15.6666 25.0005 15.4166 24.0005C15.1666 23.0005 15.3333 21.9171 15.8749 21.0421L17.4166 18.5421C17.6666 18.0838 18.0416 17.7088 18.4583 17.4171C18.8749 17.1255 19.3333 16.9171 19.8333 16.7921C20.3333 16.6671 20.8749 16.6671 21.3749 16.7505C21.8749 16.8338 22.3749 17.0005 22.7916 17.2921L45.9582 31.4588H89.1249C90.4999 31.4588 91.7916 32.0005 92.7916 32.9588C93.7499 33.9171 94.2916 35.2505 94.2916 36.6255V45.2505C94.2916 46.3755 93.9166 47.5005 93.2083 48.4171C92.4999 49.3338 91.5416 49.9588 90.4166 50.2505L85.7499 70.3338C85.0416 73.2505 83.4166 75.8755 81.1249 77.7921C78.7916 79.7088 75.9166 80.8338 72.9166 80.9588H30.1249ZM20.8333 69.1255C21.2916 71.1671 22.4166 73.0005 23.9583 74.3338C25.5416 75.7088 27.4999 76.5421 29.5416 76.7505H71.9999C74.1666 76.7505 76.2499 76.0838 77.9582 74.7921C79.6666 73.5005 80.9166 71.6671 81.5416 69.5838L81.6666 69.1255L86.0416 50.3755H16.3749L20.8333 69.1255ZM12.4999 37.5838V44.2088C12.4999 44.7505 12.7083 45.2505 13.0833 45.6255C13.4583 46.0005 13.9583 46.2088 14.4999 46.2088H88.0832C88.6249 46.2088 89.1249 46.0005 89.4999 45.6255C89.8749 45.2505 90.0833 44.7505 90.0833 44.2088V37.5838C90.0833 37.0421 89.8749 36.5421 89.4999 36.1671C89.1249 35.7921 88.6249 35.5838 88.0832 35.5838H50.8332L54.1666 37.6255C54.8749 38.0838 55.4166 38.7921 55.6249 39.6255C55.8333 40.4588 55.6666 41.3338 55.2499 42.0421L54.0832 43.9588C53.7916 44.4171 53.3749 44.8338 52.9166 45.0838C52.4166 45.3338 51.8749 45.5005 51.3332 45.5005C50.7499 45.5005 50.1666 45.3338 49.6249 45.0005L34.1666 35.5838H14.4999C13.9583 35.5838 13.4583 35.7921 13.0833 36.1671C12.7083 36.5421 12.4999 37.0421 12.4999 37.5838ZM19.5833 19.8755L18.0416 22.3755C17.8749 22.6671 17.7916 23.0421 17.8749 23.3755C17.9583 23.7088 18.1666 24.0421 18.4583 24.2088L50.4999 43.8338C50.7082 43.9588 50.9583 44.0421 51.2083 44.0421C51.4583 44.0421 51.6666 44.0005 51.8749 43.8755C52.0832 43.7505 52.2499 43.5838 52.3749 43.4171L53.9166 40.9171C54.0832 40.6255 54.1666 40.2505 54.0832 39.9171C53.9999 39.5838 53.7916 39.2505 53.4999 39.0838L21.4583 19.4588C21.1666 19.2921 20.7916 19.2088 20.4583 19.2921C20.1249 19.3755 19.7916 19.5838 19.6249 19.8755H19.5833ZM51.2083 73.4588C50.0833 73.4588 48.9999 73.0421 48.1666 72.2921C47.3333 71.5421 46.7916 70.5005 46.7083 69.3755V59.4171C46.7083 58.2505 47.2082 57.1255 48.0416 56.2921C48.8749 55.4588 50.0416 55.0005 51.2083 55.0005H51.3332C52.4166 55.0005 53.4999 55.4588 54.2916 56.2088C55.0832 56.9588 55.5832 57.9588 55.7082 59.0838V68.7505C55.7499 69.3338 55.6666 69.9588 55.4583 70.5005C55.2499 71.0421 54.9166 71.5838 54.4999 72.0005C54.0832 72.4171 53.5832 72.7921 53.0416 73.0421C52.4999 73.2921 51.9166 73.4171 51.3332 73.4171H51.2083V73.4588ZM50.9999 57.6255C50.5832 57.6671 50.1666 57.8338 49.8749 58.1255C49.5833 58.4171 49.3333 58.7921 49.2916 59.2088V68.9588C49.2916 69.4588 49.4999 69.9588 49.8749 70.3338C50.2499 70.7088 50.7499 70.8755 51.2499 70.8755H51.2916C51.7499 70.8755 52.2082 70.6671 52.5832 70.3338C52.9166 70.0005 53.1666 69.5421 53.2083 69.0838V59.5005C53.2083 59.0005 52.9999 58.5421 52.6249 58.1671C52.2499 57.7921 51.7916 57.6255 51.2916 57.5838H51.0416L50.9999 57.6255ZM67.3332 73.1255C66.2082 72.8755 65.2499 72.2505 64.5832 71.3338C63.9166 70.4171 63.6249 69.2505 63.7499 68.1255V67.7505L63.9166 67.4588L67.9999 58.5421V58.3338C68.3332 57.4171 68.9166 56.6255 69.7082 56.0421C70.4999 55.4588 71.4166 55.1671 72.3749 55.1671H72.9999L73.3749 55.2921C74.4582 55.5421 75.4166 56.1671 76.0416 57.0838C76.6666 58.0005 76.9999 59.0838 76.8749 60.1671V60.5421L76.7083 60.8338L72.6249 69.7088V69.9171C72.2916 70.7921 71.7916 71.5421 71.0833 72.1255C70.3749 72.7088 69.5416 73.0421 68.6249 73.1255H68.2082C67.9166 73.1255 67.6249 73.1255 67.2916 73.0421L67.3332 73.1255ZM70.6249 58.8338L70.4999 59.0838L70.4166 59.3338L70.3333 59.5838L66.2916 68.4171V68.5838C66.2916 69.0005 66.3749 69.4171 66.6249 69.7921C66.8749 70.1671 67.2082 70.4171 67.6249 70.5838L67.8749 70.6671C67.8749 70.6671 68.1666 70.6671 68.2916 70.7088C68.7083 70.7088 69.0832 70.5838 69.4166 70.3338C69.7499 70.0838 69.9999 69.7921 70.1249 69.3755L70.2083 69.1255L70.2916 68.8338L74.3333 60.0421V59.9171C74.3333 59.5005 74.2499 59.0838 73.9999 58.7505C73.7499 58.4171 73.4166 58.1255 73.0416 58.0005L72.7916 57.9171C72.7916 57.9171 72.4999 57.8755 72.3749 57.8755C71.9999 57.8755 71.6666 57.9588 71.3332 58.1255C71.0416 58.2921 70.7499 58.5838 70.5832 58.8755L70.6249 58.8338ZM29.8333 70.0005V69.7921L25.7083 60.9171L25.6249 60.6255C25.4166 59.4588 25.6666 58.2088 26.3333 57.2505C26.9999 56.2505 28.0416 55.5838 29.2499 55.3755C29.5416 55.3338 29.7916 55.2921 30.0833 55.2921C31.0416 55.2921 31.9999 55.5838 32.7499 56.1671C33.5416 56.7505 34.0833 57.5421 34.3749 58.4588V58.6671L38.4999 67.5838L38.5833 67.8755C38.8333 69.0005 38.5833 70.2088 37.9583 71.2088C37.3333 72.2088 36.3749 72.9171 35.2083 73.1671C34.0833 73.4588 32.8749 73.2921 31.8749 72.7088C30.8749 72.1255 30.1249 71.1671 29.7916 70.0838L29.8333 70.0005ZM29.7083 57.8755C29.2499 57.9588 28.8333 58.2088 28.5416 58.5838C28.2499 58.9588 28.0833 59.4171 28.1249 59.8755V60.0005L32.1666 68.7921L32.2499 69.0838C32.3333 69.5421 32.5833 69.9171 32.9166 70.2088C33.2499 70.5005 33.7083 70.6671 34.1666 70.6671C34.2916 70.6671 34.4583 70.6671 34.5833 70.6671C35.0416 70.5838 35.4583 70.2921 35.7499 69.9171C36.0416 69.5421 36.1666 69.0838 36.1666 68.6255V68.4588L32.0833 59.6671L31.9999 59.4171C31.9166 59.0005 31.7083 58.6255 31.3749 58.3755C31.0416 58.0838 30.6666 57.9588 30.2499 57.9171H29.7499L29.7083 57.8755ZM48.5416 40.4171C48.5416 40.0421 48.6666 39.7088 48.8333 39.4171C49.0416 39.1255 49.3333 38.8755 49.6666 38.7505C49.9999 38.6255 50.3749 38.5838 50.7083 38.6671C51.0416 38.7505 51.3749 38.9171 51.6249 39.1671C51.8749 39.4171 52.0416 39.7505 52.1249 40.0838C52.2083 40.4171 52.1249 40.7921 51.9999 41.1255C51.8749 41.4588 51.6249 41.7505 51.3332 41.9588C51.0416 42.1671 50.6666 42.2505 50.3332 42.2505C49.8333 42.2505 49.3749 42.0421 49.0416 41.7088C48.7083 41.3755 48.4999 40.9171 48.4999 40.4171H48.5416Z" fill="#323232"/>
</g>
<path d="M64.3315 14.3306L73.1704 23.1694M64.3315 23.1694L73.1704 14.3306" stroke="#323232" stroke-width="2" stroke-linecap="round"/>
<path d="M47.0544 22.0537L52.947 27.9463M47.0544 27.9463L52.947 22.0537" stroke="#323232" stroke-width="1.5" stroke-linecap="round"/>
<path d="M54.7771 8.94385L57.7234 11.8901M54.7771 11.8901L57.7234 8.94385" stroke="#323232" stroke-linecap="round"/>
<path d="M83.6387 25.3054L85.1118 26.7786M83.6387 26.7786L85.1118 25.3054" stroke="#323232" stroke-width="0.7" stroke-linecap="round"/>
<defs>
<clipPath id="clip0_631_12805">
<rect width="85.9167" height="64.2917" fill="white" transform="translate(8.33325 16.667)"/>
</clipPath>
</defs>
</svg>
