<svg viewBox="0 0 95.46 95.57" xmlns="http://www.w3.org/2000/svg"><path d="m47.79 0a47.79 47.79 0 1 0 21 90.72 13.5 13.5 0 0 1 -3.39-22 14.34 14.34 0 0 1 -.23-6.4 14.55 14.55 0 0 1 17-11.55c.48.09 1 .21 1.42.34a13.53 13.53 0 0 1 11.87-6.41 47.78 47.78 0 0 0 -47.67-44.7zm-33.17 55a3.55 3.55 0 1 1 3.55-3.55 3.54 3.54 0 0 1 -3.55 3.55zm16.64-26.77a6.68 6.68 0 1 1 5.84-7.43 6.67 6.67 0 0 1 -5.84 7.43zm12.93 56.45a7.32 7.32 0 1 1 6.39-8.14 7.32 7.32 0 0 1 -6.39 8.14zm4.24-36.83a5.91 5.91 0 1 1 5.17-6.57 5.92 5.92 0 0 1 -5.17 6.57zm12.2-21.32a5 5 0 1 1 4.37-5.53 5 5 0 0 1 -4.37 5.53z" fill="#fff"/></svg>