<svg width="100" height="100" viewBox="0 0 100 100" fill="none" xmlns="http://www.w3.org/2000/svg">
<path d="M68.9917 90.3792H25V18.1584C25.0077 15.8836 25.9159 13.7045 27.526 12.0976C29.136 10.4906 31.3169 9.58667 33.5917 9.58337H61.0917L77.5833 28.4209V81.7875C77.5811 84.0655 76.6752 86.2495 75.0645 87.8603C73.4537 89.4711 71.2696 90.377 68.9917 90.3792ZM59.2333 73.7125V79.075H64.4625V73.7125H59.2333ZM47.3958 73.7125V79.075H55.0333V73.7125H47.3958ZM38.15 73.7125V79.075H43.3917V73.7125H38.15ZM38.15 61.075V69.4917H64.4625V61.075H38.15ZM47.5917 49.1292V56.875H55.0208V49.1292H47.5917ZM38.1625 49.1292V56.8709H44.1667V49.1292H38.1625ZM58.8458 49.1292V56.8625H64.8542V55.0667C64.8073 53.4946 64.1571 52.0009 63.0384 50.8954C61.9197 49.7899 60.4184 49.1574 58.8458 49.1292Z" fill="#E4E4E4"/>
</svg>
