<svg width="51" height="82" viewBox="0 0 51 82" fill="none" xmlns="http://www.w3.org/2000/svg">
<path d="M42.5458 81.2417H9.28074e-07V10.0709C-0.000546681 8.84122 0.241248 7.62351 0.711564 6.48735C1.18188 5.3512 1.8715 4.31886 2.74099 3.44937C3.61049 2.57987 4.64282 1.89025 5.77898 1.41994C6.91514 0.949622 8.13285 0.707827 9.3625 0.708375H50.7333V73.0542C50.7339 74.1296 50.5225 75.1945 50.1112 76.1881C49.7 77.1817 49.0969 78.0845 48.3365 78.8449C47.5761 79.6053 46.6733 80.2083 45.6797 80.6196C44.6861 81.0309 43.6212 81.2422 42.5458 81.2417ZM25.3667 61.625C24.2558 61.625 23.1699 61.9545 22.2462 62.5716C21.3226 63.1888 20.6027 64.066 20.1775 65.0923C19.7524 66.1186 19.6412 67.2479 19.8579 68.3375C20.0746 69.427 20.6096 70.4278 21.3951 71.2133C22.1806 71.9988 23.1814 72.5337 24.2709 72.7505C25.3604 72.9672 26.4898 72.8559 27.5161 72.4308C28.5424 72.0057 29.4196 71.2858 30.0368 70.3622C30.6539 69.4385 30.9833 68.3526 30.9833 67.2417C30.9822 65.7524 30.3901 64.3244 29.337 63.2713C28.2839 62.2183 26.856 61.6261 25.3667 61.625Z" fill="#E4E4E4"/>
</svg>
