<svg width="24" height="24" viewBox="0 0 24 24" fill="none" xmlns="http://www.w3.org/2000/svg">
<path fill-rule="evenodd" clip-rule="evenodd" d="M14.0462 4H8C7.44772 4 7 4.44772 7 5V20H17V7.37574L14.0462 4ZM14.5 3H8C6.89543 3 6 3.89543 6 5V21H18V7L14.5 3Z" fill="#323232"/>
<path fill-rule="evenodd" clip-rule="evenodd" d="M9 12H14V14.5H13V15.5H14V18H9V15.5L10 15.5V14.5H9V12ZM14 11H9C8.44772 11 8 11.4477 8 12V19H15V12C15 11.4477 14.5523 11 14 11ZM13.5 17.5V16H12.5V17.5H13.5ZM12.5 12.5V14H13.5V12.5L12.5 12.5ZM12 17.5V16H11V17.5H12ZM12 14V12.5H11V14H12ZM9.5 12.5L9.5 14H10.5V12.5L9.5 12.5ZM10.5 17.5V16H9.5L9.5 17.5H10.5Z" fill="#323232"/>
</svg>
