<svg width="24" height="24" viewBox="0 0 24 24" fill="none" xmlns="http://www.w3.org/2000/svg">
<path fill-rule="evenodd" clip-rule="evenodd" d="M20.904 14.3182L12.9031 6.31735L8.38622 7.51263C8.0387 7.60459 7.76728 7.87601 7.67531 8.22354L6.48003 12.7405L14.4809 20.7413L20.904 14.3182ZM13.6102 5.61024C13.3584 5.3584 12.9916 5.25951 12.6473 5.35062L8.1304 6.54591C7.43536 6.72983 6.89252 7.27267 6.70859 7.96772L5.51331 12.4846C5.4222 12.8289 5.52109 13.1957 5.77293 13.4476L13.7738 21.4484C14.1643 21.839 14.7975 21.839 15.188 21.4484L21.6111 15.0253C22.0016 14.6348 22.0016 14.0016 21.6111 13.6111L13.6102 5.61024Z" fill="#323232"/>
<path fill-rule="evenodd" clip-rule="evenodd" d="M17.7588 13.3615C17.7978 13.6348 17.6079 13.8881 17.3345 13.9272L11.6364 14.7412C11.363 14.7802 11.1098 14.5903 11.0707 14.3169C11.0317 14.0435 11.2216 13.7903 11.495 13.7512L17.1931 12.9372C17.4664 12.8982 17.7197 13.0881 17.7588 13.3615Z" fill="#323232"/>
<circle cx="14.3442" cy="16.6883" r="1.01339" transform="rotate(45 14.3442 16.6883)" fill="#323232"/>
<circle cx="14.8218" cy="11.4332" r="1.01339" transform="rotate(45 14.8218 11.4332)" fill="#323232"/>
<path fill-rule="evenodd" clip-rule="evenodd" d="M5.78741 5.48364C6.89931 5.72364 8.15465 6.48737 9.50285 7.83549C9.69812 8.03075 9.69813 8.34733 9.50287 8.5426C9.30761 8.73787 8.99103 8.73788 8.79576 8.54262C7.51754 7.26446 6.4263 6.64457 5.57642 6.46113C4.75427 6.28367 4.15408 6.50884 3.74144 6.96974C3.30679 7.45524 3.02647 8.26533 3.02518 9.33376C3.02389 10.3939 3.29918 11.6636 3.91944 13.0059C4.03527 13.2566 3.92596 13.5537 3.67528 13.6695C3.42461 13.7854 3.1275 13.6761 3.01167 13.4254C2.34033 11.9725 2.02369 10.5597 2.02518 9.33255C2.02666 8.11368 2.34382 7.03165 2.9964 6.30273C3.67099 5.54922 4.64778 5.23765 5.78741 5.48364Z" fill="#FFCB05"/>
</svg>
