<svg width="24" height="24" viewBox="0 0 24 24" fill="none" xmlns="http://www.w3.org/2000/svg">
<path fill-rule="evenodd" clip-rule="evenodd" d="M8.65294 7.86654L8.65287 7.86661C6.79238 9.72709 6.06694 11.4133 6.00451 12.8203C5.94262 14.2151 6.52444 15.5064 7.63064 16.6126C8.73681 17.7188 10.0279 18.3004 11.4226 18.2384C12.8296 18.1758 14.5158 17.4502 16.3767 15.5896C18.1266 13.8401 19.1242 10.7799 19.6646 7.97635C19.9292 6.604 20.0743 5.3484 20.1532 4.43554C20.1647 4.30261 20.1747 4.1771 20.1835 4.05972C20.0661 4.06853 19.9406 4.07859 19.8076 4.09008C18.8947 4.16892 17.639 4.31409 16.2665 4.57864C13.4628 5.11909 10.4024 6.11673 8.65294 7.86654ZM20.2412 3.05284C17.7237 3.23164 11.1095 3.99516 7.94576 7.1595C3.99176 11.1135 4.39978 14.796 6.92353 17.3198C9.44728 19.8435 13.129 20.2508 17.0838 16.2968C20.2481 13.133 21.0116 6.51936 21.1904 4.00202C21.2351 3.37321 21.2432 3 21.2432 3C21.2432 3 20.87 3.00818 20.2412 3.05284Z" fill="#323232"/>
<path fill-rule="evenodd" clip-rule="evenodd" d="M6.70715 18L4.43939 20.2678C4.24412 20.463 3.92754 20.463 3.73228 20.2678C3.53702 20.0725 3.53702 19.7559 3.73228 19.5607L6.00005 17.2929L6.70715 18Z" fill="#323232"/>
<path fill-rule="evenodd" clip-rule="evenodd" d="M17.8536 6.14645C18.0488 6.34171 18.0488 6.65829 17.8536 6.85355L15.4568 9.2503L16.9178 9.0068C17.1902 8.96141 17.4478 9.14542 17.4932 9.4178C17.5386 9.69019 17.3546 9.9478 17.0822 9.9932L14.2403 10.4669L9.35355 15.3536C9.15829 15.5488 8.84171 15.5488 8.64645 15.3536C8.45118 15.1583 8.45118 14.8417 8.64645 14.6464L10.5 12.7929V9C10.5 8.72386 10.7239 8.5 11 8.5C11.2761 8.5 11.5 8.72386 11.5 9V11.7929L17.1464 6.14645C17.3417 5.95118 17.6583 5.95118 17.8536 6.14645Z" fill="#FFCB05"/>
</svg>
