<svg width="24" height="24" viewBox="0 0 24 24" fill="none" xmlns="http://www.w3.org/2000/svg">
<path fill-rule="evenodd" clip-rule="evenodd" d="M13.2767 7.66607C12.9001 7.58524 12.5087 7.60036 12.1306 7.72578L12.13 7.72598C11.2893 8.00371 10.7016 8.77282 10.579 9.68524L12.9158 8.9143C13.1965 8.82169 13.4991 8.97417 13.5917 9.25487C13.6843 9.53557 13.5318 9.83819 13.2511 9.9308L10.6575 10.7865C10.67 10.832 10.6838 10.8775 10.6988 10.923C10.7415 11.0524 10.7921 11.176 10.85 11.2935L13.4201 10.4455C13.7008 10.3529 14.0035 10.5054 14.0961 10.7861C14.1887 11.0668 14.0362 11.3694 13.7555 11.4621L11.5544 12.1883C12.1781 12.7014 12.9995 12.8889 13.7496 12.6411L13.75 12.641C14.2185 12.4866 14.6029 12.1848 14.8773 11.79C15.035 11.563 15.3468 11.5069 15.5738 11.6646C15.8007 11.8223 15.8569 12.1341 15.6992 12.361C15.3097 12.9216 14.7522 13.3644 14.0635 13.5914C12.747 14.0263 11.3702 13.5511 10.4887 12.5399L9.58804 12.837C9.30734 12.9296 9.00471 12.7771 8.9121 12.4964C8.81949 12.2157 8.97197 11.9131 9.25267 11.8205L9.89314 11.6092C9.83893 11.4887 9.79049 11.3643 9.7483 11.2363C9.7334 11.1911 9.71939 11.1457 9.70626 11.1003L9.08365 11.3058C8.80295 11.3984 8.50032 11.2459 8.40771 10.9652C8.3151 10.6845 8.46757 10.3819 8.74828 10.2893L9.55648 10.0226C9.56588 8.57785 10.4105 7.24018 11.8158 6.77579C12.3707 6.59176 12.9437 6.57102 13.4867 6.68755C13.7569 6.74555 13.9289 7.01161 13.8709 7.28182C13.8129 7.55203 13.5469 7.72406 13.2767 7.66607Z" fill="#323232"/>
<path fill-rule="evenodd" clip-rule="evenodd" d="M17.5 20V17H18.5V20H17.5Z" fill="#323232"/>
<path fill-rule="evenodd" clip-rule="evenodd" d="M15.5 20.5V17.5H16.5V20.5H15.5Z" fill="#323232"/>
<path fill-rule="evenodd" clip-rule="evenodd" d="M13.5 20.8V17.3H14.5V20.8H13.5Z" fill="#323232"/>
<path fill-rule="evenodd" clip-rule="evenodd" d="M3.50244 19.0389V15.8496H4.50244V18.9907C4.5056 18.994 4.50937 18.9979 4.51385 19.0023C4.56493 19.052 4.66717 19.124 4.84401 19.2073C5.19512 19.3728 5.73512 19.5349 6.44247 19.6758C7.84895 19.9559 9.81436 20.1326 12.0012 20.1326C14.188 20.1326 16.1534 19.9554 17.5599 19.675C18.2672 19.534 18.8073 19.3718 19.1585 19.2064C19.3354 19.1231 19.4377 19.0512 19.4888 19.0014C19.4932 18.9972 19.4969 18.9934 19.5 18.9901V15.8496H20.5V19.0389C20.5 19.3315 20.3489 19.5598 20.1862 19.7181C20.0243 19.8757 19.8124 20.0038 19.5846 20.1111C19.1265 20.3269 18.4954 20.5082 17.7554 20.6557C16.2672 20.9524 14.2332 21.1326 12.0012 21.1326C9.76933 21.1326 7.73536 20.9529 6.24713 20.6565C5.50714 20.5091 4.87596 20.3279 4.41772 20.1119C4.18989 20.0046 3.97792 19.8763 3.81595 19.7185C3.65319 19.5599 3.50244 19.3314 3.50244 19.0389Z" fill="#323232"/>
<path fill-rule="evenodd" clip-rule="evenodd" d="M19.0405 15.6308C18.6033 15.446 17.9426 15.2716 17.0976 15.1285L17.2645 14.1426C18.1419 14.2911 18.8895 14.4813 19.4299 14.7097C19.6981 14.8231 19.9436 14.9576 20.1301 15.1218C20.3142 15.2839 20.4975 15.5278 20.4975 15.8513C20.4975 16.1438 20.3468 16.3722 20.184 16.5308C20.0221 16.6887 19.8101 16.8169 19.5823 16.9243C19.124 17.1403 18.4928 17.3215 17.7528 17.4689C16.2646 17.7653 14.2306 17.945 11.9988 17.945C9.7668 17.945 7.73282 17.7648 6.24461 17.4681C5.50462 17.3206 4.87352 17.1393 4.41537 16.9235C4.1876 16.8162 3.97568 16.6881 3.81375 16.5305C3.65111 16.3722 3.5 16.1439 3.5 15.8513C3.5 15.5276 3.68349 15.2838 3.86769 15.1218C4.05423 14.9578 4.29972 14.8236 4.56783 14.7104C5.10807 14.4823 5.85538 14.2922 6.73243 14.1427L6.9005 15.1284C6.05512 15.2726 5.3942 15.447 4.95681 15.6317C4.76039 15.7146 4.63132 15.7905 4.55425 15.8511C4.61265 15.8969 4.7048 15.9544 4.84148 16.0188C5.19268 16.1842 5.73276 16.3464 6.44012 16.4874C7.84661 16.7678 9.81201 16.945 11.9988 16.945C14.1856 16.945 16.151 16.7683 17.5575 16.4882C18.2649 16.3473 18.8049 16.1852 19.156 16.0197C19.2933 15.955 19.3856 15.8972 19.4439 15.8512C19.3669 15.7904 19.2376 15.7141 19.0405 15.6308ZM19.511 15.787C19.5115 15.7861 19.5118 15.7856 19.5119 15.7856L19.511 15.787Z" fill="#323232"/>
<path d="M11.1991 5.35466L10.2459 5.41522C10.21 5.41747 10.1763 5.43765 10.1584 5.46905L9.66717 6.28775C9.62007 6.36625 9.50567 6.35728 9.47203 6.27205L9.11988 5.38382C9.10642 5.35018 9.07726 5.3255 9.04362 5.31653L8.11278 5.10345C8.0253 5.08326 7.99838 4.97111 8.06792 4.91279L8.80362 4.30494C8.83053 4.28251 8.84623 4.24663 8.84399 4.21074L8.75876 3.25971C8.74978 3.16999 8.85072 3.10943 8.92698 3.15653L9.73446 3.66793C9.76586 3.68812 9.80399 3.69036 9.83539 3.67691L10.7146 3.30233C10.7976 3.26644 10.8874 3.3427 10.8627 3.43018L10.6249 4.35653C10.616 4.39242 10.6249 4.42831 10.6474 4.45522L11.2754 5.17522C11.336 5.24476 11.2911 5.35018 11.1991 5.35691V5.35466Z" fill="#FFCB05"/>
<path d="M7.97164 8.66956L7.53202 8.93199C7.51632 8.94096 7.5051 8.9589 7.50286 8.97909L7.46921 9.49049C7.46697 9.53984 7.40865 9.56227 7.37276 9.53086L6.98697 9.19217C6.97351 9.17872 6.95332 9.17423 6.93314 9.17872L6.43744 9.30432C6.39033 9.31554 6.34996 9.26843 6.3679 9.22358L6.56977 8.75255C6.5765 8.7346 6.5765 8.71442 6.56529 8.69872L6.29164 8.26582C6.26473 8.22544 6.29837 8.17161 6.34772 8.1761L6.85912 8.2232C6.87931 8.2232 6.89725 8.21647 6.91071 8.20301L7.23818 7.80825C7.26959 7.77012 7.33015 7.78582 7.34136 7.83292L7.45575 8.33311C7.46024 8.35105 7.4737 8.36675 7.49164 8.37573L7.96716 8.56638C8.01202 8.58432 8.0165 8.64713 7.97613 8.6718L7.97164 8.66956Z" fill="#FFCB05"/>
<path d="M16.9885 11.7043L16.7283 10.9798C16.7193 10.9529 16.6969 10.9327 16.6677 10.9237L15.923 10.7286C15.8513 10.7106 15.8333 10.6187 15.8916 10.5738L16.4995 10.1028C16.5219 10.0848 16.5354 10.0579 16.5331 10.0288L16.4883 9.26167C16.4838 9.18765 16.5645 9.14279 16.6251 9.18316L17.2621 9.61606C17.2868 9.63176 17.3159 9.63625 17.3428 9.62503L18.0606 9.34466C18.1279 9.31774 18.1974 9.38054 18.1772 9.45232L17.9619 10.1903C17.9529 10.2172 17.9619 10.2486 17.9776 10.271L18.4643 10.8654C18.5114 10.9215 18.4711 11.0067 18.3993 11.009L17.6299 11.0336C17.6008 11.0336 17.5739 11.0493 17.5582 11.074L17.1432 11.7222C17.1028 11.7828 17.0109 11.7738 16.9862 11.7043H16.9885Z" fill="#FFCB05"/>
</svg>
