<svg width="24" height="24" viewBox="0 0 24 24" fill="none" xmlns="http://www.w3.org/2000/svg">
<path fill-rule="evenodd" clip-rule="evenodd" d="M15.5 5.875C15.1548 5.875 14.875 6.15482 14.875 6.5V8.5H14.125V6.5C14.125 5.74061 14.7406 5.125 15.5 5.125H20.5C21.2594 5.125 21.875 5.74061 21.875 6.5V17.5C21.875 18.2594 21.2594 18.875 20.5 18.875H15.5C14.7406 18.875 14.125 18.2594 14.125 17.5V15.5H14.875V17.5C14.875 17.8452 15.1548 18.125 15.5 18.125H20.5C20.8452 18.125 21.125 17.8452 21.125 17.5V6.5C21.125 6.15482 20.8452 5.875 20.5 5.875H15.5Z" fill="#323232"/>
<circle cx="18" cy="16" r="1" fill="#323232"/>
<path fill-rule="evenodd" clip-rule="evenodd" d="M8.03467 5.77778H3.5C3.08579 5.77778 2.75 6.126 2.75 6.55556V18.2222H10.25V8.40335L8.03467 5.77778ZM8.375 5H3.5C2.67157 5 2 5.69645 2 6.55556V19H11V8.11111L8.375 5Z" fill="#323232"/>
<path fill-rule="evenodd" clip-rule="evenodd" d="M4.33344 10.9999H8.22233V12.9444H7.44455V13.7222H8.22233V15.6666H4.33344V13.7222H5.11122V12.9444H4.33344V10.9999ZM8.22233 10.2222H4.33344C3.90389 10.2222 3.55566 10.5704 3.55566 10.9999V16.4444H9.00011V10.9999C9.00011 10.5704 8.65189 10.2222 8.22233 10.2222ZM7.83344 15.2777V14.1111H7.05566V15.2777H7.83344ZM7.05566 11.3888L7.05566 12.5555L7.83344 12.5555V11.3888L7.05566 11.3888ZM6.66678 15.2777L6.66678 14.1111H5.889V15.2777H6.66678ZM6.66678 12.5555V11.3888H5.889V12.5555L6.66678 12.5555ZM4.72233 11.3888L4.72233 12.5555L5.50011 12.5555V11.3888H4.72233ZM5.50011 15.2777V14.1111H4.72233L4.72233 15.2777H5.50011Z" fill="#323232"/>
<path fill-rule="evenodd" clip-rule="evenodd" d="M14.9 10.4C14.9 10.1791 14.7209 10 14.5 10C14.2791 10 14.1 10.1791 14.1 10.4V11.6H12.9C12.6791 11.6 12.5 11.7791 12.5 12C12.5 12.2209 12.6791 12.4 12.9 12.4H14.1V13.6C14.1 13.8209 14.2791 14 14.5 14C14.7209 14 14.9 13.8209 14.9 13.6V12.4H16.1C16.3209 12.4 16.5 12.2209 16.5 12C16.5 11.7791 16.3209 11.6 16.1 11.6H14.9V10.4Z" fill="#323232"/>
</svg>
