<svg width="24" height="24" viewBox="0 0 24 24" fill="none" xmlns="http://www.w3.org/2000/svg">
<path d="M3.78471 8.83788C3.98975 8.51214 4.47052 8.53052 4.6501 8.87096L6.06271 11.549C6.24228 11.8894 5.98598 12.2966 5.60136 12.2819L2.57585 12.1662C2.19123 12.1515 1.96675 11.726 2.1718 11.4002L3.78471 8.83788Z" fill="#323232"/>
<path fill-rule="evenodd" clip-rule="evenodd" d="M11 4C11 3.72386 11.2239 3.5 11.5 3.5C14.6375 3.5 16.9014 4.68227 18.3754 6.35719C19.8381 8.01944 20.5 10.1402 20.5 12C20.5 13.8598 19.8381 15.9806 18.3754 17.6428C16.9014 19.3177 14.6375 20.5 11.5 20.5C9.07112 20.5 7.06509 19.2834 5.67965 17.6341C4.29982 15.9914 3.5 13.88 3.5 12C3.5 11.7239 3.72386 11.5 4 11.5C4.27614 11.5 4.5 11.7239 4.5 12C4.5 13.62 5.20018 15.5086 6.44535 16.9909C7.68491 18.4666 9.42888 19.5 11.5 19.5C14.3625 19.5 16.3486 18.4323 17.6246 16.9822C18.9119 15.5194 19.5 13.6402 19.5 12C19.5 10.3598 18.9119 8.48056 17.6246 7.01781C16.3486 5.56773 14.3625 4.5 11.5 4.5C11.2239 4.5 11 4.27614 11 4Z" fill="#323232"/>
<g clip-path="url(#clip0_2721_3354)">
<path fill-rule="evenodd" clip-rule="evenodd" d="M12.5156 7.29998C12.9024 7.30862 13.2089 7.62913 13.2002 8.01587L13.1211 11.5586C13.1125 11.9453 12.792 12.2518 12.4053 12.2432C12.0185 12.2346 11.712 11.9141 11.7206 11.5273L11.7997 7.9846C11.8084 7.59786 12.1289 7.29135 12.5156 7.29998Z" fill="#323232"/>
<path fill-rule="evenodd" clip-rule="evenodd" d="M12.9204 11.1355C13.1917 11.4113 13.188 11.8548 12.9122 12.126L9.99116 14.9993C9.71538 15.2706 9.27191 15.2669 9.00064 14.9912C8.72938 14.7154 8.73303 14.2719 9.00881 14.0006L11.9299 11.1274C12.2057 10.8561 12.6491 10.8597 12.9204 11.1355Z" fill="#323232"/>
</g>
<defs>
<clipPath id="clip0_2721_3354">
<rect width="6.92488" height="11.6644" fill="white" transform="translate(7 6)"/>
</clipPath>
</defs>
</svg>
