<svg width="24" height="24" viewBox="0 0 24 24" fill="none" xmlns="http://www.w3.org/2000/svg">
<path d="M6.035 15.1025C6.289 14.7851 6.44996 14.4034 6.5 14C6.51449 14.4012 6.65634 14.7873 6.90501 15.1025C7.21642 15.3517 7.60124 15.4914 8 15.5C7.59763 15.5605 7.21921 15.729 6.90501 15.9875C6.66118 16.2706 6.51866 16.6269 6.5 17C6.44234 16.6258 6.28129 16.2751 6.035 15.9875C5.74071 15.734 5.38289 15.5654 5 15.5C5.37889 15.4828 5.74202 15.3434 6.035 15.1025Z" fill="#323232"/>
<path d="M4.345 13.37C4.42998 13.2634 4.48364 13.1353 4.5 13C4.50359 13.1347 4.55098 13.2646 4.635 13.37C4.74015 13.4503 4.86776 13.4958 5 13.5C4.8662 13.5197 4.74014 13.5749 4.635 13.66C4.55354 13.7552 4.50605 13.8748 4.5 14C4.47871 13.8751 4.42529 13.758 4.345 13.66C4.24433 13.58 4.12607 13.5252 4 13.5C4.12593 13.4946 4.24684 13.4491 4.345 13.37Z" fill="#323232"/>
<path fill-rule="evenodd" clip-rule="evenodd" d="M14.5478 10.9434C15.118 9.9877 16.2383 9.09961 18.3181 9.09961C19.1913 9.09961 19.7994 9.24208 20.2048 9.40062C20.4071 9.47974 20.5568 9.56209 20.6622 9.63074C20.7147 9.66501 20.7559 9.69569 20.7869 9.72059C20.8023 9.73303 20.8152 9.74401 20.8256 9.75325L20.8393 9.76576L20.8448 9.77097L20.8473 9.7733L20.8484 9.77439C20.8487 9.77465 20.8495 9.77544 20.4999 10.1329C20.1504 10.4904 20.1506 10.4907 20.1509 10.491L20.1524 10.4924L20.1542 10.4941L20.1573 10.4971L20.1612 10.5007C20.1618 10.5012 20.1621 10.5015 20.1621 10.5015C20.1621 10.5015 20.1613 10.5008 20.1597 10.4995C20.1544 10.4952 20.1402 10.4842 20.1161 10.4685C20.068 10.4371 19.9791 10.3861 19.8405 10.3319C19.5641 10.2238 19.0813 10.0996 18.3181 10.0996C16.5797 10.0996 15.7909 10.8115 15.4066 11.4558C15.2047 11.7941 15.1018 12.1366 15.05 12.3971C15.0242 12.5265 15.0117 12.6329 15.0056 12.7046C15.0025 12.7403 15.0011 12.7671 15.0004 12.7835L14.9999 12.8001C14.9999 12.8006 14.9999 12.8011 14.9999 12.8014V12.8419L14.9931 12.882L14.9926 12.8849L14.99 12.9031C14.9876 12.9207 14.9841 12.9487 14.9805 12.9856C14.9733 13.0596 14.9658 13.1683 14.9658 13.2996C14.9658 13.5658 14.9966 13.907 15.1095 14.2383C15.2212 14.5657 15.4081 14.8706 15.716 15.0964C16.0227 15.3213 16.4925 15.4996 17.2272 15.4996C18.2329 15.4996 18.8174 15.2551 19.136 15.0474C19.2974 14.9422 19.3981 14.8415 19.4546 14.7753C19.4692 14.7582 19.4809 14.7432 19.49 14.731L19.856 13.2996H17.7726V12.2996H21.1438L20.425 15.1109L20.3996 15.1606L19.9545 14.9329C20.3996 15.1606 20.3998 15.1602 20.3996 15.1606L20.3989 15.162L20.3981 15.1636L20.3963 15.167L20.392 15.1751C20.3888 15.1809 20.3849 15.1878 20.3804 15.1956C20.3713 15.2113 20.3595 15.2308 20.3445 15.2535C20.3147 15.2989 20.2725 15.3572 20.2157 15.4239C20.1017 15.5577 19.9297 15.7237 19.682 15.8851C19.1824 16.2108 18.4033 16.4996 17.2272 16.4996C16.3255 16.4996 15.6363 16.278 15.1247 15.9028C14.6145 15.5287 14.3241 15.0335 14.163 14.5609C14.0032 14.0922 13.9658 13.6334 13.9658 13.2996C13.9658 13.131 13.9754 12.9896 13.9852 12.8886C13.9901 12.8381 13.9952 12.7973 13.9992 12.768C13.9997 12.7639 14.0003 12.7601 14.0008 12.7564C14.0009 12.7525 14.0011 12.7483 14.0012 12.7438C14.0025 12.7133 14.0048 12.6714 14.0092 12.6196C14.018 12.5163 14.0352 12.3727 14.0692 12.2021C14.1367 11.8627 14.2724 11.4051 14.5478 10.9434Z" fill="#323232"/>
<path fill-rule="evenodd" clip-rule="evenodd" d="M3 7.5H8V8.5H3V7.5ZM4.66667 9.5H7.44444V10.5H4.66667V9.5ZM5.22222 11.5H6.88889V12.5H5.22222V11.5Z" fill="#323232"/>
<path fill-rule="evenodd" clip-rule="evenodd" d="M9.46897 7.5H14.8V8.5H10.3129L9.93794 10.7H12.0658L12.0879 10.6997C12.1059 10.6996 12.13 10.6997 12.1592 10.7007C12.2176 10.7026 12.2977 10.7076 12.3926 10.7198C12.5797 10.744 12.8381 10.7982 13.1031 10.9224C13.3707 11.0479 13.6538 11.249 13.8684 11.568C14.0846 11.8895 14.2091 12.2981 14.2091 12.8C14.2091 13.7457 13.8967 14.551 13.3055 15.1188C12.717 15.684 11.9017 15.9667 10.9819 15.9667C10.3512 15.9667 9.8448 15.8112 9.44746 15.5522C9.05271 15.2949 8.79474 14.9545 8.6276 14.6276C8.46159 14.303 8.38105 13.9842 8.34125 13.7507C8.32115 13.6328 8.31089 13.5334 8.30564 13.4614C8.303 13.4254 8.30161 13.396 8.30087 13.3743L8.30018 13.3477L8.30007 13.3389L8.30005 13.3357L8.30005 13.3344C8.30005 13.3342 8.30005 13.3333 8.80005 13.3333C9.30005 13.3333 9.30005 13.3331 9.30005 13.3329L9.30004 13.3317C9.30003 13.3311 9.30004 13.3314 9.30004 13.3317L9.30029 13.3403C9.30062 13.3499 9.30135 13.3663 9.30298 13.3886C9.30625 13.4333 9.31304 13.5006 9.32703 13.5827C9.3554 13.7491 9.41123 13.9637 9.51795 14.1724C9.62354 14.3788 9.77466 14.5718 9.99354 14.7145C10.2098 14.8555 10.5216 14.9667 10.9819 14.9667C11.6984 14.9667 12.2467 14.7491 12.6128 14.3975C12.9762 14.0485 13.2091 13.5205 13.2091 12.8C13.2091 12.4688 13.1292 12.2608 13.0386 12.1261C12.9463 11.9889 12.8203 11.8942 12.6788 11.8279C12.5348 11.7604 12.384 11.727 12.2644 11.7116C12.2058 11.704 12.1581 11.7012 12.127 11.7002C12.1115 11.6997 12.1004 11.6996 12.0944 11.6997L12.0901 11.6997L12.0829 11.7H8.75306L9.46897 7.5Z" fill="#323232"/>
</svg>
