<svg width="24" height="24" viewBox="0 0 24 24" fill="none" xmlns="http://www.w3.org/2000/svg">
<path d="M3.51446 15.5C3.77327 11.0383 7.47343 7.5 12 7.5C16.5266 7.5 20.2267 11.0383 20.4855 15.5H20.4794H20.4569H20.4342H20.4114H20.3884H20.3653H20.3419H20.3184H20.2947H20.2709H20.2469H20.2227H20.1983H20.1738H20.1491H20.1243H20.0992H20.0741H20.0487H20.0232H19.9975H19.9717H19.9457H19.9196H19.8933H19.8668H19.8402H19.8134H19.7865H19.7594H19.7322H19.7048H19.6772H19.6495H19.6217H19.5937H19.5655H19.5372H19.5088H19.4802H19.4515H19.4226H19.3935H19.3644H19.3351H19.3056H19.276H19.2462H19.2164H19.1863H19.1562H19.1259H19.0954H19.0648H19.0341H19.0033H18.9723H18.9412H18.9099H18.8785H18.847H18.8154H18.7836H18.7517H18.7197H18.6875H18.6552H18.6228H18.5902H18.5576H18.5248H18.4919H18.4588H18.4257H18.3924H18.359H18.3254H18.2918H18.258H18.2242H18.1902H18.156H18.1218H18.0875H18.053H18.0184H17.9837H17.949H17.914H17.879H17.8439H17.8087H17.7733H17.7379H17.7023H17.6666H17.6309H17.595H17.559H17.5229H17.4867H17.4504H17.4141H17.3776H17.341H17.3043H17.2675H17.2306H17.1937H17.1566H17.1194H17.0822H17.0448H17.0073H16.9698H16.9322H16.8945H16.8566H16.8187H16.7808H16.7427H16.7045H16.6663H16.6279H16.5895H16.551H16.5124H16.4737H16.435H16.3962H16.3572H16.3183H16.2792H16.24H16.2008H16.1615H16.1221H16.0827H16.0431H16.0035H15.9639H15.9241H15.8843H15.8444H15.8045H15.7644H15.7243H15.6842H15.6439H15.6036H15.5633H15.5229H15.4824H15.4418H15.4012H15.3605H15.3198H15.279H15.2381H15.1972H15.1562H15.1152H15.0741H15.0329H14.9917H14.9505H14.9092H14.8678H14.8264H14.7849H14.7434H14.7019H14.6602H14.6186H14.5769H14.5351H14.4933H14.4514H14.4095H14.3676H14.3256H14.2836H14.2415H14.1994H14.1573H14.1151H14.0729H14.0306H13.9883H13.9459H13.9036H13.8612H13.8187H13.7762H13.7337H13.6912H13.6486H13.606H13.5634H13.5207H13.478H13.4353H13.3925H13.3497H13.3069H13.2641H13.2213H13.1784H13.1355H13.0926H13.0496H13.0067H12.9637H12.9207H12.8777H12.8346H12.7916H12.7485H12.7054H12.6623H12.6192H12.5761H12.533H12.4898H12.4466H12.4035H12.3603H12.3171H12.2739H12.2307H12.1875H12.1443H12.1011H12.0578H12.0146H11.9714H11.9281H11.8849H11.8417H11.7984H11.7552H11.712H11.6687H11.6255H11.5823H11.5391H11.4959H11.4527H11.4095H11.3663H11.3231H11.2799H11.2367H11.1936H11.1504H11.1073H11.0642H11.0211H10.978H10.9349H10.8919H10.8488H10.8058H10.7628H10.7198H10.6768H10.6339H10.5909H10.548H10.5051H10.4623H10.4194H10.3766H10.3338H10.2911H10.2483H10.2056H10.1629H10.1203H10.0777H10.0351H9.99251H9.94998H9.90748H9.86502H9.82259H9.7802H9.73784H9.69551H9.65323H9.61098H9.56877H9.5266H9.48447H9.44238H9.40034H9.35833H9.31637H9.27445H9.23257H9.19075H9.14896H9.10723H9.06554H9.0239H8.9823H8.94076H8.89927H8.85783H8.81644H8.7751H8.73382H8.69259H8.65141H8.61029H8.56923H8.52822H8.48728H8.44639H8.40556H8.36478H8.32407H8.28343H8.24284H8.20232H8.16186H8.12146H8.08113H8.04086H8.00067H7.96054H7.92047H7.88048H7.84055H7.8007H7.76092H7.7212H7.68156H7.642H7.60251H7.56309H7.52375H7.48448H7.44529H7.40618H7.36715H7.32819H7.28932H7.25053H7.21182H7.17319H7.13464H7.09617H7.0578H7.0195H6.98129H6.94317H6.90513H6.86719H6.82933H6.79156H6.75388H6.71629H6.6788H6.64139H6.60408H6.56687H6.52974H6.49272H6.45579H6.41895H6.38222H6.34558H6.30904H6.2726H6.23626H6.20002H6.16389H6.12785H6.09192H6.0561H6.02038H5.98476H5.94925H5.91385H5.87856H5.84337H5.8083H5.77333H5.73848H5.70374H5.6691H5.63459H5.60018H5.56589H5.53172H5.49766H5.46372H5.4299H5.39619H5.3626H5.32914H5.29579H5.26256H5.22946H5.19648H5.16362H5.13089H5.09828H5.06579H5.03344H5.00121H4.9691H4.93713H4.90529H4.87357H4.84199H4.81054H4.77922H4.74803H4.71698H4.68606H4.65527H4.62463H4.59411H4.56374H4.5335H4.50341H4.47345H4.44363H4.41396H4.38442H4.35503H4.32578H4.29668H4.26772H4.23891H4.21024H4.18172H4.15334H4.12512H4.09704H4.06912H4.04134H4.01372H3.98625H3.95893H3.93176H3.90475H3.8779H3.8512H3.82465H3.79827H3.77204H3.74597H3.72006H3.69431H3.66872H3.6433H3.61803H3.59293H3.56799H3.54322H3.51862H3.51446Z" stroke="#323232"/>
<path fill-rule="evenodd" clip-rule="evenodd" d="M3 17H4.7999V18H19.1999V17H21C21 18.1046 20.1046 19 19 19H4.99998C3.89542 19 3 18.1046 3 17Z" fill="#323232"/>
<path fill-rule="evenodd" clip-rule="evenodd" d="M10.5 5C10.2239 5 10 5.22386 10 5.5C10 5.77614 10.2239 6 10.5 6H11.5V7.5H12.5L12.5 6H13.5C13.7761 6 14 5.77614 14 5.5C14 5.22386 13.7761 5 13.5 5H10.5Z" fill="#323232"/>
</svg>
