<svg width="24" height="24" viewBox="0 0 24 24" fill="none" xmlns="http://www.w3.org/2000/svg">
<path fill-rule="evenodd" clip-rule="evenodd" d="M6.31303 18.5333C7.088 19.7464 8.05471 20.9889 9.31749 21H9.34157C9.77686 20.9896 10.2039 20.8751 10.5892 20.6656C11.1304 20.3849 11.7279 20.2395 12.3335 20.241H12.3523C12.9145 20.2326 13.4706 20.3627 13.9744 20.6205L14.0681 20.6647C14.4447 20.8751 14.8644 20.99 15.2925 21H15.3139C16.5571 20.988 17.5577 19.6755 18.3728 18.3933C18.636 17.9847 18.876 17.5609 19.0917 17.1242C19.2393 16.8254 19.3755 16.5205 19.5 16.2103C19.4759 16.2009 19.452 16.1913 19.4281 16.1815C18.774 15.9112 18.2041 15.4597 17.7816 14.8762C17.3437 14.2714 17.0824 13.5498 17.0284 12.7966C16.9744 12.0434 17.13 11.29 17.4769 10.6252C17.6931 10.2108 17.978 9.84166 18.3166 9.53332C18.5213 9.3469 18.7456 9.18271 18.9863 9.04421C18.7839 8.76705 18.5524 8.51534 18.2965 8.29339C18.0545 8.08342 17.7908 7.90007 17.5095 7.74698C16.9308 7.43205 16.292 7.25289 15.6385 7.22229C15.2223 7.22833 14.8093 7.28616 14.4082 7.39385C14.1528 7.46244 13.9022 7.55126 13.6587 7.65981C13.6551 7.66149 13.6515 7.66317 13.6479 7.66483C13.2254 7.85918 12.7715 7.97026 12.3095 7.99232C12.1333 7.98324 11.9582 7.96331 11.785 7.93278C11.4472 7.87322 11.1166 7.77328 10.8 7.63456C10.7996 7.63438 10.7992 7.6342 10.7988 7.63402C10.2165 7.3831 9.59493 7.24329 8.96434 7.22137C8.22176 7.26198 7.50014 7.49002 6.8627 7.88554C6.22526 8.28105 5.69143 8.83196 5.30798 9.49002C4.62929 10.7235 4.36731 12.1552 4.56333 13.5594C4.75562 15.3374 5.35542 17.0425 6.31303 18.5333ZM11.7477 6.90364C11.7476 7.04552 11.7556 7.18759 11.7717 7.32914C11.9409 7.32541 12.1093 7.30894 12.2754 7.28006C12.2993 7.27591 12.3231 7.27151 12.3469 7.26685C12.3588 7.26451 12.3707 7.26212 12.3826 7.25965C12.5099 7.23327 12.6357 7.19955 12.7594 7.15866C12.9344 7.10079 13.1052 7.02855 13.2699 6.94236C13.2849 6.93451 13.2999 6.92656 13.3148 6.91849C13.3184 6.91653 13.322 6.91457 13.3256 6.9126C13.5425 6.794 13.7461 6.65233 13.9332 6.49029C14.1269 6.32252 14.3029 6.13292 14.4578 5.92447C14.7788 5.51883 15.0191 5.05161 15.1646 4.54971C15.2156 4.37381 15.2547 4.19486 15.2816 4.01417C15.3315 3.67931 15.3398 3.33849 15.3059 3C14.9666 3.04166 14.6365 3.12634 14.3223 3.2503C13.6752 3.50556 13.0956 3.92736 12.6421 4.48296C12.3103 4.86677 12.0612 5.31893 11.9112 5.80956C11.8592 5.97959 11.8195 6.1529 11.7922 6.32806C11.7759 6.43319 11.764 6.53899 11.7566 6.64516C11.7507 6.73113 11.7477 6.81735 11.7477 6.90364ZM12.899 6.00525C13.0106 5.68383 13.1806 5.38911 13.3986 5.13691L13.4079 5.12621L13.4168 5.11526C13.6273 4.85742 13.8723 4.63851 14.1415 4.46333C14.0306 4.76882 13.8724 5.05273 13.6737 5.30387L13.6642 5.31585L13.6551 5.32813C13.4481 5.60671 13.1904 5.83639 12.899 6.00525ZM6.1781 9.98305C5.60867 11.0236 5.38789 12.2332 5.55373 13.4212L5.55587 13.4365L5.55753 13.4519C5.73331 15.0772 6.28144 16.6338 7.15441 17.9929L7.15575 17.9949C7.53342 18.5861 7.91403 19.1122 8.31493 19.4866C8.71202 19.8575 9.03888 19.9964 9.32269 20H9.32823C9.6 19.9918 9.86785 19.9196 10.1115 19.7871L10.1201 19.7824L10.1288 19.7779C10.8115 19.4238 11.5672 19.2393 12.3345 19.241M6.1781 9.98305C6.4801 9.46861 6.89688 9.04118 7.38993 8.73526C7.87334 8.43532 8.41667 8.26039 8.9747 8.22259C9.46395 8.24505 9.94644 8.35602 10.4004 8.55124C10.9889 8.80886 11.6177 8.95796 12.2579 8.991L12.3075 8.99356L12.3572 8.99119C12.9503 8.96286 13.532 8.81983 14.072 8.57043C14.5634 8.35231 15.0896 8.23459 15.622 8.22275C16.1128 8.25026 16.5936 8.38703 17.0315 8.62533C17.1949 8.71429 17.3511 8.81666 17.4984 8.93137C17.136 9.28956 16.8293 9.70473 16.5904 10.1626C16.1571 10.9929 15.9638 11.9314 16.0309 12.8681C16.0981 13.8049 16.4232 14.7052 16.9717 15.4626C17.3125 15.9334 17.7312 16.3373 18.2073 16.6566C18.0051 17.0683 17.7797 17.4674 17.5321 17.8518L17.5289 17.8568C17.1294 18.4852 16.7273 19.05 16.3093 19.4536C15.8891 19.8592 15.5628 19.9962 15.308 20H15.3056C15.045 19.9923 14.7883 19.9215 14.5557 19.7916L14.5259 19.775L14.4149 19.7226C13.7728 19.3972 13.0637 19.2316 12.3453 19.241H12.3345" fill="#323232"/>
<path fill-rule="evenodd" clip-rule="evenodd" d="M6.87842 12.129C7.01595 10.96 7.59453 9.83594 8.87875 9.51489L9.12128 10.485C8.40544 10.664 7.98404 11.2899 7.87157 12.2459C7.75924 13.2007 7.98561 14.3532 8.44714 15.2764L7.55269 15.7235C7.01436 14.6467 6.74075 13.2992 6.87842 12.129Z" fill="#FFCB05"/>
</svg>
